<svg viewBox="0 0 128 128" fill="none" xmlns="http://www.w3.org/2000/svg">
    <g clip-path="url(#clip0_20_364)">
        <mask id="mask0_20_364" style="mask-type:luminance" maskUnits="userSpaceOnUse" x="0" y="0" width="128" height="128">
            <path d="M128 0H0V128H128V0Z" fill="white"/>
        </mask>
        <g mask="url(#mask0_20_364)">
            <path d="M102.4 125.596H1.65051C0.55017 125.596 0 124.555 0 122.473V112.954C0 111.864 0.110036 111.12 0.330103 110.723C0.550172 110.228 0.990306 109.98 1.65051 109.98H102.4C102.4 119.581 102.4 125.596 102.4 125.596Z" fill="url(#paint0_linear_20_364)"/>
            <path d="M104.767 125.59H101.346C101.346 117.781 101.346 121.533 101.346 109.972C106.205 109.972 108.635 110.617 108.635 107.642V91.2437C108.635 88.8638 106.602 86.583 102.536 84.4015L87.8105 76.2206C82.7533 73.6424 79.0346 70.8659 76.6547 67.891C74.4164 65.0929 73.2307 62.3718 73.0976 58.0826C73.089 57.8114 73.0848 44.5448 73.0848 44.2677C73.0848 37.3263 74.9194 32.2193 78.5884 28.947C82.2575 25.6747 88.0089 24.0384 95.8428 24.0384H120.683C122.666 24.0384 123.658 25.0797 123.658 27.162V36.8305C123.658 37.9213 123.46 38.7147 123.063 39.2104C122.666 39.607 121.873 39.8054 120.683 39.8054H100.008C95.1486 39.8054 92.7191 41.0449 92.7191 43.524V59.3314C92.7191 61.5129 94.8512 60.8503 99.1151 63.1311C103.379 65.4118 114.138 72.0557 114.138 72.0557C119.295 74.8324 122.914 77.7081 124.997 80.6829C127.079 83.5586 128.12 87.3764 128.12 92.1363C128.12 93.1586 128.074 115.019 127.982 115.962C126.876 127.284 119.138 125.59 104.767 125.59Z" fill="white"/>
            <path d="M21.1363 84.1423H37.7956C41.068 84.1423 43.3984 83.4976 44.7866 82.2086C46.2741 80.8203 47.0178 78.5892 47.0178 75.5151V66.8879C47.0178 63.814 46.2741 61.6322 44.7866 60.3433C43.2992 59.0541 40.8698 58.4096 37.4983 58.4096H21.1363C20.0455 58.4096 19.5002 58.9549 19.5002 60.0457V82.506C19.5002 83.5968 20.0455 84.1423 21.1363 84.1423ZM21.1363 43.0889H36.3083C39.4814 43.0889 41.8119 42.4444 43.2992 41.1552C44.7866 39.7668 45.5305 37.5358 45.5305 34.4617V28.6607C45.5305 25.5866 44.7866 23.405 43.2992 22.1161C41.9108 20.7277 39.6301 20.0335 36.457 20.0335H21.1363C20.0455 20.0335 19.5002 20.5789 19.5002 21.6698V41.4528C19.5002 42.5436 20.0455 43.0889 21.1363 43.0889ZM0.60965 96.7855V7.39029C0.60965 5.30788 1.65086 4.26666 3.73328 4.26666H39.4319C47.2657 4.26666 53.3146 6.34907 57.5787 10.5139C61.8426 14.6788 63.9746 20.6285 63.9746 28.3633V34.4617C63.9746 42.8905 60.0576 48.3445 52.2238 50.8237C56.1903 51.4185 59.3636 53.0547 61.7434 55.7321C64.1233 58.3104 65.3133 62.029 65.3133 66.8879V75.8127C65.3133 83.5473 63.1812 89.497 58.9173 93.6619C54.6535 97.8268 48.6541 99.9091 40.9193 99.9091H3.73328C1.65086 99.9091 0.60965 98.8678 0.60965 96.7855Z" fill="white"/>
        </g>
    </g>
    <defs>
        <linearGradient id="paint0_linear_20_364" x1="102.032" y1="125.596" x2="2.2507" y2="125.596" gradientUnits="userSpaceOnUse">
            <stop offset="0.365" stop-color="white"/>
            <stop offset="0.925" stop-color="white" stop-opacity="0"/>
        </linearGradient>
        <clipPath id="clip0_20_364">
            <rect width="128" height="128" fill="white"/>
        </clipPath>
    </defs>
</svg>
