<svg width="96" height="32" viewBox="0 0 96 32" fill="none" xmlns="http://www.w3.org/2000/svg">
<g clip-path="url(#clip0_18_1513)">
<mask id="mask0_18_1513" style="mask-type:luminance" maskUnits="userSpaceOnUse" x="0" y="0" width="96" height="32">
<path d="M96 0H0V32H96V0Z" fill="white"/>
</mask>
<g mask="url(#mask0_18_1513)">
<path d="M2.44519 32.0001H0.428081C0.392692 32.0001 0.375 31.9808 0.375 31.9421V27.9169C0.375 27.8782 0.392692 27.8589 0.428081 27.8589H2.44519C2.48501 27.8589 2.50491 27.8761 2.50491 27.9104V27.9877C2.50491 28.022 2.48501 28.0392 2.44519 28.0392H0.633776C0.593962 28.0392 0.574057 28.0564 0.574057 28.0908V29.7459C0.574057 29.7803 0.593962 29.7974 0.633776 29.7974H2.27268C2.31249 29.7974 2.33239 29.8146 2.33239 29.849V29.9262C2.33239 29.9606 2.31249 29.9778 2.27268 29.9778H0.633776C0.593962 29.9778 0.574057 29.9949 0.574057 30.0293V31.7682C0.574057 31.8026 0.593962 31.8197 0.633776 31.8197H2.44519C2.48501 31.8197 2.50491 31.8369 2.50491 31.8713V31.9485C2.50491 31.9829 2.48501 32.0001 2.44519 32.0001Z" fill="white"/>
<path d="M8.21422 32.0001H8.12134C8.08594 32.0001 8.06824 31.9808 8.06824 31.9421V27.9169C8.06824 27.8782 8.08594 27.8589 8.12134 27.8589H8.21422C8.23635 27.8589 8.2518 27.8675 8.26065 27.8846L10.4835 31.5364H10.51V27.9169C10.51 27.8782 10.5277 27.8589 10.5631 27.8589H10.656C10.6914 27.8589 10.7091 27.8782 10.7091 27.9169V31.9421C10.7091 31.9808 10.6914 32.0001 10.656 32.0001H10.5896C10.5586 32.0001 10.5321 31.9829 10.51 31.9485L8.29384 28.3097H8.26729V31.9421C8.26729 31.9808 8.24959 32.0001 8.21422 32.0001Z" fill="white"/>
<path d="M17.2257 32.0001H17.1328C17.0974 32.0001 17.0797 31.9808 17.0797 31.9421V28.0908C17.0797 28.0564 17.0598 28.0392 17.02 28.0392H15.9982C15.9584 28.0392 15.9385 28.022 15.9385 27.9877V27.9104C15.9385 27.8761 15.9584 27.8589 15.9982 27.8589H18.3603C18.4001 27.8589 18.42 27.8761 18.42 27.9104V27.9877C18.42 28.022 18.4001 28.0392 18.3603 28.0392H17.3385C17.2987 28.0392 17.2788 28.0564 17.2788 28.0908V31.9421C17.2788 31.9808 17.2611 32.0001 17.2257 32.0001Z" fill="white"/>
<path d="M25.7192 32.0001H23.7021C23.6667 32.0001 23.649 31.9808 23.649 31.9421V27.9169C23.649 27.8782 23.6667 27.8589 23.7021 27.8589H25.7192C25.759 27.8589 25.7789 27.8761 25.7789 27.9104V27.9877C25.7789 28.022 25.759 28.0392 25.7192 28.0392H23.9078C23.8679 28.0392 23.848 28.0564 23.848 28.0908V29.7459C23.848 29.7803 23.8679 29.7974 23.9078 29.7974H25.5467C25.5865 29.7974 25.6064 29.8146 25.6064 29.849V29.9262C25.6064 29.9606 25.5865 29.9778 25.5467 29.9778H23.9078C23.8679 29.9778 23.848 29.9949 23.848 30.0293V31.7682C23.848 31.8026 23.8679 31.8197 23.9078 31.8197H25.7192C25.759 31.8197 25.7789 31.8369 25.7789 31.8713V31.9485C25.7789 31.9829 25.759 32.0001 25.7192 32.0001Z" fill="white"/>
<path d="M31.4882 32.0001H31.3953C31.3599 32.0001 31.3422 31.9808 31.3422 31.9421V27.9169C31.3422 27.8782 31.3599 27.8589 31.3953 27.8589H32.8882C33.1581 27.8589 33.3726 27.9383 33.5318 28.0972C33.6955 28.2561 33.7774 28.4686 33.7774 28.7348V29.3788C33.7774 29.6193 33.711 29.8168 33.5783 29.9713C33.4456 30.1216 33.2665 30.2118 33.0409 30.2418V30.2676L33.857 31.9421C33.8791 31.9808 33.8702 32.0001 33.8304 32.0001H33.711C33.6756 32.0001 33.6469 31.9808 33.6247 31.9421L32.8153 30.2547H31.601C31.5612 30.2547 31.5413 30.2719 31.5413 30.3062V31.9421C31.5413 31.9808 31.5236 32.0001 31.4882 32.0001ZM31.601 30.0744H32.8882C33.1094 30.0744 33.2797 30.0121 33.3991 29.8876C33.5186 29.7631 33.5783 29.5914 33.5783 29.3724V28.7412C33.5783 28.5223 33.5186 28.3505 33.3991 28.226C33.2797 28.1015 33.1094 28.0392 32.8882 28.0392H31.601C31.5612 28.0392 31.5413 28.0564 31.5413 28.0908V30.0229C31.5413 30.0572 31.5612 30.0744 31.601 30.0744Z" fill="white"/>
<path d="M40.182 32.0001H40.0894C40.0538 32.0001 40.0361 31.9808 40.0361 31.9421V28.0908C40.0361 28.0564 40.0163 28.0392 39.9765 28.0392H38.9546C38.9149 28.0392 38.895 28.022 38.895 27.9877V27.9104C38.895 27.8761 38.9149 27.8589 38.9546 27.8589H41.3168C41.3565 27.8589 41.3764 27.8761 41.3764 27.9104V27.9877C41.3764 28.022 41.3565 28.0392 41.3168 28.0392H40.2949C40.2551 28.0392 40.2353 28.0564 40.2353 28.0908V31.9421C40.2353 31.9808 40.2176 32.0001 40.182 32.0001Z" fill="white"/>
<path d="M46.3466 32.0001H46.254C46.2139 32.0001 46.2008 31.9808 46.2139 31.9421L47.6074 27.9169C47.6205 27.8782 47.6426 27.8589 47.6738 27.8589H47.8331C47.8639 27.8589 47.886 27.8782 47.8995 27.9169L49.2926 31.9421C49.3061 31.9808 49.2926 32.0001 49.2529 32.0001H49.1535C49.1224 32.0001 49.1003 31.9808 49.0871 31.9421L48.6825 30.8215H46.8244L46.4198 31.9421C46.4021 31.9808 46.3778 32.0001 46.3466 32.0001ZM47.7401 28.1036L46.8975 30.6282H48.6094L47.7668 28.1036H47.7401Z" fill="white"/>
<path d="M54.8291 27.9169V31.9421C54.8291 31.9808 54.8111 32.0001 54.7759 32.0001H54.6829C54.6476 32.0001 54.63 31.9808 54.63 31.9421V27.9169C54.63 27.8782 54.6476 27.8589 54.6829 27.8589H54.7759C54.8111 27.8589 54.8291 27.8782 54.8291 27.9169Z" fill="white"/>
<path d="M60.6994 32.0001H60.6064C60.5712 32.0001 60.5535 31.9808 60.5535 31.9421V27.9169C60.5535 27.8782 60.5712 27.8589 60.6064 27.8589H60.6994C60.7215 27.8589 60.7369 27.8675 60.7459 27.8846L62.9685 31.5364H62.9952V27.9169C62.9952 27.8782 63.0128 27.8589 63.0484 27.8589H63.141C63.1767 27.8589 63.1943 27.8782 63.1943 27.9169V31.9421C63.1943 31.9808 63.1767 32.0001 63.141 32.0001H63.0747C63.0439 32.0001 63.0173 31.9829 62.9952 31.9485L60.7789 28.3097H60.7527V31.9421C60.7527 31.9808 60.7347 32.0001 60.6994 32.0001Z" fill="white"/>
<path d="M72.0199 27.8589H72.2059C72.2411 27.8589 72.2587 27.8782 72.2587 27.9169V31.9421C72.2587 31.9808 72.2411 32.0001 72.2059 32.0001H72.1129C72.0772 32.0001 72.0596 31.9808 72.0596 31.9421V28.2324H72.0334L70.7194 31.0469C70.7017 31.0812 70.6751 31.0984 70.6399 31.0984H70.5139C70.4782 31.0984 70.4516 31.0812 70.434 31.0469L69.1136 28.226H69.087V31.9421C69.087 31.9808 69.0694 32.0001 69.0341 32.0001H68.9411C68.9059 32.0001 68.8882 31.9808 68.8882 31.9421V27.9169C68.8882 27.8782 68.9059 27.8589 68.9411 27.8589H69.1271C69.1492 27.8589 69.1646 27.8675 69.1732 27.8846L70.56 30.8601H70.5866L71.9734 27.8846C71.9824 27.8675 71.9977 27.8589 72.0199 27.8589Z" fill="white"/>
<path d="M80.0254 32.0001H78.0083C77.9726 32.0001 77.955 31.9808 77.955 31.9421V27.9169C77.955 27.8782 77.9726 27.8589 78.0083 27.8589H80.0254C80.0651 27.8589 80.085 27.8761 80.085 27.9104V27.9877C80.085 28.022 80.0651 28.0392 80.0254 28.0392H78.2138C78.174 28.0392 78.1541 28.0564 78.1541 28.0908V29.7459C78.1541 29.7803 78.174 29.7974 78.2138 29.7974H79.8525C79.8926 29.7974 79.9125 29.8146 79.9125 29.849V29.9262C79.9125 29.9606 79.8926 29.9778 79.8525 29.9778H78.2138C78.174 29.9778 78.1541 29.9949 78.1541 30.0293V31.7682C78.1541 31.8026 78.174 31.8197 78.2138 31.8197H80.0254C80.0651 31.8197 80.085 31.8369 80.085 31.8713V31.9485C80.085 31.9829 80.0651 32.0001 80.0254 32.0001Z" fill="white"/>
<path d="M85.794 32.0001H85.7014C85.6658 32.0001 85.6481 31.9808 85.6481 31.9421V27.9169C85.6481 27.8782 85.6658 27.8589 85.7014 27.8589H85.794C85.8161 27.8589 85.8319 27.8675 85.8405 27.8846L88.0635 31.5364H88.0901V27.9169C88.0901 27.8782 88.1078 27.8589 88.143 27.8589H88.236C88.2713 27.8589 88.2889 27.8782 88.2889 27.9169V31.9421C88.2889 31.9808 88.2713 32.0001 88.236 32.0001H88.1696C88.1385 32.0001 88.1123 31.9829 88.0901 31.9485L85.8739 28.3097H85.8473V31.9421C85.8473 31.9808 85.8296 32.0001 85.794 32.0001Z" fill="white"/>
<path d="M94.8056 32.0001H94.7126C94.6774 32.0001 94.6597 31.9808 94.6597 31.9421V28.0908C94.6597 28.0564 94.6399 28.0392 94.6001 28.0392H93.5783C93.5385 28.0392 93.5182 28.022 93.5182 27.9877V27.9104C93.5182 27.8761 93.5385 27.8589 93.5783 27.8589H95.9404C95.9801 27.8589 96 27.8761 96 27.9104V27.9877C96 28.022 95.9801 28.0392 95.9404 28.0392H94.9185C94.8787 28.0392 94.8589 28.0564 94.8589 28.0908V31.9421C94.8589 31.9808 94.8409 32.0001 94.8056 32.0001Z" fill="white"/>
<path d="M44.637 23.1934H12.7169C12.3683 23.1934 12.194 23.0096 12.194 22.6422V20.9622C12.194 20.7697 12.2288 20.6385 12.2985 20.5685C12.3683 20.481 12.5077 20.4373 12.7169 20.4373H44.637C44.637 22.1318 44.637 23.1934 44.637 23.1934Z" fill="url(#paint0_linear_18_1513)"/>
<path d="M3.71538 15.8772H6.64378C7.21899 15.8772 7.62864 15.7634 7.87265 15.5359C8.13414 15.291 8.26487 14.8972 8.26487 14.3548V12.8323C8.26487 12.2898 8.13414 11.9048 7.87265 11.6773C7.6112 11.4499 7.18415 11.3361 6.5915 11.3361H3.71538C3.52364 11.3361 3.42777 11.4324 3.42777 11.6249V15.5885C3.42777 15.7809 3.52364 15.8772 3.71538 15.8772ZM3.71538 8.63248H6.38233C6.9401 8.63248 7.34975 8.51871 7.6112 8.29125C7.87265 8.04624 8.00342 7.65253 8.00342 7.11004V6.08634C8.00342 5.54384 7.87265 5.15886 7.6112 4.93136C7.36715 4.68639 6.96624 4.56389 6.40846 4.56389H3.71538C3.52364 4.56389 3.42777 4.66012 3.42777 4.85261V8.34373C3.42777 8.53622 3.52364 8.63248 3.71538 8.63248ZM0.107178 18.1084V2.33272C0.107178 1.96524 0.290202 1.78149 0.656254 1.78149H6.9314C8.30844 1.78149 9.37172 2.14898 10.1213 2.88395C10.8708 3.61892 11.2456 4.66889 11.2456 6.03382V7.11004C11.2456 8.59747 10.557 9.55992 9.17998 9.99742C9.87722 10.1024 10.435 10.3912 10.8534 10.8636C11.2717 11.3186 11.4809 11.9748 11.4809 12.8323V14.4072C11.4809 15.7722 11.1061 16.8222 10.3566 17.5571C9.60707 18.2921 8.55249 18.6596 7.19285 18.6596H0.656254C0.290202 18.6596 0.107178 18.4758 0.107178 18.1084Z" fill="white"/>
<path d="M14.4796 3.01518V0.731523C14.4796 0.381537 14.6539 0.206543 15.0025 0.206543H17.2772C17.6258 0.206543 17.8001 0.372786 17.8001 0.705272V3.01518C17.8001 3.36517 17.6258 3.54016 17.2772 3.54016H15.0025C14.6539 3.54016 14.4796 3.36517 14.4796 3.01518ZM14.4796 18.1083V5.82381C14.4796 5.45634 14.6539 5.27258 15.0025 5.27258H17.2511C17.6171 5.27258 17.8001 5.45634 17.8001 5.82381V18.1083C17.8001 18.3358 17.7566 18.4846 17.6694 18.5546C17.5997 18.6246 17.4689 18.6596 17.2772 18.6596H15.0286C14.6626 18.6596 14.4796 18.4758 14.4796 18.1083Z" fill="white"/>
<path d="M30.6399 18.6597H24.8615C23.4845 18.6597 22.4212 18.2922 21.6717 17.5572C20.9221 16.8223 20.5474 15.7635 20.5474 14.3811V9.55129C20.5474 8.16886 20.9221 7.11014 21.6717 6.37516C22.4212 5.64022 23.4845 5.27271 24.8615 5.27271H26.9271C28.3041 5.27271 29.3674 5.64022 30.117 6.37516C30.8665 7.11014 31.2412 8.16886 31.2412 9.55129V12.8849C31.2412 13.2524 31.0582 13.4361 30.6922 13.4361H24.1294C23.9203 13.4361 23.8157 13.5324 23.8157 13.7249V14.3024C23.8157 14.8448 23.929 15.2386 24.1556 15.4836C24.3996 15.7111 24.8005 15.8248 25.3583 15.8248H30.6399C31.0059 15.8248 31.189 16.0173 31.189 16.4023V18.1347C31.189 18.3272 31.1454 18.4672 31.0582 18.5547C30.9885 18.6247 30.8491 18.6597 30.6399 18.6597ZM24.1294 11.205H27.6853C27.8771 11.205 27.973 11.1087 27.973 10.9162V9.65629C27.973 9.09633 27.8596 8.70258 27.633 8.47508C27.4065 8.24761 27.0142 8.13384 26.4565 8.13384H25.3583C24.8005 8.13384 24.4083 8.24761 24.1817 8.47508C23.9551 8.70258 23.8418 9.09633 23.8418 9.65629V10.9162C23.8418 11.1087 23.9377 11.205 24.1294 11.205Z" fill="white"/>
<path d="M36.6311 18.6596H34.4086C34.0426 18.6596 33.8596 18.4758 33.8596 18.1083V0.757771C33.8596 0.390287 34.0426 0.206543 34.4086 0.206543H36.6311C36.9971 0.206543 37.1801 0.390287 37.1801 0.757771V18.1083C37.1801 18.4758 36.9971 18.6596 36.6311 18.6596Z" fill="white"/>
<path d="M45.2351 23.1936H44.6336C44.6336 21.8155 44.6336 22.4777 44.6336 20.4375C45.4879 20.4375 45.915 20.5513 45.915 20.0263V17.1325C45.915 16.7125 45.5576 16.31 44.8429 15.925L42.2543 14.4813C41.3655 14.0264 40.7119 13.5363 40.2934 13.0114C39.9 12.5176 39.6915 12.0374 39.6683 11.2805C39.6668 11.2326 39.666 8.89149 39.666 8.84259C39.666 7.61763 39.9885 6.71639 40.6331 6.13893C41.2781 5.56146 42.2891 5.27271 43.6661 5.27271H48.0326C48.3814 5.27271 48.5558 5.45646 48.5558 5.82393V7.53014C48.5558 7.72262 48.5209 7.8626 48.4511 7.95013C48.3814 8.02011 48.2419 8.05509 48.0326 8.05509H44.3985C43.5443 8.05509 43.1171 8.27385 43.1171 8.71131V11.5009C43.1171 11.8859 43.4921 11.7689 44.2414 12.1714C44.991 12.5739 46.8821 13.7463 46.8821 13.7463C47.7889 14.2363 48.4249 14.7438 48.7909 15.2688C49.1569 15.7763 49.3403 16.45 49.3403 17.2899C49.3403 17.4704 49.332 21.328 49.3159 21.4946C49.1213 23.4925 47.7611 23.1936 45.2351 23.1936Z" fill="white"/>
<path d="M56.3337 18.6597H55.7063C54.3293 18.6597 53.2658 18.2922 52.5162 17.5572C51.7669 16.8223 51.3919 15.7635 51.3919 14.3811V9.55129C51.3919 8.16886 51.7669 7.11014 52.5162 6.37516C53.2658 5.64022 54.3293 5.27271 55.7063 5.27271H61.746C62.1293 5.27271 62.3213 5.45646 62.3213 5.82393V18.1085C62.3213 18.4759 62.1293 18.6597 61.746 18.6597H59.5497C59.1837 18.6597 59.0007 18.4759 59.0007 18.1085V17.2422H58.896C58.7044 17.7147 58.3643 18.0735 57.8764 18.3185C57.3882 18.5459 56.874 18.6597 56.3337 18.6597ZM59.0007 13.7774V8.44884C59.0007 8.25635 58.896 8.16008 58.6868 8.16008H56.229C55.6714 8.16008 55.2792 8.28259 55.0527 8.52759C54.8258 8.75506 54.7125 9.14881 54.7125 9.70877V14.2236C54.7125 14.7836 54.8258 15.1861 55.0527 15.431C55.2792 15.6586 55.6714 15.7723 56.229 15.7723H57.1965C58.3992 15.7723 59.0007 15.1073 59.0007 13.7774Z" fill="white"/>
<path d="M67.9579 18.6597H65.7353C65.3693 18.6597 65.1863 18.4759 65.1863 18.1085V5.82393C65.1863 5.45646 65.3693 5.27271 65.7353 5.27271H67.9579C68.3239 5.27271 68.5069 5.45646 68.5069 5.82393V6.69015H68.6115C68.9948 5.74521 69.849 5.27271 71.1739 5.27271H72.0105C74.7473 5.27271 76.1157 6.69889 76.1157 9.55129V18.1085C76.1157 18.4759 75.9237 18.6597 75.5404 18.6597H73.344C72.978 18.6597 72.795 18.4759 72.795 18.1085V9.70877C72.795 9.14881 72.6728 8.75506 72.4287 8.52759C72.2022 8.28259 71.8099 8.16008 71.2523 8.16008H70.311C69.1084 8.16008 68.5069 8.82508 68.5069 10.155V18.1085C68.5069 18.4759 68.3239 18.6597 67.9579 18.6597Z" fill="white"/>
<path d="M79.0032 3.01518V0.731523C79.0032 0.381537 79.1772 0.206543 79.5259 0.206543H81.8007C82.1494 0.206543 82.3238 0.372786 82.3238 0.705272V3.01518C82.3238 3.36517 82.1494 3.54016 81.8007 3.54016H79.5259C79.1772 3.54016 79.0032 3.36517 79.0032 3.01518ZM79.0032 18.1083V5.82381C79.0032 5.45634 79.1772 5.27258 79.5259 5.27258H81.7744C82.1404 5.27258 82.3238 5.45634 82.3238 5.82381V18.1083C82.3238 18.3358 82.2799 18.4846 82.1929 18.5546C82.1232 18.6246 81.9923 18.6596 81.8007 18.6596H79.5522C79.1862 18.6596 79.0032 18.4758 79.0032 18.1083Z" fill="white"/>
<path d="M90.0124 18.6597H89.385C88.008 18.6597 86.9445 18.2922 86.1952 17.5572C85.4456 16.8223 85.0706 15.7635 85.0706 14.3811V9.55129C85.0706 8.16886 85.4456 7.11014 86.1952 6.37516C86.9445 5.64022 88.008 5.27271 89.385 5.27271H95.4247C95.8084 5.27271 96 5.45646 96 5.82393V18.1085C96 18.4759 95.8084 18.6597 95.4247 18.6597H93.2284C92.8624 18.6597 92.6794 18.4759 92.6794 18.1085V17.2422H92.5747C92.3831 17.7147 92.043 18.0735 91.5551 18.3185C91.0669 18.5459 90.5527 18.6597 90.0124 18.6597ZM92.6794 13.7774V8.44884C92.6794 8.25635 92.5747 8.16008 92.3655 8.16008H89.9077C89.3501 8.16008 88.9579 8.28259 88.7314 8.52759C88.5049 8.75506 88.3912 9.14881 88.3912 9.70877V14.2236C88.3912 14.7836 88.5049 15.1861 88.7314 15.431C88.9579 15.6586 89.3501 15.7723 89.9077 15.7723H90.8752C92.0779 15.7723 92.6794 15.1073 92.6794 13.7774Z" fill="white"/>
</g>
</g>
<defs>
<linearGradient id="paint0_linear_18_1513" x1="44.5204" y1="23.1934" x2="12.907" y2="23.1934" gradientUnits="userSpaceOnUse">
<stop offset="0.365" stop-color="white"/>
<stop offset="0.925" stop-color="white" stop-opacity="0"/>
</linearGradient>
<clipPath id="clip0_18_1513">
<rect width="96" height="32" fill="white"/>
</clipPath>
</defs>
</svg>
