<svg xmlns="http://www.w3.org/2000/svg" width="97" height="32" fill="none" viewBox="0 0 97 32">
  <g clip-path="url(#a)">
    <path fill="#fff" d="M.153 30.81v-.24c0-.049.025-.073.073-.073H.42c.049 0 .073.024.073.073v.22c0 .445.216.667.647.667h.694c.431 0 .647-.224.647-.673v-.28a.53.53 0 0 0-.24-.46 1.595 1.595 0 0 0-.58-.24c-.227-.05-.456-.1-.688-.154a1.308 1.308 0 0 1-.58-.293.729.729 0 0 1-.24-.574v-.367c0-.293.085-.524.254-.693.168-.17.397-.254.686-.254h.774c.29 0 .518.085.687.254.169.169.253.4.253.693v.187c0 .049-.024.073-.073.073h-.193c-.05 0-.074-.024-.074-.073v-.167c0-.444-.215-.667-.647-.667h-.687c-.426 0-.64.227-.64.68v.334c0 .307.274.514.82.62.227.045.454.096.68.154.232.058.428.162.588.313.16.151.24.356.24.614v.326c0 .294-.085.525-.254.694-.169.17-.398.254-.687.254h-.787c-.289 0-.518-.085-.686-.254-.17-.169-.254-.4-.254-.694Zm14.402.647h.76c.205 0 .36-.055.468-.166.11-.116.166-.28.166-.494V28.43c0-.214-.055-.376-.166-.487-.107-.116-.263-.174-.467-.174h-.76c-.205 0-.36.058-.467.174-.107.115-.16.278-.16.487v2.367c0 .21.053.371.16.487.106.116.262.173.466.173Zm.794.3h-.82c-.29 0-.518-.084-.687-.253-.165-.169-.247-.4-.247-.694v-2.394c0-.293.082-.524.247-.693.169-.17.398-.254.687-.254h.82c.29 0 .516.085.68.254.17.169.254.4.254.693v2.395c0 .293-.085.524-.254.693-.164.17-.39.254-.68.254Zm11.996 0h-.193c-.045 0-.067-.026-.067-.08V27.55c0-.053.022-.08.067-.08h2.054c.053 0 .08.025.08.074v.153c0 .049-.027.073-.08.073h-1.72c-.045 0-.067.02-.067.06v1.621c0 .036.022.053.066.053h1.54c.05 0 .074.025.074.074v.16c0 .049-.024.073-.073.073h-1.54c-.045 0-.067.018-.067.053v1.814c0 .054-.025.08-.074.08Zm13.472 0h-.193c-.05 0-.074-.026-.074-.08V27.83c0-.04-.022-.06-.066-.06h-.967c-.054 0-.08-.024-.08-.073v-.153c0-.05.026-.074.08-.074h2.4c.054 0 .08.025.08.074v.153c0 .049-.026.073-.08.073h-.967c-.044 0-.066.02-.066.06v3.848c0 .054-.023.08-.067.08Zm12.59 0h-.333c-.048 0-.08-.026-.093-.08l-.914-4.128c-.013-.053.01-.08.067-.08h.22c.05 0 .078.027.087.08l.793 3.828h.034l1.014-3.834c.009-.05.038-.074.086-.074h.254c.053 0 .084.025.093.074l1.02 3.834h.034l.787-3.828c.009-.053.04-.08.093-.08h.227c.053 0 .073.027.06.08l-.914 4.128c-.008.054-.037.08-.086.08h-.34c-.05 0-.08-.026-.094-.08l-.987-3.76h-.027l-.993 3.76c-.014.054-.042.08-.087.08Zm13.933 0h-.207c-.049 0-.065-.026-.046-.08l1.327-4.128c.013-.053.044-.08.093-.08h.313c.045 0 .076.027.094.08l1.327 4.128c.013.054-.002.08-.047.08h-.213c-.045 0-.073-.026-.087-.08l-.36-1.067h-1.747l-.36 1.067c-.018.054-.047.08-.087.08Zm1.307-3.921-.767 2.474h1.567l-.773-2.474h-.027Zm12.36 3.922h-.194c-.044 0-.067-.027-.067-.08v-4.129c0-.053.023-.08.067-.08h1.52c.29 0 .519.085.687.254.17.169.254.4.254.693v.634a.945.945 0 0 1-.194.613.836.836 0 0 1-.513.307v.027l.793 1.68c.027.054.012.08-.046.08h-.207a.12.12 0 0 1-.12-.08l-.787-1.68h-1.054c-.044 0-.067.02-.067.06v1.62c0 .054-.024.08-.073.08Zm.14-2.048H82.3c.205 0 .362-.056.474-.167.111-.115.166-.277.166-.486v-.627c0-.21-.055-.372-.166-.487-.112-.116-.27-.174-.474-.174h-1.154c-.044 0-.067.02-.067.06v1.821c0 .04.023.06.067.06Zm15.026 2.048h-2.06c-.045 0-.067-.027-.067-.08v-4.129c0-.053.022-.08.067-.08h2.06c.054 0 .08.025.08.074v.153c0 .049-.026.073-.08.073h-1.727c-.044 0-.067.02-.067.06v1.534c0 .04.023.06.067.06h1.54c.05 0 .074.025.074.074v.153c0 .049-.024.073-.073.073h-1.54c-.045 0-.068.02-.068.06v1.614c0 .04.023.06.067.06h1.728c.053 0 .08.025.08.074v.153c0 .05-.027.074-.08.074Z"/>
    <path fill="url(#b)" d="M44.842 22.945H12.856c-.35 0-.524-.184-.524-.55v-1.677c0-.192.035-.323.105-.393.07-.088.21-.131.419-.131h31.986v2.75Z"/>
    <path fill="#fff" d="M3.836 15.642H6.77c.577 0 .987-.114 1.232-.34.262-.245.393-.638.393-1.18v-1.52c0-.541-.131-.925-.393-1.152-.262-.227-.69-.341-1.284-.341H3.836c-.192 0-.288.096-.288.288v3.957c0 .192.096.288.288.288Zm0-7.232h2.672c.56 0 .97-.113 1.232-.34.262-.245.393-.638.393-1.18V5.87c0-.542-.131-.926-.393-1.153-.245-.244-.647-.367-1.205-.367h-2.7c-.191 0-.287.096-.287.288v3.485c0 .192.096.288.288.288ZM.22 17.87V2.122c0-.367.184-.55.55-.55h6.29c1.38 0 2.445.367 3.196 1.1.751.734 1.127 1.782 1.127 3.145V6.89c0 1.484-.69 2.445-2.07 2.882.699.105 1.258.393 1.677.864.419.455.628 1.11.628 1.965v1.572c0 1.363-.375 2.411-1.126 3.145-.751.733-1.808 1.1-3.17 1.1H.77c-.367 0-.55-.183-.55-.55ZM14.623 2.803V.524c0-.35.174-.524.524-.524h2.279c.35 0 .524.166.524.498v2.305c0 .35-.175.524-.524.524h-2.28c-.349 0-.523-.174-.523-.524Zm0 15.066V5.607c0-.367.174-.55.524-.55H17.4c.367 0 .55.183.55.55v12.262c0 .227-.044.375-.131.445-.07.07-.2.105-.393.105h-2.253c-.367 0-.55-.183-.55-.55Zm16.193.55h-5.79c-1.38 0-2.445-.367-3.197-1.1-.75-.734-1.126-1.79-1.126-3.17V9.326c0-1.38.375-2.436 1.127-3.17.75-.734 1.816-1.1 3.196-1.1h2.07c1.38 0 2.445.366 3.196 1.1.751.734 1.127 1.79 1.127 3.17v3.328c0 .367-.184.55-.55.55h-6.577c-.21 0-.314.096-.314.288v.577c0 .541.113.934.34 1.179.245.227.647.34 1.206.34h5.292c.367 0 .55.192.55.577v1.729c0 .192-.043.332-.13.42-.07.069-.21.104-.42.104Zm-6.524-7.441h3.564c.192 0 .288-.096.288-.288V9.432c0-.559-.114-.952-.34-1.179-.228-.227-.62-.34-1.18-.34h-1.1c-.56 0-.952.113-1.18.34-.226.227-.34.62-.34 1.18v1.257c0 .192.096.288.288.288Zm12.528 7.441h-2.227c-.367 0-.55-.183-.55-.55V.55c0-.367.183-.55.55-.55h2.227c.367 0 .55.183.55.55v17.32c0 .367-.183.55-.55.55Zm8.622 4.526h-.603v-2.752c.856 0 1.284.114 1.284-.41v-2.889c0-.419-.358-.82-1.074-1.205l-2.594-1.44c-.89-.455-1.546-.944-1.965-1.468-.394-.493-.603-.972-.627-1.728l-.002-2.433c0-1.223.323-2.122.97-2.699.646-.576 1.659-.864 3.039-.864h4.375c.35 0 .524.183.524.55V7.31c0 .192-.035.332-.105.42-.07.069-.21.104-.419.104h-3.642c-.855 0-1.283.218-1.283.655v2.784c0 .385.375.268 1.126.67.751.401 2.646 1.572 2.646 1.572.909.489 1.546.995 1.913 1.52.367.506.55 1.178.55 2.017 0 .18-.008 4.03-.024 4.197-.195 1.994-1.558 1.696-4.09 1.696Zm11.121-4.526h-.629c-1.38 0-2.445-.367-3.196-1.1-.751-.734-1.127-1.79-1.127-3.17V9.326c0-1.38.376-2.436 1.127-3.17s1.817-1.1 3.196-1.1h6.053c.384 0 .576.183.576.55v12.262c0 .366-.192.55-.577.55h-2.2c-.367 0-.55-.184-.55-.55v-.865h-.105c-.192.472-.533.83-1.022 1.074a3.626 3.626 0 0 1-1.546.34Zm2.672-4.873v-5.32c0-.191-.104-.287-.314-.287h-2.463c-.559 0-.952.122-1.179.367-.227.227-.34.62-.34 1.179v4.506c0 .559.113.96.34 1.205.227.227.62.34 1.18.34h.969c1.205 0 1.808-.663 1.808-1.99Zm8.976 4.873h-2.227c-.366 0-.55-.184-.55-.55V5.607c0-.367.184-.55.55-.55h2.227c.367 0 .55.183.55.55v.864h.105c.385-.943 1.24-1.414 2.568-1.414h.838c2.743 0 4.114 1.423 4.114 4.27v8.542c0 .366-.192.55-.576.55h-2.201c-.367 0-.55-.184-.55-.55V9.485c0-.56-.123-.952-.367-1.18-.227-.244-.62-.366-1.18-.366h-.943c-1.205 0-1.807.663-1.807 1.99v7.94c0 .366-.184.55-.55.55ZM79.28 2.803V.524c0-.35.174-.524.523-.524h2.28c.35 0 .524.166.524.498v2.305c0 .35-.175.524-.524.524h-2.28c-.349 0-.524-.174-.524-.524Zm0 15.066V5.607c0-.367.174-.55.523-.55h2.254c.366 0 .55.183.55.55v12.262c0 .227-.044.375-.131.445-.07.07-.2.105-.393.105h-2.254c-.366 0-.55-.183-.55-.55Zm11.032.55h-.629c-1.38 0-2.445-.367-3.197-1.1-.75-.734-1.126-1.79-1.126-3.17V9.326c0-1.38.376-2.436 1.127-3.17.75-.734 1.816-1.1 3.196-1.1h6.052c.385 0 .577.183.577.55v12.262c0 .366-.192.55-.577.55h-2.2c-.367 0-.55-.184-.55-.55v-.865h-.106c-.192.472-.532.83-1.021 1.074a3.626 3.626 0 0 1-1.546.34Zm2.672-4.873v-5.32c0-.191-.105-.287-.314-.287h-2.463c-.559 0-.952.122-1.179.367-.227.227-.34.62-.34 1.179v4.506c0 .559.113.96.34 1.205.227.227.62.34 1.179.34h.97c1.205 0 1.807-.663 1.807-1.99Z"/>
  </g>
  <defs>
    <linearGradient id="b" x1="44.725" x2="13.047" y1="22.945" y2="22.945" gradientUnits="userSpaceOnUse">
      <stop offset=".365" stop-color="#fff"/>
      <stop offset=".925" stop-color="#fff" stop-opacity="0"/>
    </linearGradient>
    <clipPath id="a">
      <path fill="#fff" d="M0 0h96.376v32H0z"/>
    </clipPath>
  </defs>
</svg>
