<svg xmlns="http://www.w3.org/2000/svg" fill="none" viewBox="0 0 309 327">
  <g clip-path="url(#a)">
    <path fill="#9333EA" d="m42.441 256.199-3.681-14.512a188.274 188.274 0 0 0-20-7.172l-.464 6.744-1.885-7.43c-8.428-2.406-14.161-3.465-14.161-3.465s7.746 29.443 23.991 51.952l18.928 3.323-14.704 2.12a76.222 76.222 0 0 0 6.578 6.969c23.631 21.927 49.952 31.986 58.788 22.468 8.836-9.518-3.158-35.01-26.79-56.937-7.325-6.798-16.528-12.253-25.74-16.546l-.86 12.486Z"/>
    <path fill="#9333EA" d="m77.445 240.437 4.352-14.326a188.372 188.372 0 0 0-13.412-16.475L64.5 215.17l2.228-7.335c-5.97-6.415-10.331-10.285-10.331-10.285s-8.592 29.208-6.323 56.872l14.485 12.626-13.684-5.784a76.23 76.23 0 0 0 2.028 9.365c8.893 30.983 26.223 53.196 38.709 49.614 12.485-3.582 15.398-31.602 6.505-62.585-2.757-9.605-7.815-19.03-13.48-27.466l-7.192 10.245Z"/>
    <path fill="#3F3D56" d="M154.5 327c85.328 0 154.5-3.536 154.5-7.899 0-4.362-69.172-7.898-154.5-7.898S0 314.739 0 319.101C0 323.464 69.172 327 154.5 327Z"/>
    <path fill="#3F3D56" d="M244.766 75.891h-1.756v-48.07a27.806 27.806 0 0 0-8.15-19.672A27.824 27.824 0 0 0 215.182 0H113.315a27.834 27.834 0 0 0-25.71 17.175 27.815 27.815 0 0 0-2.119 10.646v263.715a27.817 27.817 0 0 0 17.179 25.704 27.837 27.837 0 0 0 10.65 2.118h101.867a27.836 27.836 0 0 0 25.71-17.175 27.807 27.807 0 0 0 2.118-10.647V110.108h1.756V75.891Z"/>
    <path fill="#fff" d="M237.087 28.015v263.327A20.773 20.773 0 0 1 231 306.034a20.785 20.785 0 0 1-14.696 6.086H113.948a20.783 20.783 0 0 1-20.783-20.778V28.015a20.785 20.785 0 0 1 20.783-20.778h12.417a9.874 9.874 0 0 0 4.502 12.438 9.883 9.883 0 0 0 4.641 1.162h58.359a9.882 9.882 0 0 0 8.191-4.367 9.876 9.876 0 0 0 .952-9.232h13.294A20.785 20.785 0 0 1 231 13.324a20.773 20.773 0 0 1 6.087 14.691Z"/>
    <path fill="#E6E6E6" d="M237.087 234.766v56.576A20.771 20.771 0 0 1 231 306.034a20.785 20.785 0 0 1-14.696 6.086H113.948a20.783 20.783 0 0 1-20.783-20.778v-51.06a97.874 97.874 0 0 1 70.75-34.322 97.884 97.884 0 0 1 73.172 28.806Z"/>
    <path fill="#E6E6E6" d="M141.409 224.306h-4.137l1.379-80.786h1.379l1.379 80.786Z"/>
    <path fill="#E6E6E6" d="m144.856 92.658 6.678-10.318a154.884 154.884 0 0 0-6.851-16.033l-4.318 3.487 3.419-5.283c-3.259-6.412-5.822-10.452-5.822-10.452s-13.392 21.099-17.867 43.437l8.569 13.24-9.486-7.66a62.394 62.394 0 0 0-.52 7.847c0 26.456 8.642 47.903 19.304 47.903 10.661 0 19.304-21.447 19.304-47.903 0-8.202-1.856-16.783-4.416-24.72l-7.994 6.455Zm-27.454 137.353h-2.006l.669-39.181h.668l.669 39.181Z"/>
    <path fill="#E6E6E6" d="m119.074 166.163 3.238-5.004a74.88 74.88 0 0 0-3.322-7.776l-2.094 1.691 1.658-2.562c-1.581-3.11-2.824-5.069-2.824-5.069s-6.495 10.232-8.665 21.066l4.156 6.421-4.601-3.715a30.294 30.294 0 0 0-.252 3.806c0 12.831 4.191 23.233 9.362 23.233s9.362-10.402 9.362-23.233c0-3.978-.9-8.139-2.142-11.989l-3.876 3.131Zm50.56 63.848h-2.007l.669-39.181h.669l.669 39.181Z"/>
    <path fill="#E6E6E6" d="m171.305 166.163 3.239-5.004a75.103 75.103 0 0 0-3.323-7.776l-2.094 1.691 1.658-2.562c-1.58-3.11-2.823-5.069-2.823-5.069s-6.495 10.232-8.665 21.066l4.155 6.421-4.6-3.715a30.485 30.485 0 0 0-.253 3.806c0 12.831 4.192 23.233 9.363 23.233 5.17 0 9.362-10.402 9.362-23.233 0-3.978-.9-8.139-2.142-11.989l-3.877 3.131Zm-55.43-66.029c10.181 0 18.435-8.251 18.435-18.43 0-10.178-8.254-18.43-18.435-18.43S97.44 71.526 97.44 81.704c0 10.179 8.254 18.43 18.435 18.43Z"/>
    <path fill="#2F2E41" d="m182.535 102.758 33.648.835 4.529-40.112h-38.177v39.277Z"/>
    <path fill="#FFB8B8" d="m174.151 71.332-9.282-35.578s2.564-17.078 8.767-16.796c6.203.281-1.61 16.696-1.61 16.696l10.509 30.733-8.384 4.945Z"/>
    <path fill="#2F2E41" d="m192.346 160.476 1.453 14.531s-45.784 31.242-45.784 44.32-1.454 54.491-1.454 54.491l16.715.727 1.454-19.617s3.633-21.797 1.453-29.789l23.982-18.164s-7.267 8.719-5.814 23.977c1.454 15.257-2.18 45.046-2.18 45.046l17.442 1.453s2.18-15.984 2.907-17.437c.727-1.453 4.36-27.609.727-34.875l29.796-34.874s10.174-13.078 0-26.156l-5.814-2.906-34.883-.727Z"/>
    <path fill="#2F2E41" d="m147.288 270.912-1.453 9.445-9.448 22.523s-15.988 7.993-4.36 9.446c11.627 1.453 15.988-1.453 18.168-5.086 2.18-3.633 6.541-9.445 6.541-9.445l-.727 15.257h3.634l5.955-20.84a13.147 13.147 0 0 0-2.235-11.746l-.087-.109c-2.907-3.632-1.453-8.718-1.453-8.718l-14.535-.727Zm36.337 0-1.454 9.445-9.447 22.523s-15.988 7.993-4.361 9.446c11.628 1.453 15.988-1.453 18.169-5.086 2.18-3.633 6.54-9.445 6.54-9.445l-.727 15.257h3.634l5.956-20.84a13.134 13.134 0 0 0-2.236-11.746l-.086-.109c-2.907-3.632-1.454-8.718-1.454-8.718l-14.534-.727Z"/>
    <path fill="#FFB8B8" d="M201.066 85.641c8.028 0 14.535-6.506 14.535-14.531s-6.507-14.531-14.535-14.531c-8.027 0-14.534 6.506-14.534 14.53 0 8.026 6.507 14.532 14.534 14.532Z"/>
    <path fill="#FFB8B8" d="m200.34 83.461 6.54 15.258 13.081-10.172s-7.994-10.898-7.994-12.351L200.34 83.46Z"/>
    <path fill="#9333EA" d="m201.793 92.18 3.101 1.905s10.017-5.31 12.542-9.057c0 0 9.066-3.02 12.7 4.246 3.633 7.265-2.18 57.397-2.18 57.397s3.633 5.086 2.906 7.266c-.726 2.18 2.181 5.812 2.181 5.812v4.36s-41.424.726-41.424-2.907v-11.624l-4.361-1.453s-4.36 9.445-5.813 8.718c-1.454-.726-8.721-6.539-8.721-6.539s11.627-38.507 18.168-45.046l7.994-13.805 2.907.727Z"/>
    <path fill="#9333EA" d="M200.34 92.907s-1.454-2.907-3.634-3.633c-2.18-.727-13.081-15.984-13.081-15.984l1.453-7.992-14.534-2.18s.726 7.992 3.633 13.078c2.907 5.086 18.895 31.242 18.895 31.242l7.994-14.531h-.726Z"/>
    <path fill="#FFB8B8" d="m211.604 150.667-8.721 26.156s-18.168 20.344-7.994 20.344 15.262-18.164 15.262-18.164l12.354-26.156-10.901-2.18Z"/>
    <path fill="#2F2E41" d="M183.646 71.322c11.642-4.664 23.118-5.66 34.295 0V61.92a6.12 6.12 0 0 0-3.781-5.657 6.124 6.124 0 0 0-2.344-.467h-23.331a4.838 4.838 0 0 0-4.839 4.838v10.688Z"/>
    <path fill="#9333EA" d="M220.688 91.453s6.631-5.615 10.219.826c3.589 6.44 1.409 34.049.682 37.682-.727 3.633-5.814 26.156-5.814 26.156l-17.441-3.633s-1.454-10.172 2.907-9.445l9.447-51.586Z"/>
    <path fill="#2F2E41" d="M227.922 85.21c-3.281-1.801-4.808-5.844-4.917-9.585-.109-3.74.799-7.442.87-11.184a8.653 8.653 0 0 0-.194-2.28 8.762 8.762 0 0 0-1.255-2.597c-4.267-6.536-11.683-11.134-19.495-11.206a8.662 8.662 0 0 0-3.299.606c-.808.324-1.072.284-1.227 1.276a8.255 8.255 0 0 0-5.665.18 19.18 19.18 0 0 0-4.955 2.95 22.37 22.37 0 0 0-2.504 2.168c-4.129 4.276-5.08 10.865-3.884 16.687.389 1.893-1.476 3.72-3.02 4.882-1.544 1.163-3.326 2.23-4.084 4.007-.73 1.71-.329 3.665-.476 5.518a9.438 9.438 0 0 1-6.022 7.93 2.906 2.906 0 0 0 2.803.984 6.902 6.902 0 0 0 2.921-1.39 17.373 17.373 0 0 0 6.477-9.607c.453 2.061.277 4.188.26 6.299a17.583 17.583 0 0 1-1.276 6.88 10.08 10.08 0 0 1-4.639 5.108c2.025.991 4.256.272 5.972-1.19 1.716-1.462 2.729-3.585 3.437-5.725a28.514 28.514 0 0 0 1.376-10.83 15.463 15.463 0 0 1 1.941 10.542 16.12 16.12 0 0 1-5.469 9.489 31.406 31.406 0 0 0 14.376-3.619 8.147 8.147 0 0 0 2.949-2.27c1.426-1.98 1.089-4.678.689-7.085-.317-1.903 2.062-4.654.7-6.02a2.26 2.26 0 0 0-1.514-.65c-4.149-.4-7.991-2.483-10.205-6.014-1.552-2.474-2.58-5.299-2.58-7.94a14.445 14.445 0 0 1 5.035-10.954 14.454 14.454 0 0 1 17.351-1.12 14.451 14.451 0 0 1 5.874 16.362 29.046 29.046 0 0 0-1.052 4.897 38.54 38.54 0 0 1-1.173 5.697c-1.031 3.587-2.776 7.247-6.007 9.119 1.086.593 2.342.62 3.572.756 4.053.446 8.316.348 11.985-1.432 3.669-1.78 6.585-5.57 6.324-9.639Z"/>
    <path fill="#000" d="m215.238 110.707-3.793 31.214.159-29.761 3.634-1.453Zm12.462 36.861-1.561 9.638 3.633 1.454-2.072-11.092Z" opacity=".2"/>
  </g>
  <defs>
    <clipPath id="a">
      <path fill="#fff" d="M0 0h309v327H0z"/>
    </clipPath>
  </defs>
</svg>
