<svg viewBox="0 0 280 359" fill="none" xmlns="http://www.w3.org/2000/svg">
<g clip-path="url(#clip0_18_1858)">
<path d="M228.79 241.393C228.229 239.947 229.031 239.225 229.352 237.94C229.674 236.655 228.63 232.639 228.63 232.639C228.63 232.639 225.258 218.744 224.215 216.014C223.773 214.858 222.814 214.063 221.854 213.53C221.789 213.175 221.695 212.946 221.565 212.882C220.636 212.416 218.319 211.405 216.775 211.126C216.487 210.63 216.144 210.167 215.755 209.745C216.026 209.225 216.151 208.64 216.118 208.055C216.02 206.539 214.873 205.181 215.022 203.67C215.135 202.524 215.973 201.583 216.296 200.478C216.431 199.981 216.463 199.462 216.39 198.953C216.317 198.444 216.139 197.955 215.869 197.517C216.107 197.77 216.344 198.022 216.582 198.275C216.905 197.791 217.06 197.214 217.024 196.633C216.989 196.052 216.763 195.498 216.383 195.057C215.631 194.226 214.374 193.915 213.79 192.958C213.191 191.974 213.513 190.638 212.946 189.635C211.557 187.179 208.002 188.92 205.873 188.063C204.998 187.711 204.333 187.323 203.348 187.351C202.511 187.399 201.683 187.554 200.885 187.811C199.741 188.143 198.744 188.857 198.063 189.835C198.13 189.759 198.204 189.688 198.283 189.624C198.799 189.22 199.704 189.253 199.977 189.85C200.042 190 200.069 190.164 200.056 190.326C200.011 191.046 199.384 191.583 198.76 191.942C198.136 192.302 197.434 192.603 197.027 193.198C196.355 194.178 196.75 195.494 196.75 196.684C196.745 197.439 196.57 198.184 196.238 198.863C195.907 199.542 195.428 200.138 194.836 200.608L197.101 199.681C196.019 201.575 195.309 203.658 195.009 205.819L198.072 203.287C196.937 205.093 196.248 207.143 196.06 209.268L198.519 206.748C198.631 206.945 198.687 207.169 198.681 207.395L198.424 208.384C198.334 208.581 198.234 208.772 198.124 208.958C197.728 209.638 197.319 210.475 197.689 211.168L197.691 211.168C197.301 212.479 196.714 213.79 195.407 214.428C196.857 214.579 198.37 213.854 199.024 212.7C199.131 212.908 199.26 213.103 199.409 213.283C199.451 213.336 199.492 213.388 199.534 213.441L199.173 213.681L198.205 214.327C198.205 214.327 191.863 215.612 192.264 218.022C192.281 218.121 192.3 218.239 192.323 218.372L190.498 221.475L187.849 230.47C187.849 230.47 186.484 233.362 186.725 234.566C186.966 235.771 186.725 236.253 186.725 238.421C186.725 240.59 185.681 241.473 186.725 243.24C187.768 245.007 190.899 250.147 190.899 250.147L191.587 250.663C191.553 250.973 191.565 251.286 191.622 251.593C192.264 254.805 198.285 285.566 198.285 285.566C198.285 285.566 195.234 309.901 201.416 311.427C202.191 311.618 202.952 311.792 203.692 311.946L204.627 318.093L204.065 325.883C204.065 325.883 199.81 335.521 207.597 336.083C215.384 336.645 211.852 327.73 211.852 327.73C212.263 326.969 212.431 326.1 212.333 325.241C212.254 324.526 211.586 320.805 210.93 317.227C213.885 316.872 213.332 313.735 212.939 312.355C213.109 312.256 213.237 312.097 213.297 311.909C213.386 311.588 213.179 310.328 212.803 308.562C212.497 306.806 211.974 303.964 211.617 302.038L213.538 302.351L221.646 254.805C221.646 254.805 221.699 254.048 221.675 252.941C222.783 252.368 223.927 251.864 225.098 251.432C227.747 250.388 228.79 246.533 229.673 244.927C230.557 243.321 229.352 242.839 228.79 241.393ZM200.002 211.12C200.265 210.94 200.572 210.835 200.891 210.819C200.822 211.193 200.18 211.302 199.641 211.497C199.74 211.353 199.862 211.225 200.002 211.12ZM195.957 235.048C196.607 236.117 195.43 239.014 194.368 241.313C193.76 240.789 193.126 240.954 193.87 239.465C194.377 238.522 194.678 237.482 194.753 236.414C194.753 236.23 194.847 234.881 195.638 234.32C195.721 234.572 195.828 234.816 195.957 235.048ZM193.52 244.275C193.888 244.125 194.446 243.895 195.199 243.638C194.838 244.112 194.426 244.676 194.012 245.292C193.856 245.173 193.73 245.019 193.644 244.842C193.559 244.666 193.516 244.471 193.52 244.275ZM219.558 245.328C219.07 244.81 218.676 244.346 218.351 243.93C218.957 244.09 219.573 244.261 220.201 244.445C220.513 244.492 220.832 244.47 221.136 244.383C221.164 244.938 221.164 245.73 221.164 245.73L220.285 246.339C220.084 245.974 219.84 245.635 219.558 245.328ZM222.05 242.543C222.04 242.551 222.03 242.561 222.021 242.569C221.977 242.252 221.906 241.939 221.806 241.634C221.28 239.974 220.999 237.029 220.849 234.515L222.368 239.626C222.368 239.626 222.449 242.196 222.05 242.543Z" fill="#D0CDE1"/>
<path d="M190.866 221.433C190.866 221.433 182.63 207.271 182.373 205.726C182.116 204.181 177.998 201.349 177.998 201.349C176.591 199.941 174.282 199.496 171.853 199.519C172.768 198.762 169.501 198.253 169.247 197.744C168.99 197.229 168.217 197.229 167.188 196.457C166.158 195.684 163.589 196.328 163.589 196.328C163.202 195.515 162.933 194.651 162.79 193.762C163.887 192.463 164.488 190.818 164.485 189.118C164.485 189.1 164.484 189.081 164.484 189.063C164.55 189.165 164.615 189.268 164.681 189.373C165.163 186.484 166.014 184.082 164.392 181.447C163.242 179.579 161.442 178.202 159.339 177.582L157.794 178.819L158.394 177.376C157.889 177.299 157.378 177.27 156.867 177.288L155.477 179.076L156.053 177.349C154.846 177.499 153.684 177.898 152.64 178.519C151.595 179.141 150.691 179.972 149.983 180.961C148.214 183.513 148.332 187.061 150.072 189.633C150.078 189.615 150.083 189.597 150.089 189.579C150.166 190.783 150.543 191.948 151.186 192.967C151.829 193.987 152.718 194.829 153.771 195.416L154.208 198.914C153.815 199.279 153.31 199.502 152.775 199.546C152.003 199.546 151.231 201.606 151.231 201.606C151.231 201.606 150.793 201.827 150.321 202.87C149.106 203.698 145.4 206.297 144.025 208.114C143.212 208.514 142.338 209.405 142.48 211.391C142.737 214.996 142.48 231.733 142.48 231.733C142.48 231.733 140.164 245.895 140.936 246.925C141.708 247.955 140.678 251.302 140.678 251.302L141.45 251.474V252.332C141.45 252.332 139.128 263.102 142.737 262.631C148.657 261.859 144.282 253.104 144.282 253.104V252.103L145.311 252.332C145.311 252.332 145.826 248.727 146.855 248.47C147.213 248.38 147.634 247.417 148.03 246.201C148.261 248.099 148.4 249.242 148.4 249.242L150.01 248.884L150.459 250.529C150.569 250.591 150.685 250.644 150.804 250.686L150.459 252.589C150.459 252.589 150.201 254.649 150.459 255.937C150.588 256.586 155.366 270.464 160.07 284.063L159.981 287.35C159.981 287.35 157.665 289.925 158.18 291.728C158.695 293.53 156.893 308.465 156.893 308.465L155.349 315.932L155.737 316.051L155.381 317.36C155.073 317.515 154.8 317.73 154.577 317.992C152.518 320.309 149.944 327.004 149.944 327.004C149.944 327.004 145.311 333.956 152.518 333.699C159.724 333.441 160.239 330.866 160.239 330.866C160.239 330.866 161.268 324.171 161.268 323.914C161.268 323.657 160.754 321.01 160.754 321.01L160.554 320.789L160.693 317.577L162.04 317.992C162.04 317.992 163.327 311.297 164.357 310.525C164.717 310.255 165.674 307.247 166.767 303.384C167.884 306.603 168.966 317.73 169.317 318.74C169.192 318.91 169.083 319.09 168.99 319.279C167.833 321.5 166.543 323.65 165.129 325.716C165.129 325.716 156.893 330.609 165.129 331.896C165.129 331.896 169.762 332.154 172.078 330.609C174.394 329.064 180.571 326.746 180.571 326.231C180.571 325.716 179.027 318.146 177.483 318.97L176.448 316.59L177.483 316.189L170.967 286.928C171.121 286.305 171.234 285.671 171.306 285.033C171.306 283.685 174.638 257.429 175.487 250.769C179.219 251.827 182.63 244.092 182.63 244.092L183.476 242.569L184.689 243.32C184.689 243.32 185.719 240.745 187.263 240.487C188.807 240.23 191.638 226.583 191.638 224.78C191.615 223.623 191.352 222.484 190.866 221.433ZM178.875 241.607C178.621 241.205 178.328 240.83 177.998 240.487C178.671 238.734 179.187 236.924 179.542 235.08C180.057 232.248 178.77 222.978 178.77 222.978L178.747 222.348C180.01 224.007 181.601 226.219 181.601 226.84C181.601 227.14 181.671 227.436 181.805 227.704C181.939 227.972 182.133 228.205 182.373 228.385L180.829 233.793C180.829 233.793 179.799 236.367 179.542 237.655C179.388 238.418 179.301 239.194 179.284 239.972L179.649 240.198L178.875 241.607Z" fill="#D0CDE1"/>
<path d="M73.0392 226.199L74.4126 225.89L68.7504 209.926L56.5251 205.42C56.5251 205.42 56.4782 205.472 56.3918 205.561C55.349 204.551 54.9064 203.086 54.7215 201.933C55.7047 201.536 56.588 200.926 57.3085 200.148C58.0291 199.37 58.569 198.442 58.8898 197.431C59.2107 196.42 59.3044 195.351 59.1645 194.299C59.0246 193.248 58.6544 192.24 58.0803 191.348C59.0877 191.106 59.4474 190.192 59.7855 189.102C59.5761 189.04 59.3626 188.993 59.1465 188.962C59.305 188.607 59.4634 188.252 59.6218 187.896C59.3434 187.871 59.065 187.846 58.7865 187.821C58.8577 187.489 58.9289 187.157 59.0001 186.824C58.645 187.07 58.29 187.315 57.9349 187.56C58.0555 187.211 58.0855 186.838 58.022 186.474C57.9586 186.11 57.8038 185.769 57.5722 185.482C57.1007 184.912 56.4857 184.478 55.7907 184.225C54.4314 183.69 52.9511 183.54 51.5122 183.792C50.0733 184.043 48.7316 184.687 47.6343 185.651L47.5574 185.351C45.3845 187.022 43.9627 189.487 43.6037 192.205C43.2628 194.893 44.5531 197.628 46.2301 199.755C46.216 199.662 46.2009 199.569 46.1855 199.477C46.2579 199.577 46.3328 199.675 46.41 199.771L46.6162 207.608L46.0999 208.051C46.0991 208.051 37.4371 211.972 37.0995 216.655L37.0985 216.658C36.5786 218.938 36.3212 230.782 36.3212 230.782H37.0339L36.3212 235.417L31.6885 253.441C31.6885 253.441 25.7689 261.166 30.9164 262.711C34.115 263.671 35.0276 259.958 35.2604 257.009C35.4457 257.74 36 258.234 37.0933 258.334C37.1794 258.342 37.2713 258.348 37.3601 258.355C34.9262 264.648 36.5786 285.113 36.5786 285.113C35.2917 287.688 50.4768 305.454 50.4768 305.454L51.3911 304.966L51.589 305.362C51.0802 305.411 50.7342 305.454 50.7342 305.454V313.437C50.7342 313.437 48.4178 321.419 51.5063 322.964C52.3055 323.363 53.139 323.073 53.9358 322.423C53.7835 324.887 53.5653 328.563 53.5653 329.401C53.5653 330.688 56.9111 333.006 56.9111 333.006C56.9111 333.006 57.6833 335.838 63.8603 335.838C70.0372 335.838 65.4045 328.371 65.4045 328.371L62.0586 320.904C62.0586 320.904 61.8083 321.026 61.0507 320.409L61.322 317.423L62.8308 317.556L64.8898 287.43C64.8898 287.43 66.6914 260.651 66.9488 256.531C67.0091 255.21 66.978 253.887 66.8557 252.57L74.4126 236.962L73.0392 226.199ZM67.4635 236.19L66.6914 238.882V232.928L67.4635 236.19ZM35.3321 255.285C35.3385 254.341 35.2917 253.699 35.2917 253.699L40.3234 243.631L40.1818 246.747C40.1818 246.747 36.1521 251.846 35.3321 255.285ZM47.1309 284.34L52.0211 267.088L54.8522 287.945L54.6492 295.527C54.3044 294.831 54.0276 294.102 53.8227 293.352C53.0505 290.262 47.1309 284.34 47.1309 284.34Z" fill="#D0CDE1"/>
<path d="M116.78 325.321C114.368 324.328 109.687 322.199 109.12 321.064C108.552 319.928 105.715 311.13 105.715 311.13L104.985 311.183C104.891 307.186 104.488 291.694 103.871 289.842C103.871 289.842 106.85 265.29 100.892 255.498L99.8189 251.16C100.171 249.42 100.126 245.393 99.8994 244.713C99.6156 243.861 103.162 241.165 102.169 239.462C101.176 237.759 98.4809 231.94 98.4809 231.94C98.4809 231.94 98.7646 228.25 94.9345 224.844C94.9345 224.844 93.8153 218.505 88.7717 218.41C88.0899 217.22 87.1355 215.327 87.4163 214.484C87.717 213.582 88.8666 210.769 89.5159 209.194C89.8608 209.038 90.192 208.854 90.5062 208.643C94.5174 206.845 97.3451 202.522 97.3451 197.473C97.3451 192.068 94.1058 187.494 89.6419 185.96C89.8407 185.435 89.922 184.874 89.88 184.315C89.8381 183.755 89.6739 183.212 89.3991 182.723C89.1243 182.235 88.7455 181.812 88.2896 181.486C87.8337 181.16 87.3117 180.938 86.7606 180.835C86.2095 180.733 85.6426 180.753 85.1001 180.894C84.5576 181.035 84.0527 181.294 83.6209 181.651C83.1892 182.009 82.8413 182.457 82.6017 182.964C82.3621 183.471 82.2367 184.024 82.2344 184.585C81.9889 184.003 81.8913 183.369 81.9503 182.74C82.0094 182.111 82.2232 181.506 82.5727 180.98C82.9222 180.454 83.3965 180.022 83.9533 179.724C84.5101 179.426 85.132 179.27 85.7636 179.271C86.0122 179.272 86.2602 179.296 86.5041 179.344C85.6631 178.944 84.7051 178.864 83.8097 179.12C82.9142 179.376 82.1428 179.95 81.6399 180.734C81.137 181.518 80.9372 182.459 81.0779 183.38C81.2186 184.301 81.6902 185.139 82.4042 185.737C82.4483 185.877 82.5005 186.015 82.5605 186.149C78.3601 187.844 75.3638 192.275 75.3638 197.473C75.3638 202.295 77.9426 206.455 81.6684 208.386C81.6486 209.954 81.2597 212.599 79.0974 214.21C77.9804 213.7 76.4304 213.139 75.4358 213.394C74.9214 212.992 74.1453 212.86 73.0891 213.917C70.9614 216.045 69.1173 221.58 69.1173 224.986C69.1173 228.392 69.5428 248.119 69.5428 248.119C69.5428 248.119 67.2732 248.97 68.8336 250.247C69.1558 250.516 69.5602 250.666 69.9796 250.673L71.5288 262.168C71.5288 262.168 70.5358 273.238 74.3658 273.38C74.6662 273.396 74.9646 273.323 75.2231 273.169L72.3799 286.01C72.3799 286.01 65.8547 290.268 60.7479 298.641C58.1177 302.954 56.8063 305.607 56.1513 307.169L55.2157 306.588L51.9531 312.833C51.9531 312.833 44.7185 317.232 46.2789 320.496C47.8393 323.76 49.2579 324.612 49.2579 324.612L50.2508 324.186L52.0949 327.592C52.0949 327.592 56.9179 334.546 64.7198 330.998C65.086 330.506 65.2837 329.908 65.2837 329.295C65.2837 328.681 65.086 328.084 64.7198 327.592C63.4432 325.747 60.1805 321.773 60.1805 321.773L62.3083 310.988L61.868 310.715L75.3588 294.383C75.3588 294.383 79.3307 291.971 80.7492 289.842C82.1678 287.713 90.9626 265.716 90.9626 265.716L95.9275 288.707C95.9275 288.707 95.6438 297.08 96.9204 302.473C97.6163 305.498 98.0701 308.573 98.2776 311.671L97.9134 311.697L98.7646 318.083C98.7646 318.083 95.0764 327.166 97.6297 327.876C99.4463 328.345 101.296 328.677 103.162 328.869L103.446 327.876C103.446 327.876 114.368 333.836 118.34 329.437C118.34 329.437 119.191 326.315 116.78 325.321ZM77.9121 255.64C78.3377 256.066 78.1958 258.053 78.1958 258.053L77.3447 263.587L76.4947 267.426C76.3771 265.613 76.1398 263.809 75.7843 262.026L75.3917 251.42C75.4688 251.468 75.5536 251.504 75.6425 251.525C75.9262 251.525 75.7843 249.112 75.7843 249.112C75.7843 249.112 75.9499 248.681 76.1565 248.001C76.708 249.653 77.3812 250.73 78.1958 250.957L78.3377 252.802C78.3377 252.802 76.4936 253.653 78.1958 253.653C78.2946 253.65 78.3926 253.635 78.4882 253.61L78.3377 254.363C78.3377 254.363 77.4866 255.214 77.9121 255.64Z" fill="#D0CDE1"/>
<path d="M114.355 331.932C177.332 331.932 228.385 331.09 228.385 330.052C228.385 329.013 177.332 328.171 114.355 328.171C51.3783 328.171 0.3255 329.013 0.3255 330.052C0.3255 331.09 51.3783 331.932 114.355 331.932Z" fill="#3F3D56"/>
<path d="M154.265 339.767C223.539 339.767 279.697 337.593 279.697 334.91C279.697 332.227 223.539 330.052 154.265 330.052C84.9907 330.052 28.8329 332.227 28.8329 334.91C28.8329 337.593 84.9907 339.767 154.265 339.767Z" fill="#3F3D56"/>
<path d="M131.115 346.976C165.112 346.976 192.672 344.801 192.672 342.118C192.672 339.435 165.112 337.26 131.115 337.26C97.1179 337.26 69.5578 339.435 69.5578 342.118C69.5578 344.801 97.1179 346.976 131.115 346.976Z" fill="#3F3D56"/>
<path d="M220.083 350.423C235.222 350.423 247.494 349.301 247.494 347.916C247.494 346.531 235.222 345.409 220.083 345.409C204.945 345.409 192.672 346.531 192.672 347.916C192.672 349.301 204.945 350.423 220.083 350.423Z" fill="#3F3D56"/>
<path d="M182.491 358.886C189.671 358.886 195.492 357.763 195.492 356.378C195.492 354.994 189.671 353.871 182.491 353.871C175.311 353.871 169.49 354.994 169.49 356.378C169.49 357.763 175.311 358.886 182.491 358.886Z" fill="#3F3D56"/>
<path d="M76.6064 348.229C83.7864 348.229 89.607 347.107 89.607 345.722C89.607 344.337 83.7864 343.215 76.6064 343.215C69.4263 343.215 63.6057 344.337 63.6057 345.722C63.6057 347.107 69.4263 348.229 76.6064 348.229Z" fill="#3F3D56"/>
<path d="M140.826 317.359L142.079 326.134L148.345 325.507L147.718 316.418L140.826 317.359Z" fill="#FFB8B8"/>
<path d="M111.066 317.359L109.813 326.134L103.547 325.507L104.174 316.418L111.066 317.359Z" fill="#FFB8B8"/>
<path d="M101.981 226.47C101.981 226.47 96.3423 233.052 97.5953 243.394C98.8484 253.737 101.041 277.243 101.041 277.243L102.608 318.926L112.632 318.299L114.199 282.884L119.211 254.364L132.681 287.585C132.681 287.585 139.26 318.613 139.573 318.613C139.887 318.613 148.971 317.672 148.971 317.672L144.586 281.003C144.586 281.003 137.694 227.724 133.621 226.784C129.549 225.843 101.981 226.47 101.981 226.47Z" fill="#2F2E41"/>
<path d="M148.971 324.254C148.971 324.254 143.332 320.493 141.14 324.88C138.947 329.268 140.826 332.402 140.826 332.402C140.826 332.402 142.706 333.656 141.766 334.91C140.826 336.163 140.513 344.312 148.658 343.058C156.803 341.805 152.73 333.342 152.73 333.342L148.971 324.254Z" fill="#2F2E41"/>
<path d="M102.921 324.254C102.921 324.254 108.56 320.493 110.753 324.88C112.945 329.268 111.066 332.402 111.066 332.402C111.066 332.402 109.186 333.656 110.126 334.91C111.066 336.163 111.379 344.312 103.234 343.058C95.0892 341.805 99.1617 333.342 99.1617 333.342L102.921 324.254Z" fill="#2F2E41"/>
<path d="M109.656 165.512C109.656 165.512 112.476 173.348 110.283 177.735C108.09 182.123 113.729 187.138 113.729 187.138C113.729 187.138 128.452 179.616 126.573 175.855C124.693 172.094 121.56 167.079 122.187 163.945L109.656 165.512Z" fill="#FFB8B8"/>
<path d="M115.138 168.49C120.675 168.49 125.163 164 125.163 158.461C125.163 152.922 120.675 148.432 115.138 148.432C109.602 148.432 105.114 152.922 105.114 158.461C105.114 164 109.602 168.49 115.138 168.49Z" fill="#FFB8B8"/>
<path d="M107.933 177.265C107.933 177.265 117.992 185.639 125.493 173.773L133.308 178.205L137.38 225.843C137.38 225.843 114.512 239.007 103.547 227.724L105.114 183.533L107.933 177.265Z" fill="#D0CDE1"/>
<path d="M111.092 172.574L96.9688 181.966L101.981 205.158L95.4025 241.2L106.054 225.217L111.092 172.574Z" fill="#575A89"/>
<path d="M123.574 169.96L127.043 172.251L141.14 177.265L138.947 216.128L144.899 241.2L136.441 245.588C136.441 245.588 134.874 233.679 125.163 227.724C115.452 221.769 121.358 171.744 123.574 169.96Z" fill="#575A89"/>
<path d="M100.101 230.858L104.174 233.679C104.174 233.679 99.005 239.163 98.0652 238.223C97.7932 237.962 97.582 237.644 97.4467 237.292C97.3113 236.94 97.2551 236.562 97.282 236.186L96.3422 233.992L100.101 230.858Z" fill="#FFB8B8"/>
<path d="M127.174 230.248L125.789 232.425C125.789 232.425 121.717 234.305 122.657 235.559C123.597 236.813 131.428 239.633 132.995 236.813L134.561 233.992L127.174 230.248Z" fill="#FFB8B8"/>
<path d="M98.8484 181.653L96.6555 181.966L93.0529 205.315C93.0529 205.315 91.6432 209.546 93.2096 219.575C94.7759 229.604 96.327 236.135 96.327 236.135L103.234 231.171L100.101 223.023L104.174 193.249L98.8484 181.653Z" fill="#575A89"/>
<path d="M136.127 176.638L141.14 177.265C141.14 177.265 146.778 183.22 147.718 189.488C148.658 195.756 148.345 213.62 148.345 213.62L133.934 236.499L126.103 230.858L137.067 211.427L131.742 188.234L136.127 176.638Z" fill="#575A89"/>
<path d="M124.698 149.39C123.182 146.927 120.809 145.112 118.036 144.294L115.999 145.925L116.791 144.023C116.125 143.922 115.451 143.883 114.778 143.907L112.946 146.264L113.704 143.988C112.114 144.185 110.582 144.71 109.205 145.53C107.828 146.35 106.635 147.446 105.702 148.749C103.37 152.114 102.976 156.793 105.27 160.184C105.9 158.248 106.664 156.431 107.294 154.495C107.789 154.563 108.291 154.565 108.786 154.502L109.552 152.714L109.766 154.427C112.141 154.22 115.663 153.765 117.915 153.349L117.696 152.035L119.006 153.127C119.695 152.968 120.105 152.824 120.071 152.714C121.745 155.414 123.404 157.139 125.079 159.84C125.714 156.031 126.836 152.864 124.698 149.39Z" fill="#2F2E41"/>
<path d="M124.143 159.503C124.518 159.503 124.821 158.895 124.821 158.145C124.821 157.396 124.518 156.788 124.143 156.788C123.768 156.788 123.464 157.396 123.464 158.145C123.464 158.895 123.768 159.503 124.143 159.503Z" fill="#FFB8B8"/>
<path d="M232.573 335.405C232.861 345.296 227.085 348.92 219.836 349.132C219.667 349.137 219.5 349.14 219.333 349.141C218.996 349.144 218.664 349.138 218.334 349.124C211.778 348.852 206.588 345.37 206.319 336.172C206.042 326.653 217.852 314.285 218.738 313.37L218.739 313.369C218.773 313.334 218.79 313.317 218.79 313.317C218.79 313.317 232.284 325.515 232.573 335.405Z" fill="#DC4936"/>
<path d="M219.314 347.633L223.919 340.782L219.323 348.37L219.333 349.141C218.997 349.144 218.664 349.138 218.334 349.124L218.562 339.215L218.556 339.138L218.565 339.123L218.586 338.187L213.543 330.862L218.58 337.486L218.598 337.684L218.771 330.197L214.415 322.602L218.783 328.882L218.738 313.37L218.738 313.318L218.739 313.369L219.028 325.594L222.998 320.628L219.041 326.648L219.128 333.345L222.781 326.809L219.141 334.329L219.19 338.053L224.502 328.948L219.206 339.352L219.314 347.633Z" fill="#3F3D56"/>
<path d="M64.6607 320.675C64.9495 330.565 59.173 334.19 51.9237 334.402C51.7553 334.407 51.5877 334.41 51.4208 334.411C51.0847 334.413 50.7517 334.408 50.4221 334.394C43.8658 334.122 38.6762 330.64 38.4077 321.442C38.1298 311.923 49.9397 299.554 50.8258 298.64L50.8273 298.639C50.861 298.604 50.8782 298.586 50.8782 298.586C50.8782 298.586 64.372 310.785 64.6607 320.675Z" fill="#E57567"/>
<path d="M51.4018 332.903L56.0068 326.052L51.4113 333.64L51.4209 334.411C51.0847 334.413 50.7518 334.408 50.4221 334.394L50.6505 324.484L50.6442 324.408L50.6527 324.393L50.6745 323.457L45.6315 316.131L50.6686 322.756L50.6865 322.954L50.859 315.466L46.5032 307.872L50.8714 314.151L50.8258 298.64L50.8259 298.588L50.8274 298.639L51.1165 310.864L55.0863 305.898L51.1295 311.917L51.2162 318.614L54.8692 312.078L51.2296 319.599L51.2778 323.323L56.5903 314.218L51.294 324.622L51.4018 332.903Z" fill="#3F3D56"/>
<path d="M190.13 349.349C190.3 355.154 186.909 357.282 182.654 357.406C182.555 357.409 182.457 357.411 182.359 357.411C182.161 357.413 181.966 357.41 181.773 357.402C177.924 357.242 174.878 355.198 174.72 349.799C174.557 344.211 181.489 336.952 182.009 336.415L182.01 336.414C182.03 336.394 182.04 336.383 182.04 336.383C182.04 336.383 189.961 343.543 190.13 349.349Z" fill="#DC4936"/>
<path d="M182.348 356.526L185.051 352.505L182.353 356.959L182.359 357.411C182.161 357.413 181.966 357.41 181.773 357.402L181.907 351.585L181.903 351.54L181.908 351.531L181.921 350.982L178.961 346.682L181.917 350.57L181.928 350.686L182.029 346.292L179.472 341.834L182.036 345.52L182.01 336.415L182.01 336.384L182.01 336.414L182.18 343.59L184.51 340.675L182.188 344.208L182.239 348.139L184.383 344.303L182.247 348.717L182.275 350.903L185.393 345.559L182.284 351.666L182.348 356.526Z" fill="#3F3D56"/>
<g clip-path="url(#clip1_18_1858)">
<path d="M188.834 78.3834C185.184 80.577 178.682 83.3255 172.038 80.5009L167.742 78.6749L176.35 69.005C169.481 61.4152 165.681 51.5325 165.692 41.2861C165.702 31.0396 169.522 21.1647 176.406 13.589C183.29 6.01322 192.744 1.28031 202.922 0.31405C213.101 -0.652208 223.273 2.21754 231.454 8.36315C239.635 14.5088 245.237 23.4891 247.167 33.5514C249.097 43.6137 247.216 54.0356 241.892 62.783C236.567 71.5303 228.182 77.9753 218.371 80.8598C208.561 83.7443 198.03 82.8614 188.834 78.3834ZM172.342 41.263C172.323 45.9864 173.28 50.6626 175.152 54.9976C177.023 59.3325 179.77 63.2324 183.219 66.4519L185.593 68.6879L180.177 74.7727C182.998 74.199 185.455 72.6695 186.701 71.7811L188.411 70.5619L190.249 71.5745C195.332 74.3634 201.033 75.8249 206.828 75.8243C225.843 75.8243 241.313 60.3202 241.313 41.263C241.313 22.2058 225.843 6.7016 206.828 6.7016C187.812 6.7016 172.342 22.2058 172.342 41.263Z" fill="#3F3D56"/>
<path d="M168.999 41.2628C168.999 20.3244 185.935 3.35059 206.828 3.35059C227.72 3.35059 244.657 20.3244 244.657 41.2628C244.657 62.2011 227.72 79.175 206.828 79.175C200.469 79.1843 194.212 77.5798 188.639 74.5112C186.024 76.3759 179.645 80.0951 173.343 77.416L180.929 68.8937C177.158 65.3527 174.153 61.0729 172.101 56.3198C170.049 51.5667 168.993 46.4418 168.999 41.2628Z" fill="#E57567"/>
<path opacity="0.1" d="M238.212 41.3453C238.212 21.5364 223.053 5.27878 203.727 3.58218C204.829 3.48545 205.943 3.43311 207.07 3.43311C227.963 3.43311 244.899 20.407 244.899 41.3453C244.899 62.2836 227.963 79.2575 207.07 79.2575C205.945 79.2575 204.832 79.2045 203.732 79.1079C223.055 77.4088 238.212 61.1524 238.212 41.3453Z" fill="black"/>
<path d="M119.655 131.051C110.203 131.056 101.037 127.804 93.6918 121.841C86.3472 115.878 81.2707 107.566 79.3133 98.2987C77.3558 89.031 78.6363 79.3706 82.9401 70.9364C87.244 62.5023 94.3096 55.807 102.953 51.9726C111.596 48.1382 121.292 47.3977 130.415 49.8752C139.538 52.3527 147.535 57.8976 153.064 65.5808C158.594 73.2639 161.32 82.6183 160.786 92.0762C160.253 101.534 156.492 110.521 150.133 117.53L158.741 127.2L154.445 129.026C147.801 131.851 141.299 129.102 137.649 126.909C132.04 129.634 125.888 131.05 119.655 131.051ZM119.655 55.227C100.64 55.227 85.1699 70.7312 85.1699 89.7884C85.1699 108.846 100.64 124.35 119.655 124.35C125.45 124.35 131.151 122.889 136.234 120.1L138.072 119.087L139.782 120.306C141.028 121.195 143.485 122.724 146.306 123.298L140.89 117.213L143.264 114.977C146.713 111.758 149.46 107.858 151.331 103.523C153.203 99.188 154.16 94.5118 154.141 89.7884C154.141 70.7312 138.671 55.227 119.655 55.227Z" fill="#3F3D56"/>
<path d="M157.484 89.7887C157.484 68.8503 140.548 51.8765 119.655 51.8765C98.763 51.8765 81.8265 68.8503 81.8265 89.7887C81.8265 110.727 98.763 127.701 119.655 127.701C126.014 127.71 132.271 126.106 137.844 123.037C140.459 124.902 146.838 128.621 153.14 125.942L145.554 117.42C149.325 113.879 152.33 109.599 154.382 104.846C156.434 100.093 157.49 94.9676 157.484 89.7887Z" fill="#DC4936"/>
<path opacity="0.1" d="M88.5134 89.5972C88.5134 69.7884 103.673 53.5307 122.999 51.8341C121.897 51.7374 120.782 51.6851 119.655 51.6851C98.763 51.6851 81.8265 68.6589 81.8265 89.5972C81.8265 110.536 98.763 127.509 119.655 127.509C120.781 127.509 121.893 127.456 122.993 127.36C103.67 125.661 88.5134 109.404 88.5134 89.5972Z" fill="black"/>
<path d="M215.708 29.2184C213.233 25.0271 208.337 24.8317 208.337 24.8317C208.337 24.8317 203.565 24.2202 200.504 30.6036C197.651 36.5536 193.713 42.2983 199.87 43.6911L200.982 40.2222L201.671 43.9494C202.547 44.0126 203.427 44.0276 204.305 43.9945C210.898 43.7812 217.178 44.0569 216.975 41.6857C216.707 38.5336 218.09 33.2513 215.708 29.2184Z" fill="#2F2E41"/>
<path d="M199.519 65.9238C199.446 66.3848 199.34 66.84 199.203 67.2859C199.048 67.7224 198.809 68.1261 198.667 68.5671C198.216 69.9727 198.842 71.54 199.841 72.6249C200.708 73.5621 201.827 74.2279 203.062 74.542C203.972 74.7371 204.9 74.8349 205.831 74.8336C208.404 74.921 211.043 74.9992 213.481 74.1705C214.251 73.9023 214.995 73.5635 215.704 73.1586C215.927 73.0518 216.124 72.8963 216.28 72.7035C216.444 72.421 216.516 72.0951 216.488 71.7698C216.483 70.6767 216.262 69.5891 216.314 68.4972C216.343 67.8924 216.456 67.2881 216.401 66.6851C216.324 66.0004 216.038 65.3562 215.581 64.8407C215.125 64.3252 214.521 63.9637 213.852 63.8056C213.16 63.6567 212.443 63.7378 211.738 63.8057C209.911 63.9817 208.075 64.0639 206.239 64.0521C204.363 64.0401 202.498 63.7531 200.632 63.7231C200.08 63.7143 200.091 63.8848 199.915 64.4203C199.753 64.9131 199.621 65.4152 199.519 65.9238Z" fill="#2F2E41"/>
<path d="M204.843 38.9314C204.753 39.4045 204.655 39.8949 204.371 40.2837C204.045 40.731 203.513 40.9866 203.162 41.4147C202.633 42.0591 202.603 42.9658 202.601 43.7999C202.599 44.5683 202.614 45.3879 203.042 46.0257C203.346 46.422 203.724 46.7557 204.154 47.0086C205.758 48.0916 207.49 49.194 209.424 49.2297C210.225 49.2445 211.083 49.0372 211.611 48.4325C211.838 48.1485 212.017 47.8285 212.14 47.4857C212.634 46.2645 212.934 44.973 213.028 43.6585C213.099 43.0405 213.042 42.4145 212.859 41.82C212.624 41.1637 212.149 40.6238 211.835 40.0016C211.464 39.2617 211.329 38.4256 211.447 37.6061C211.462 37.5484 211.457 37.487 211.433 37.4325C211.407 37.4033 211.375 37.3804 211.339 37.3658C211.303 37.3511 211.264 37.3451 211.225 37.348L207.392 37.0714C207.035 37.0537 206.679 37.0129 206.327 36.9494C206.121 36.9073 205.575 36.6132 205.378 36.6914C205.013 36.8362 204.917 38.5391 204.843 38.9314Z" fill="#FFB8B8"/>
<path opacity="0.1" d="M204.843 39.051C204.753 39.5241 204.655 40.0145 204.371 40.4033C204.045 40.8506 203.513 41.1062 203.162 41.5343C202.633 42.1787 202.603 43.0854 202.601 43.9195C202.599 44.6879 202.614 45.5075 203.042 46.1454C203.346 46.5416 203.724 46.8753 204.154 47.1282C205.758 48.2112 207.49 49.3136 209.424 49.3493C210.225 49.3641 211.083 49.1568 211.611 48.5521C211.838 48.2681 212.017 47.9482 212.14 47.6054C212.634 46.3842 212.934 45.0926 213.028 43.7781C213.099 43.1602 213.042 42.5341 212.859 41.9396C212.624 41.2834 212.149 40.7434 211.835 40.1212C211.464 39.3813 211.329 38.5452 211.447 37.7257C211.462 37.668 211.457 37.6066 211.433 37.5521C211.407 37.5229 211.375 37.5001 211.339 37.4854C211.303 37.4708 211.264 37.4647 211.225 37.4676L207.392 37.1911C207.035 37.1733 206.679 37.1325 206.327 37.069C206.121 37.0269 205.575 36.7328 205.378 36.811C205.013 36.9558 204.917 38.6587 204.843 39.051Z" fill="black"/>
<path d="M208.509 39.4465C211.615 39.4465 214.133 36.923 214.133 33.8102C214.133 30.6973 211.615 28.1738 208.509 28.1738C205.403 28.1738 202.885 30.6973 202.885 33.8102C202.885 36.923 205.403 39.4465 208.509 39.4465Z" fill="#FFB8B8"/>
<path d="M205.631 46.434C205.909 46.7565 206.244 47.0247 206.619 47.2251C207.01 47.3871 207.43 47.4672 207.853 47.4606C208.867 47.4892 209.966 47.303 210.671 46.5726C211.58 45.631 211.55 44.1123 212.263 43.0139C212.32 42.9143 212.399 42.8284 212.493 42.7622C212.612 42.697 212.747 42.6658 212.883 42.6722C213.783 42.6638 214.567 43.2487 215.275 43.8062C215.608 44.0359 215.893 44.3276 216.116 44.6655C216.256 44.9391 216.352 45.2331 216.4 45.5367C216.751 47.2543 216.865 49.0106 216.978 50.7603C217.04 51.7267 217.102 52.694 217.098 53.6625C217.083 56.853 216.343 59.9903 215.607 63.0945C215.512 63.4944 215.382 63.9415 215.019 64.1331C214.857 64.206 214.684 64.2485 214.507 64.2585C212.399 64.5066 210.287 64.7549 208.165 64.7877C207.337 64.8005 206.509 64.7804 205.682 64.7274C205.54 64.7255 205.399 64.7009 205.264 64.6543C205.081 64.5664 204.924 64.4327 204.808 64.2662C203.66 62.8168 203.592 60.8129 203.6 58.9625C203.618 54.4384 203.779 49.918 204.084 45.4011C204.109 45.0283 204.114 44.5755 203.846 44.2822C204.368 45.0574 204.966 45.7783 205.631 46.434Z" fill="white"/>
<path d="M204.44 39.9261C204.25 40.2707 202.85 41.1264 202.58 41.412C201.069 43.0077 198.312 42.9478 196.931 44.6569C196.444 45.2582 196.192 46.0138 196.006 46.765C195.744 47.8273 195.603 48.986 196.043 49.9877C196.467 50.9516 197.358 51.618 197.963 52.479C198.628 53.4243 198.926 54.5722 199.213 55.6924C199.424 56.5195 199.637 57.3671 199.555 58.2169C199.461 59.1832 198.995 60.0679 198.719 60.9986C198.444 61.9293 198.396 63.0377 199.033 63.7691C199.501 64.3065 200.235 64.5195 200.937 64.6393C201.835 64.7746 202.741 64.8537 203.649 64.876C204.451 64.9115 205.335 64.9184 205.952 64.4032C206.438 63.9967 206.65 63.337 206.677 62.7028C206.704 62.0687 206.573 61.4401 206.49 60.8107C206.405 60.1583 206.372 59.5002 206.344 58.8427C206.221 55.8928 206.204 52.941 206.294 49.9873C206.339 49.3734 206.309 48.7563 206.204 48.1497C206.033 47.3596 205.606 46.6535 205.251 45.9275C204.54 44.5601 204.218 43.0234 204.321 41.4851C204.428 39.9042 205.116 38.6999 204.44 39.9261Z" fill="white"/>
<path d="M212.338 40.0461C212.627 40.3441 213.61 40.4423 213.978 40.6342C214.324 40.7945 214.686 40.9199 215.056 41.0084C216.399 41.3966 217.676 41.9839 218.845 42.751C219.088 42.8934 219.302 43.0793 219.478 43.2994C219.664 43.6015 219.783 43.9395 219.829 44.2912C220.009 45.1858 220.19 46.0913 220.15 47.003C220.107 47.9709 219.816 48.9082 219.527 49.8328L218.449 53.2877C217.644 55.8665 216.834 58.4707 216.608 61.1632C216.482 62.6554 216.538 64.1574 216.773 65.6362C216.796 65.7081 216.802 65.784 216.793 65.8587C216.783 65.9334 216.758 66.0052 216.719 66.0694C216.648 66.1398 216.555 66.1829 216.455 66.1912C215.935 66.2727 215.431 66.0068 214.959 65.7715C213.518 65.0527 211.98 64.5483 210.394 64.2743C211.014 63.3765 211.492 62.3883 211.812 61.3446C211.994 60.6819 212.137 60.0091 212.24 59.3298L212.742 56.4223C212.946 55.3595 213.09 54.2861 213.172 53.207C213.21 52.8021 213.187 52.3937 213.102 51.9958C212.987 51.6172 212.833 51.2513 212.644 50.9036C211.818 49.1802 211.43 47.2136 211.755 45.3294C211.897 44.5049 212.174 43.6792 212.059 42.8504C211.948 42.0536 212.063 41.4343 211.859 40.6457C211.021 37.4078 211.793 39.4854 212.338 40.0461Z" fill="white"/>
<path d="M196.916 47.3816C196.539 48.1654 195.909 48.8331 195.695 49.6762C195.611 50.0702 195.576 50.4729 195.588 50.8755C195.551 51.4822 195.611 52.091 195.766 52.6788C195.886 53.0506 196.08 53.3934 196.221 53.7579C196.416 54.2671 196.503 54.8117 196.476 55.3566C196.438 56.1116 196.183 56.8445 196.163 57.6001C196.131 58.7885 196.68 59.9056 197.215 60.9665C197.349 60.6322 197.555 60.3315 197.818 60.0853C198.081 59.8391 198.394 59.6534 198.736 59.5412C199.078 59.4291 199.44 59.3931 199.797 59.4359C200.154 59.4786 200.498 59.5991 200.804 59.7888C200.926 59.638 200.985 59.4447 200.966 59.2511C201.005 57.8725 201.043 56.4938 201.08 55.115C201.138 52.9827 201.193 50.8219 200.704 48.746C200.483 47.8087 200.139 46.875 199.509 46.148C199.177 45.7652 198.05 44.757 197.505 45.1858C197.26 45.3786 197.317 45.9036 197.279 46.1694C197.22 46.5896 197.098 46.9984 196.916 47.3816Z" fill="white"/>
<path d="M220.26 45.1228C220.411 45.6879 220.476 46.273 220.452 46.8577C220.459 48.0495 220.444 49.2412 220.405 50.4327C220.411 51.0438 220.333 51.6528 220.173 52.2426C220.052 52.6262 219.864 52.9858 219.738 53.3681C219.361 54.5137 219.567 55.7562 219.599 56.962C219.622 57.3523 219.589 57.7438 219.501 58.1246C219.302 58.8721 218.768 59.4761 218.395 60.1534C218.041 60.7967 217.827 61.5178 217.404 62.1179C216.981 62.7179 216.249 63.1934 215.539 63.0092C215.002 62.8696 214.62 62.3926 214.355 61.903C213.779 60.8265 213.581 59.5864 213.796 58.3835C214.061 56.9201 214.919 55.6218 215.228 54.167C215.653 52.1693 215.007 50.1078 215.026 48.0653C215.018 47.7451 215.061 47.4257 215.155 47.1195C215.317 46.6529 215.665 46.2804 215.987 45.9062C216.39 45.4386 216.763 44.947 217.107 44.4342C217.337 44.0898 217.65 43.2037 218.059 43.1301C218.971 42.9656 220.033 44.4164 220.26 45.1228Z" fill="white"/>
<path d="M192.182 65.0355C191.678 64.9084 191.158 64.853 190.638 64.871C190.092 64.9012 189.559 65.0477 189.073 65.3006C188.588 65.5535 188.162 65.9071 187.823 66.3378C187.485 66.7685 187.242 67.2665 187.11 67.7987C186.979 68.3308 186.962 68.885 187.06 69.4242C187.186 70.0084 187.392 70.5723 187.672 71.0999C188.082 71.9328 188.573 72.7638 189.331 73.2975C189.788 73.591 190.28 73.8256 190.795 73.9959L194.788 75.5034C195.375 75.7252 195.963 75.947 196.556 76.1526C199.536 77.185 202.643 77.804 205.791 77.9925C206.748 78.0825 207.714 78.0334 208.658 77.8469C208.886 77.8171 209.095 77.7039 209.245 77.529C209.321 77.3961 209.366 77.2475 209.376 77.0947L209.622 75.3708C209.677 75.1308 209.67 74.8806 209.601 74.6441C209.489 74.3544 209.207 74.1722 208.938 74.0173C206.313 72.5063 203.248 71.6727 201.038 69.5989C200.518 69.1107 200.083 68.3368 199.451 68.0052C198.734 67.6291 197.89 67.4145 197.149 67.068C195.53 66.3104 193.938 65.4398 192.182 65.0355Z" fill="#2F2E41"/>
<path opacity="0.1" d="M196.169 67.3595C197.58 67.8027 203.539 70.8732 204.56 71.9453C204.423 71.9947 199.778 69.386 199.639 69.3441C198.361 68.9924 197.11 68.5506 195.895 68.0218C195.653 67.9096 194.323 67.3823 194.383 67.0763C194.451 66.7309 195.918 67.2808 196.169 67.3595Z" fill="black"/>
<path d="M213.776 78.8865C213.856 78.8923 213.935 78.8689 213.999 78.8205C214.027 78.7843 214.048 78.7428 214.06 78.6985C214.072 78.6542 214.075 78.608 214.069 78.5624L214.063 76.214C213.389 75.8922 212.635 75.7891 211.895 75.69L208.443 75.2275C208.523 75.2382 207.904 76.7176 207.998 76.9151C208.166 77.2632 209.444 77.5718 209.805 77.7361C211.059 78.3075 212.363 78.9357 213.776 78.8865Z" fill="#FFB8B8"/>
<path d="M202.945 76.2058C202.293 76.3098 201.566 76.4018 201.144 76.9103C200.608 77.5551 200.836 78.5163 201.092 79.3151C201.107 79.4182 201.143 79.5172 201.198 79.606C201.252 79.6949 201.324 79.772 201.408 79.8327C201.493 79.8933 201.589 79.9364 201.69 79.9592C201.792 79.9821 201.897 79.9843 201.999 79.9658C202.594 80.0035 203.226 80.033 203.746 79.7408C203.981 79.585 204.207 79.4163 204.424 79.2355C204.807 78.9801 205.228 78.7872 205.671 78.664C206.486 78.4071 207.325 78.2339 208.175 78.1469C208.51 78.1316 208.841 78.0731 209.161 77.9727C209.321 77.9211 209.467 77.8332 209.587 77.716C209.708 77.5988 209.799 77.4554 209.856 77.2968C209.976 76.8701 209.728 76.4349 209.491 76.0606C209.218 75.5704 208.863 75.1306 208.441 74.7602C207.798 74.2595 207.48 74.6439 206.832 74.9643C205.606 75.5709 204.295 75.9894 202.945 76.2058Z" fill="#FFB8B8"/>
<path d="M201.242 76.7941L197.103 75.5682C196.607 75.395 196.088 75.2943 195.563 75.2691C195.3 75.2583 195.038 75.3039 194.794 75.4027C194.55 75.5016 194.33 75.6515 194.149 75.8424C193.828 76.2198 193.736 76.7357 193.656 77.2251L193.485 78.2719C193.371 78.7997 193.339 79.3419 193.389 79.8795C193.417 80.1484 193.505 80.4074 193.648 80.6369C193.79 80.8664 193.983 81.0603 194.211 81.2039C194.784 81.517 195.486 81.3641 196.125 81.2331C197.416 80.9686 198.729 80.8275 200.047 80.8116C200.542 80.8057 201.062 80.8119 201.5 80.5794C201.754 80.4285 201.967 80.2176 202.121 79.9652C202.276 79.7128 202.366 79.4264 202.385 79.131C202.466 78.2367 202.169 77.0687 201.242 76.7941Z" fill="#2F2E41"/>
<path d="M215.402 75.726C215.939 75.6318 216.412 75.3262 216.926 75.1458C217.65 74.8919 218.434 74.8919 219.201 74.8947C219.483 74.8689 219.766 74.9258 220.016 75.0584C220.354 75.2837 220.44 75.7346 220.498 76.1371L220.844 78.5655C220.937 79.0185 220.947 79.4847 220.873 79.9412C220.771 80.3912 220.465 80.8251 220.019 80.9411C219.478 81.0821 218.948 80.7357 218.437 80.5081C217.16 79.9393 215.675 80.0847 214.343 79.6595C214.216 79.6339 214.096 79.5816 213.99 79.5059C213.884 79.4302 213.796 79.3329 213.731 79.2205C213.685 79.0856 213.669 78.9425 213.683 78.8008C213.706 78.0203 213.542 76.9544 213.776 76.2084C213.987 75.5375 214.804 75.726 215.402 75.726Z" fill="#2F2E41"/>
<path d="M224.16 64.0581C224.987 63.8503 225.844 63.7916 226.692 63.8847C227.369 63.9595 228.066 64.1482 228.56 64.6177C229.162 65.1891 229.355 66.0728 229.371 66.9032C229.397 68.5572 228.85 70.1691 227.822 71.4635C227.571 71.7909 227.273 72.0788 226.937 72.3177C226.574 72.5449 226.188 72.7315 225.785 72.874L216.843 76.4087C214.491 77.3386 212.13 78.2712 209.676 78.8842C209.609 78.9167 209.537 78.9354 209.462 78.9392C209.388 78.943 209.313 78.9318 209.243 78.9064C209.173 78.8809 209.109 78.8417 209.054 78.791C209 78.7403 208.956 78.6791 208.925 78.6111C208.141 77.4896 207.484 76.2846 206.965 75.0183C206.941 74.9882 206.924 74.9526 206.916 74.9145C206.908 74.8764 206.909 74.837 206.919 74.7996C206.93 74.7621 206.949 74.7278 206.976 74.6994C207.002 74.671 207.035 74.6494 207.072 74.6365L213.396 70.9946C213.86 70.7522 214.293 70.4536 214.684 70.1057C214.957 69.8402 215.181 69.5279 215.345 69.1836C215.476 68.9091 215.488 68.2615 215.655 68.0587C215.819 67.8601 216.38 67.8442 216.639 67.7661C217.005 67.654 217.362 67.5184 217.71 67.3603C219.125 66.726 220.385 65.8044 221.741 65.0617C222.502 64.6258 223.315 64.2886 224.16 64.0581Z" fill="#2F2E41"/>
<path opacity="0.1" d="M220.575 66.7776C219.488 67.5955 218.081 68.3473 217.004 69.1868C216.637 69.4733 210.51 72.9255 210.423 73.384C211.428 73.5537 217.828 69.0665 218.744 68.6187C219.659 68.171 220.471 67.5396 221.275 66.9128C221.48 66.7531 222.349 66.2729 221.761 66.0945C221.429 65.9939 220.819 66.6141 220.575 66.7776Z" fill="black"/>
<path d="M213.098 40.125H203.56C203.172 40.125 202.801 40.2793 202.527 40.5539C202.253 40.8285 202.099 41.201 202.099 41.5893V42.1256H201.995V43.3248H202.099V44.1643H201.995V44.8838H202.099V53.7323C202.099 54.1207 202.253 54.4931 202.527 54.7677C202.801 55.0424 203.172 55.1966 203.56 55.1966H213.098C213.486 55.1966 213.857 55.0424 214.131 54.7677C214.405 54.4931 214.559 54.1207 214.559 53.7323V41.5893C214.559 41.201 214.405 40.8285 214.131 40.5539C213.857 40.2793 213.486 40.125 213.098 40.125Z" fill="#D0CDE1"/>
<path d="M214.614 28.8141L209.776 26.2744L203.096 27.3134L201.714 33.4317L205.154 33.2989L206.115 31.0512V33.262L207.703 33.2008L208.624 29.6221L209.2 33.4317L214.845 33.3161L214.614 28.8141Z" fill="#2F2E41"/>
<path d="M198.182 63.2657C198.401 63.6386 198.712 63.9486 199.085 64.1661C199.33 64.2781 199.597 64.3326 199.866 64.3254C200.135 64.3182 200.399 64.2494 200.637 64.1244C201.114 63.8684 201.503 63.4767 201.757 62.9987C202.283 62.0682 202.392 60.9548 202.327 59.8875C202.261 58.8203 202.034 57.7693 201.933 56.7048C201.86 55.9309 201.854 55.1524 201.848 54.3751C201.83 54.2117 201.864 54.0467 201.946 53.904C202.086 53.7639 202.268 53.6729 202.464 53.6445C203.525 53.3285 204.23 52.3317 204.735 51.3445C205.072 50.6852 205.365 49.9646 205.3 49.2267C205.235 48.4888 204.706 47.7454 203.97 47.6702C203.364 47.6081 202.804 47.994 202.367 48.4193C201.264 49.499 200.555 50.919 200.354 52.4511C200.258 53.2014 200.286 53.9721 200.082 54.7005C199.647 56.2557 198.287 57.2093 197.609 58.6087C196.862 60.1507 197.274 61.9014 198.182 63.2657Z" fill="#FFB8B8"/>
<path d="M218.2 57.3237C218.045 57.6844 217.82 58.0104 217.538 58.2824C217.255 58.5544 216.921 58.767 216.555 58.9075C216.101 59.0905 215.599 59.1213 215.126 58.9953C214.891 58.93 214.674 58.8113 214.492 58.6485C214.311 58.4856 214.169 58.283 214.078 58.0564C214.006 57.8281 213.966 57.5907 213.96 57.3512C213.892 56.3024 213.918 55.2217 214.299 54.2421C214.445 53.8643 214.643 53.506 214.759 53.1176C214.872 52.669 214.931 52.208 214.932 51.7452L215.057 48.8836C215.077 48.6758 215.063 48.4661 215.014 48.2631C214.89 47.849 214.504 47.58 214.149 47.333C213.294 46.7367 212.448 46.0408 212.034 45.0825C211.891 44.794 211.84 44.4688 211.887 44.1504C212.004 43.5821 212.576 43.2142 213.142 43.0903C213.512 43.0092 213.895 43.004 214.267 43.0751C214.639 43.1461 214.993 43.2919 215.307 43.5037C215.621 43.7155 215.89 43.9888 216.096 44.3073C216.302 44.6258 216.442 44.9828 216.507 45.3568C216.562 45.6798 216.562 46.0096 216.594 46.3358C216.664 47.0275 216.883 47.6944 217.02 48.376C217.358 50.0548 217.183 51.7903 217.517 53.4689C217.796 54.8723 218.849 55.7881 218.2 57.3237Z" fill="#FFB8B8"/>
<path d="M208.457 46.563C209.118 46.563 209.653 46.0261 209.653 45.3638C209.653 44.7015 209.118 44.1646 208.457 44.1646C207.796 44.1646 207.26 44.7015 207.26 45.3638C207.26 46.0261 207.796 46.563 208.457 46.563Z" fill="#E57567"/>
<path d="M78.5301 88.4638C80.4796 88.4638 82.0599 86.8799 82.0599 84.9262C82.0599 82.9725 80.4796 81.3887 78.5301 81.3887C76.5807 81.3887 75.0004 82.9725 75.0004 84.9262C75.0004 86.8799 76.5807 88.4638 78.5301 88.4638Z" fill="#2F2E41"/>
<path d="M91.325 95.4283L89.5471 93.6963L85.977 94.8077L86.3199 98.9505L93.6604 98.6088L91.4054 95.5379L91.325 95.4283Z" fill="#FBBEBE"/>
<path d="M87.4365 95.3926C90.5882 95.3926 93.1432 92.832 93.1432 89.6733C93.1432 86.5147 90.5882 83.9541 87.4365 83.9541C84.2848 83.9541 81.7299 86.5147 81.7299 89.6733C81.7299 92.832 84.2848 95.3926 87.4365 95.3926Z" fill="#FBBEBE"/>
<path d="M122.864 102.769C122.864 102.769 129.875 114.844 131.543 116.656C132.337 117.549 133.182 118.393 134.075 119.185C134.075 119.185 133.29 121.793 132.041 121.7C131.329 121.657 130.631 121.484 129.98 121.191C129.98 121.191 129.423 119.742 128.45 119.107C127.477 118.471 119.532 110.637 119.717 108.133C119.903 105.629 122.864 102.769 122.864 102.769Z" fill="#2F2E41"/>
<path d="M97.8964 120C97.8964 120 105.371 125.814 115.53 120.351L116.406 119.705C116.406 119.705 114.928 123.036 114.791 123.939C114.632 124.986 110.786 131.12 110.158 131.414C109.53 131.708 109.392 131.979 109.392 131.979L112.056 134.917L113.041 134.191C113.041 134.191 116.881 128.738 118.004 127.74C119.128 126.743 124.479 116.456 124.479 116.456C124.479 116.456 126.525 112.58 121.419 112.288C116.312 111.997 113.963 113.391 113.963 113.391L104.9 114.834L97.8964 120Z" fill="#2F2E41"/>
<path d="M134.161 118.614L137.942 121.236C137.942 121.236 142.766 122.75 139.795 123.758C136.823 124.766 128.993 125.131 128.816 123.74C128.638 122.349 129.125 120.16 129.515 120.28C129.906 120.4 132.617 121.105 134.161 118.614Z" fill="#2F2E41"/>
<path d="M113.375 133.29L114.075 137.142C114.075 137.142 116.065 140.956 113.676 139.772C111.287 138.589 106.364 134.094 107.091 133.151C107.818 132.209 109.422 131.187 109.585 131.494C109.748 131.801 110.954 133.857 113.375 133.29Z" fill="#2F2E41"/>
<path d="M106.166 116.099C106.166 116.099 101.085 122.044 97.9997 120.6C94.9147 119.156 82.2936 102.427 83.7347 99.3357C85.1758 96.2439 85.659 96.902 85.659 96.902L92.1757 97.5059L90.3007 94.493C90.3007 94.493 91.1762 93.8473 92.0104 94.7536C92.8447 95.66 96.194 97.9238 97.3608 101.121C98.5275 104.318 101.953 104.159 101.953 104.159L106.166 116.099Z" fill="white"/>
<path d="M126.686 103.838L117.878 113.209L109.987 99.2471L117.488 90.1641L126.686 103.838Z" fill="#3F3D56"/>
<path d="M126.021 103.737L118.066 111.972L110.857 99.2824L117.468 90.9404L126.021 103.737Z" fill="white"/>
<path d="M117.446 112.851L117.878 113.209L117.601 113.751L105.284 117.425L105.168 117.002L105.728 116.421L117.446 112.851Z" fill="#B3B3B3"/>
<path d="M117.987 113.129L105.233 117.125L97.4579 102.402L109.987 99.2476L117.987 113.129Z" fill="#D0CDE1"/>
<path d="M117.027 111.132L116.48 111.535L110.407 100.967L111.034 100.673L117.027 111.132Z" fill="#3F3D56"/>
<path d="M115.771 111.719L110.376 113.332L104.251 102.463L109.589 101.232L115.771 111.719Z" fill="#3F3D56"/>
<path d="M100.572 103.656L101.689 103.339C101.689 103.339 107.918 102.633 108.009 104.595C108.1 106.557 100.853 105.646 100.853 105.646L99.8862 104.33L100.572 103.656Z" fill="#FBBEBE"/>
<path d="M106.036 112.475L107.591 111.836C107.591 111.836 112.284 109.727 110.938 108.353C109.591 106.979 105.439 109.365 105.439 109.365L104.644 110.12L106.036 112.475Z" fill="#FBBEBE"/>
<path d="M104.65 109.44C104.65 109.44 107.182 111.968 106.606 112.562C106.03 113.156 96.5833 120.969 94.2416 118.469C91.8999 115.969 80.491 103.419 84.9304 102.342C89.3698 101.266 90.5428 103.782 90.5428 103.782L96.4033 113.831L104.65 109.44Z" fill="white"/>
<path d="M97.0696 101.758L101.228 103.171L101.16 106.18L96.7621 105.704L97.0696 101.758Z" fill="white"/>
<path opacity="0.2" d="M100.818 110.998L96.3373 113.626L91.2181 105.736L96.1595 112.236L100.818 110.998Z" fill="black"/>
<path d="M84.9317 94.8238C88.6837 94.8238 91.7254 91.7755 91.7254 88.0152C91.7254 84.2549 88.6837 81.2065 84.9317 81.2065C81.1797 81.2065 78.1381 84.2549 78.1381 88.0152C78.1381 91.7755 81.1797 94.8238 84.9317 94.8238Z" fill="#2F2E41"/>
<path d="M121.639 104.433L116.882 97.4587L118.899 94.957L123.842 102.132L121.639 104.433Z" fill="#E57567"/>
<path d="M121.505 107.237L114.263 96.6854L114.621 96.2529L121.829 106.829L121.505 107.237Z" fill="#E6E6E6"/>
<path d="M120.572 108.263L113.33 97.7118L113.687 97.2793L120.895 107.856L120.572 108.263Z" fill="#E6E6E6"/>
<path d="M119.777 109.019L112.535 98.4672L112.892 98.0347L120.1 108.611L119.777 109.019Z" fill="#E6E6E6"/>
<path d="M87.9402 83.4697H90.0418C91.1059 83.4697 92.1264 83.8934 92.8788 84.6474C93.6312 85.4015 94.0539 86.4243 94.0539 87.4907H87.9402V83.4697Z" fill="#2F2E41"/>
<path d="M116.89 80.9107L116.509 80.8823C116.494 81.0809 116.483 81.2806 116.471 81.4798L114.761 81.4224L116.554 84.7913L118.569 81.5502L116.853 81.4926C116.865 81.2986 116.875 81.1042 116.89 80.9107Z" fill="#3F3D56"/>
<path d="M126.92 53.4503L127.224 53.6827C127.679 53.0846 128.155 52.4876 128.638 51.9081L128.345 51.6626C127.858 52.2464 127.379 52.8478 126.92 53.4503Z" fill="#3F3D56"/>
<path d="M129.847 49.9393L130.129 50.1976C130.636 49.6412 131.162 49.0886 131.693 48.555L131.423 48.2847C130.888 48.8221 130.358 49.3788 129.847 49.9393Z" fill="#3F3D56"/>
<path d="M133.069 46.7013L133.328 46.9834C133.882 46.4732 134.455 45.9693 135.029 45.4856L134.783 45.1924C134.205 45.6797 133.628 46.1874 133.069 46.7013Z" fill="#3F3D56"/>
<path d="M124.312 57.2069L124.635 57.4114C125.037 56.7746 125.458 56.1377 125.888 55.5181L125.575 55.2993C125.141 55.9236 124.717 56.5653 124.312 57.2069Z" fill="#3F3D56"/>
<path d="M136.561 43.7604L136.794 44.0641C137.391 43.6047 138.005 43.1533 138.62 42.7225L138.401 42.4087C137.782 42.8428 137.163 43.2975 136.561 43.7604Z" fill="#3F3D56"/>
<path d="M122.045 61.182L122.384 61.357C122.729 60.6861 123.093 60.0138 123.466 59.3591L123.135 59.1689C122.758 59.8286 122.391 60.5059 122.045 61.182Z" fill="#3F3D56"/>
<path d="M118.359 71.9612L117.989 71.8657C117.8 72.6005 117.625 73.3497 117.469 74.0928L117.843 74.1718C117.998 73.4343 118.172 72.6904 118.359 71.9612Z" fill="#3F3D56"/>
<path d="M140.297 41.14L140.502 41.4631C141.135 41.0592 141.786 40.664 142.437 40.2884L142.247 39.9565C141.591 40.335 140.935 40.7331 140.297 41.14Z" fill="#3F3D56"/>
<path d="M117.426 76.4029L117.049 76.3408C116.926 77.0884 116.819 77.8502 116.729 78.6051L117.108 78.6503C117.197 77.9012 117.304 77.1451 117.426 76.4029Z" fill="#3F3D56"/>
<path d="M120.137 65.3448L120.491 65.4889C120.775 64.79 121.078 64.0877 121.392 63.4016L121.045 63.2417C120.728 63.9331 120.423 64.6406 120.137 65.3448Z" fill="#3F3D56"/>
<path d="M118.607 69.6639L118.972 69.7757C119.193 69.0531 119.432 68.3261 119.684 67.6149L119.324 67.4868C119.07 68.2033 118.829 68.9358 118.607 69.6639Z" fill="#3F3D56"/>
<path d="M166.145 33.5072C166.894 33.4812 167.657 33.4708 168.411 33.4779L168.415 33.095C167.655 33.0878 166.886 33.0982 166.132 33.1244L166.145 33.5072Z" fill="#3F3D56"/>
<path d="M144.246 38.8614L144.422 39.2013C145.09 38.8548 145.773 38.5191 146.453 38.2034L146.292 37.856C145.607 38.174 144.919 38.5123 144.246 38.8614Z" fill="#3F3D56"/>
<path d="M175.187 33.9847C175.932 34.0904 176.684 34.2142 177.422 34.3527L177.493 33.9763C176.749 33.8368 175.991 33.712 175.24 33.6055L175.187 33.9847Z" fill="#3F3D56"/>
<path d="M179.64 34.8201C180.372 34.9914 181.11 35.1818 181.835 35.3859L181.938 35.0171C181.208 34.8115 180.464 34.6199 179.727 34.4473L179.64 34.8201Z" fill="#3F3D56"/>
<path d="M184.001 36.0487C184.715 36.2846 185.433 36.5401 186.137 36.808L186.273 36.4501C185.564 36.1801 184.84 35.9227 184.121 35.6851L184.001 36.0487Z" fill="#3F3D56"/>
<path d="M170.676 33.5474C171.429 33.587 172.189 33.6438 172.936 33.7162L172.973 33.3351C172.22 33.2621 171.454 33.2049 170.697 33.165L170.676 33.5474Z" fill="#3F3D56"/>
<path d="M161.583 33.4831L161.629 33.8632C162.374 33.7714 163.132 33.6948 163.883 33.6357L163.853 33.2539C163.097 33.3135 162.333 33.3906 161.583 33.4831Z" fill="#3F3D56"/>
<path d="M152.669 35.3987L152.782 35.7645C153.5 35.5417 154.233 35.3321 154.96 35.1414L154.863 34.771C154.131 34.9629 153.392 35.1741 152.669 35.3987Z" fill="#3F3D56"/>
<path d="M148.379 36.9425L148.524 37.2969C149.219 37.0112 149.929 36.7377 150.634 36.4839L150.504 36.1235C149.794 36.3791 149.079 36.6548 148.379 36.9425Z" fill="#3F3D56"/>
<path d="M157.083 34.2416L157.163 34.6162C157.898 34.4584 158.646 34.3149 159.388 34.1897L159.325 33.812C158.577 33.9382 157.823 34.0828 157.083 34.2416Z" fill="#3F3D56"/>
<path d="M191.838 39.1758L189.703 36.0132L188.952 37.5621C188.77 37.4808 188.589 37.3977 188.408 37.3189L188.256 37.6704C188.433 37.7473 188.609 37.8279 188.785 37.9067L188.038 39.4483L191.838 39.1758Z" fill="#3F3D56"/>
</g>
</g>
<defs>
<clipPath id="clip0_18_1858">
<rect width="280" height="358.885" fill="white"/>
</clipPath>
<clipPath id="clip1_18_1858">
<rect width="173" height="140" fill="white" transform="translate(75)"/>
</clipPath>
</defs>
</svg>
