<svg xmlns="http://www.w3.org/2000/svg" width="486" height="369" fill="none" viewBox="0 0 486 369">
  <g clip-path="url(#a)">
    <g clip-path="url(#b)">
      <path fill="#fff" d="M240.85 369c102.139 0 184.94-5.992 184.94-13.384s-82.801-13.385-184.94-13.385-184.94 5.993-184.94 13.385c0 7.392 82.801 13.384 184.94 13.384Zm239.472-74.828a36.731 36.731 0 0 1-7.332 8.251 42.525 42.525 0 0 1-2.42 1.864c-10.565 7.595-24.71 10.933-38.452 13.095-26.679 4.198-53.916 5.015-81.037 5.815-22.835.682-45.682 1.363-68.526 1.814-32.65.656-65.305.851-97.905 0a1330.448 1330.448 0 0 1-53.418-2.478c-33.012-2.26-66.875-6.253-95.613-20.2a98.625 98.625 0 0 1-15.017-8.897c-7.805-5.692-14.23-12.58-17.667-20.737-5.53-13.112-2.607-27.846 3.708-40.702 3.828-7.774 8.8-15.053 13.959-22.269 3.053-4.283 6.175-8.54 9.144-12.861.31-.426.612-.881.91-1.324.574-.851 1.144-1.703 1.701-2.554a153.923 153.923 0 0 0 6.563-11.069 125.283 125.283 0 0 0 5.465-11.588 101.12 101.12 0 0 0 3.828-11.068 84.152 84.152 0 0 0 1.76-7.616c2.514-13.84 1.187-27.672-6.256-40.192-.072-.123-.149-.255-.225-.379l-.094-.149c-2.1-3.452-4.636-6.705-7.128-9.97-2.977-3.917-5.908-7.859-7.97-12.171-5.427-11.397-4.253-24.21-2.28-36.382 2.633-16.177 7.532-33.631 22.703-43.716C64.48-1.81 86.852-1.277 106.41 2.478c30.393 5.82 58.458 18.024 86.796 29.038 28.339 11.013 58.008 21.085 89.166 22.162 27.513.958 59.602-6.194 77.86-24.798 17.735-18.063 51.075-19.438 75.113-8.514 22.933 10.409 37.763 32.444 36.649 54.445-1.625 32.043-32.477 56.62-50.884 84.657a90.403 90.403 0 0 0-2.394 3.831c-7.23 12.231-11.683 26.275-6.35 39.009 7.154 17.058 28.393 25.381 46.307 36.096 8.651 5.172 16.545 10.907 21.648 18.467.192.273.366.541.54.809 7.201 11.154 6.656 25.398-.54 36.492Z" opacity=".1"/>
      <path fill="#fff" d="M32.353 192.98a153.902 153.902 0 0 0 6.562-11.068 125.307 125.307 0 0 0 5.47-11.58 101.12 101.12 0 0 0 3.828-11.068 84.152 84.152 0 0 0 1.76-7.616c2.514-13.84 1.187-27.672-6.256-40.192-.072-.123-.149-.255-.225-.379l-7.23-10.119h53.652v35.658h14.924v106.96h19.257v-34.695h23.107v34.695h19.245v-59.272h.961v-30.839h18.289v30.839h42.364v46.258h23.592v-14.474h14.46v14.474h23.588V93.712h30.809V72.026h5.295v21.686h8.663V136.6h15.409v-35.658h12.997V64.33h26.956v36.611h13.002v35.658h15.885v26.696c-7.23 12.231-11.683 26.275-6.35 39.008 7.154 17.059 28.393 25.381 46.307 36.097 8.651 5.176 16.545 10.911 21.648 18.471v37.314a36.737 36.737 0 0 1-7.332 8.238 42.525 42.525 0 0 1-2.42 1.864c-10.565 7.595-24.71 10.933-38.452 13.095-26.679 4.198-53.916 5.015-81.037 5.815-22.835.682-45.682 1.363-68.526 1.814h-97.913a1330.362 1330.362 0 0 1-53.418-2.478c-33.013-2.26-66.875-6.253-95.613-20.2a98.625 98.625 0 0 1-15.018-8.897v-83.708c3.054-4.283 6.176-8.54 9.144-12.861l2.616-3.887Z" opacity=".3"/>
      <path fill="#fff" d="M49.956 151.631v7.616h-1.743a93.634 93.634 0 0 0 1.743-7.616Zm25.034 7.616h20.219V147.68h-20.22v11.567Zm-25.034 11.085v11.563H38.898a125.357 125.357 0 0 0 5.487-11.563h5.571Zm25.034 11.563h20.219v-11.567h-20.22v11.567Zm-42.637 11.081h17.603v11.566H29.737v-7.675l2.616-3.891Zm42.637 11.566h20.219v-11.566h-20.22v11.566Zm-25.034 11.086H29.737v11.567h20.22v-11.567ZM74.99 227.19h20.219v-11.566h-20.22v11.566Zm-25.034 11.086H29.737v11.567h20.22v-11.567Zm25.034 11.563h20.219v-11.567h-20.22v11.567Zm-25.034 11.085H29.737v11.567h20.22v-11.567Zm25.034 11.563h20.219V260.92h-20.22v11.567Zm-25.034 11.085H29.737v11.567h20.22v-11.567Zm25.034 11.563h20.219v-11.567h-20.22v11.567Zm84.248-39.996h-47.179v5.781h47.179v-5.781Zm0 8.676h-47.179v5.781h47.179v-5.781Zm0 8.672h-47.179v5.781h47.179v-5.781Zm123.241-14.454H235.3v5.782h47.179v-5.782Zm0 8.672H235.3v5.782h47.179v-5.782Zm0 8.672H235.3v5.781h47.179v-5.781Zm-123.241 5.786h-47.179v5.781h47.179v-5.781Zm0 8.671h-47.179v5.781h47.179v-5.781Zm0 8.676h-47.179v5.781h47.179v-5.781Zm30.324-103.12h-12.997v16.866h12.997V195.39Zm15.409 16.862h12.998v-16.867h-12.998v16.867Zm-15.409 10.12h-12.997v16.866h12.997v-16.866Zm15.409 16.866h12.998v-16.867h-12.998v16.867Zm-15.409 10.119h-12.997v16.867h12.997v-16.867Zm15.409 16.867h12.998v-16.867h-12.998v16.867Zm-15.409 10.12h-12.997v16.866h12.997v-16.866Zm15.409 16.866h12.998v-16.867h-12.998v16.867Zm102.056-188.412h-17.331v22.167h17.331v-22.167Zm0 31.801h-17.331v22.167h17.331v-22.167Zm0 31.805h-17.331v22.167h17.331v-22.167Zm0 31.805h-17.331v22.167h17.331v-22.167Zm0 31.801h-17.331v22.166h17.331V232.01Zm0 31.805h-17.331v22.167h17.331v-22.167ZM408.85 150.094h-64.51v18.791h64.51v-18.791Zm.238 40.477h-64.51v18.791h64.51v-18.791Zm.242 40.476h-64.51v18.791h64.51v-18.791Zm.239 40.477h-64.511v18.791h64.511v-18.791ZM43.7 111.06v.379a17.538 17.538 0 0 0-.225-.379h.225Zm436.622 145.811v6.956h-21.648v-25.415c8.651 5.164 16.544 10.899 21.648 18.459Zm0 19.473v17.828a36.731 36.731 0 0 1-7.332 8.251 42.525 42.525 0 0 1-2.42 1.864h-11.909v-27.943h21.661Z" opacity=".4"/>
      <path fill="#fff" d="M148.014 87.297h-3.313a2.315 2.315 0 0 0 2.318-2.32 2.32 2.32 0 0 0-2.318-2.32h-26.832a2.317 2.317 0 0 0-2.318 2.32 2.32 2.32 0 0 0 2.318 2.32h3.313a2.322 2.322 0 0 0-1.577 3.93 2.32 2.32 0 0 0 1.577.714h-4.636a2.317 2.317 0 0 0-2.318 2.32 2.32 2.32 0 0 0 2.318 2.32h26.828a2.315 2.315 0 0 0 2.318-2.32 2.32 2.32 0 0 0-2.318-2.32h4.64a2.32 2.32 0 0 0 2.223-2.322 2.326 2.326 0 0 0-2.223-2.322Zm118.427 58.306h-3.313a2.32 2.32 0 0 0 0-4.641h-26.833a2.318 2.318 0 0 0-2.318 2.321 2.32 2.32 0 0 0 2.318 2.32h3.305a2.318 2.318 0 0 0-2.223 2.322 2.318 2.318 0 0 0 2.223 2.322h-4.636a2.306 2.306 0 0 0-1.639.68 2.331 2.331 0 0 0-.503.752 2.336 2.336 0 0 0 0 1.776 2.336 2.336 0 0 0 1.255 1.256c.281.116.582.176.887.176h26.837a2.319 2.319 0 0 0 1.639-3.96 2.32 2.32 0 0 0-1.639-.68h4.64a2.328 2.328 0 0 0 1.577-3.93 2.316 2.316 0 0 0-1.577-.714ZM468.15 69.468h-3.313a2.317 2.317 0 0 0 2.318-2.32 2.32 2.32 0 0 0-2.318-2.32h-26.832a2.32 2.32 0 0 0 0 4.64h3.313a2.315 2.315 0 0 0-2.318 2.32 2.32 2.32 0 0 0 2.318 2.32h-4.636a2.324 2.324 0 0 0 0 4.645h26.828a2.322 2.322 0 0 0 1.706-4 2.319 2.319 0 0 0-1.706-.645h4.64a2.317 2.317 0 0 0 2.318-2.32 2.32 2.32 0 0 0-2.318-2.32Z" opacity=".1"/>
      <path fill="#fff" d="m429.643 183.772.025-.038-.102-.068-.208-.141a.154.154 0 0 1 .038.034.852.852 0 0 0-1.118.238l-.128.175-5.954 8.557-1.042 1.503c-3.131-.945-8.217 3.031-10.799 5.308l-.451.405c-.204-.46-.323-.75-.323-.75-.127 1.397-5.065 3.496-6.218 4.258a4.24 4.24 0 0 1-1.701.579c.162-5.326-3.947-10.929-3.947-10.929l-10.041-12.805a11.297 11.297 0 0 1 1.288-7.288h.481c.82-.001 1.638-.074 2.445-.217a13.393 13.393 0 0 0 7.651-4.27c2-2.241 3.189-5.09 3.378-8.089 1.012-.259 1.871-1.2 1.726-2.282a1.706 1.706 0 0 0 0-.621 2.266 2.266 0 0 0-.114-.379c-.285-.728-.898-1.315-1.34-1.98a6.1 6.1 0 0 1-.957-3.256c.039-1.009.196-2.009.468-2.98.202-.58.299-1.191.285-1.805v-.124c.007-.16 0-.321-.022-.481a2.28 2.28 0 0 0-.08-.336 3.195 3.195 0 0 0-1.344-1.643c-1.591-1.039-3.628-1.056-5.414-1.703-2.595-.95-4.938-3.295-7.656-2.729-1.48.306-2.616 1.443-3.896 2.243a9.412 9.412 0 0 1-4.699 1.431c-1.4.042-2.816-.23-4.194 0-.247.044-.491.11-.727.196a10.807 10.807 0 0 0-3.641-.575 6.128 6.128 0 0 0-3.436.949c-1.863 1.299-2.356 3.832-2.331 6.084a.253.253 0 0 0 0 .055v.426c0 1.081.106 2.179.128 3.261a9.928 9.928 0 0 1-.426 2.98c-.85 2.673-3.313 4.717-3.806 7.488a6.321 6.321 0 0 0-.085 1.447c-.034 1.567.468 3.138.931 4.658.961 3.142 1.701 6.479 1.727 9.74a16.075 16.075 0 0 1-1.187 5.905 8.81 8.81 0 0 1-.85 1.562 7.23 7.23 0 0 1-.349.451l-.047.056a5.286 5.286 0 0 1-.336.349l-.093.089c-.11.097-.225.188-.345.273l-.115.085a3.646 3.646 0 0 1-.502.285l.851-.051a4.08 4.08 0 0 1-.851.545l4.517-.264a.837.837 0 0 1 .022.149 2.494 2.494 0 0 1-.064.332c-.031.106-.068.21-.111.311a.294.294 0 0 1 0 .042 2.583 2.583 0 0 1-.349.567l-.038.042a2.462 2.462 0 0 1-.225.243 2.29 2.29 0 0 1-.247.191l-.055.043a2.152 2.152 0 0 1-.57.268l-.077.021a1.87 1.87 0 0 1-.314.06l.425-.047a18.1 18.1 0 0 0 .85-.119h.086a2.279 2.279 0 0 1-1.361.677 12.482 12.482 0 0 0 2.862-.566c.587 3.955 1.892 16.006 1.174 18.233-.77 2.371 1.195 19.757 1.195 19.757s.268 1.333.736 3.321c-1.208 2.856-2.586 6.015-3.28 7.284-1.386 2.554-.706 15.521 4.083 21.285 0 0 1.982 2.797 1.459 3.832-.523 1.034.089 2.801.089 2.801l.758 16.79a43.767 43.767 0 0 1-.353 5.13c-2.038 2.533-5.189 6.224-6.669 6.812-2.293.932-19.39 21.711-19.39 21.711s.136.251.404.66l-.48.557-3.28 3.806-.259.303c-.617-.115-4.712-.852-7.97-1.099l-.319-.021v-.055a12.035 12.035 0 0 0-3.437.089h-.025a1.12 1.12 0 0 0-.566.298c-1.11 1.358-1.701 22.733-1.701 22.733s1.182 10.677 4.857 11.29c.192.067.392.105.595.115h.005c.068.004.136.004.204 0 2.637-.192 3.828-1.703 4.376-2.746.161-.313.283-.645.366-.988 0 0-.425-1.907.727-4.533 1.153-2.627 3.292-7.212 3.292-7.212s3.909-4.117 3.211-6.113l.374-.541c1.472-2.094 4.436-6.232 6.835-8.995l.468-.532a11.88 11.88 0 0 0 2.726.792s3.675-1.439 5.044-4.683c.583-1.371 2.862-3.798 5.291-6.139-.051.4-.077.626-.077.626l-.085 20.434c.79.544 1.632 1.008 2.514 1.383v.511a66.11 66.11 0 0 1-.523 8.715l-.077.451c-.302-.217-.561-.29-.731-.119-.753.762-1.221 5.64-1.276 7.888v.128c-.051.928-.298 2.035-.298 3.023-.025 1.434.425 2.643 2.743 2.745 2.88.12 15.264.311 21.895.426a14.696 14.696 0 0 0 9.782-3.47c1.216-1.042 2.148-2.2 2.178-3.295.059-.851-.396-1.647-1.663-2.345a.52.52 0 0 1-.026.085 7.178 7.178 0 0 0-.54-.264l-6.38-1-10.845-5.539s-.064-3.355-1.365-2.797c-.388.081-.76.225-1.102.426-.063-.128-.131-.256-.195-.392a12.577 12.577 0 0 1-1.34-5.662c0-.179 0-.357.026-.54.32-.288.621-.597.901-.924 0 0-.085-7.633.766-9.077.85-1.443 3.508-16.032 3.508-16.032s.086-2.712 1.795-4.325c1.71-1.614 1.11-6.275 1.11-6.275s2.391-1.277 3.16-5.428c.77-4.151 3.25-13.231 3.25-13.231s5.129-13.402 4.789-21.882c-.341-8.48.51-12.89.51-12.89l1.067-19.707v-.306c.426.328.711.587.711.587v-.213l.246.213s.545-8.94.362-12.486c2.977-1.017 7.545-2.69 7.8-3.542.387-1.277 5.529-5.279 5.529-5.279a.942.942 0 0 1-.311-.119c.162-.072.328-.162.507-.255 3.359-1.805 9.607-7.071 8.557-10.294l6.83-9.834a1.678 1.678 0 0 0-.14-2.086Zm-55.647-9.562a3.947 3.947 0 0 0-.498.039 37.817 37.817 0 0 0-1.276-5.181c-.791-2.665-1.641-5.347-1.769-8.119v-.361a9.77 9.77 0 0 1 .285-2.167c.162.302.345.6.532.881 1.093 1.652 2.369 3.223 3.041 5.083.306.851.484 1.775.952 2.554.468.779 1.332 1.439 2.242 1.299.313-.05.607-.184.85-.388a35.897 35.897 0 0 1-4.359 6.36Z"/>
      <path fill="#fff" d="M413.196 208.131a4.474 4.474 0 0 1-1.611.613c-2.127.06-3.828-5.64-3.828-5.64s.6-.609 1.552-1.46c2.82-2.508 8.74-7.144 11.513-4.551 3.101 2.907-4.002 9.076-7.626 11.038Zm-31.97 135.952-7.762 8.386s-7.183.081-5.775-3.886c.276-.859.475-1.741.595-2.636a64.61 64.61 0 0 0 .506-8.514c0-1.86-.03-3.163-.03-3.163s11.309-4.959 10.153.205c-.15.658-.23 1.33-.239 2.005a12.327 12.327 0 0 0 1.276 5.513c.357.736.784 1.436 1.276 2.09Z"/>
      <path fill="#fff" d="m381.226 344.083-7.762 8.386s-7.183.081-5.775-3.886c.276-.859.475-1.741.595-2.635 1.025.791 2.501 3.133 2.501 3.133s4.95 1.447 6.311-2.891c.766-2.426 1.965-3.627 2.88-4.214a12.6 12.6 0 0 0 1.25 2.107Z" opacity=".1"/>
      <path fill="#fff" d="M399.229 356.714a14.125 14.125 0 0 1-9.454 3.406c-6.401-.094-18.365-.281-21.142-.396-3.717-.162-2.484-3.338-2.365-5.535v-.221c.043-2.188.498-6.939 1.225-7.663.727-.724 3.279 3.304 3.279 3.304s4.951 1.447 6.312-2.891c1.361-4.338 4.142-4.785 4.142-4.785 1.276-.545 1.323 2.725 1.323 2.725l10.483 5.415 6.15.97c.2.09.379.183.549.273 2.76 1.541 1.535 3.635-.502 5.398Z"/>
      <path fill="#fff" d="M379.857 348.378a.455.455 0 1 0 0-.91.455.455 0 0 0 0 .91Zm4.253 2.108a.456.456 0 1 0-.001-.911.456.456 0 0 0 .001.911Zm2.19.983a.455.455 0 1 0 0-.91.455.455 0 0 0 0 .91Zm4.538 1.746a.456.456 0 1 0-.001-.911.456.456 0 0 0 .001.911Zm-2.309-.745a.456.456 0 1 0-.001-.911.456.456 0 0 0 .001.911Z" opacity=".25"/>
      <path fill="#fff" d="M399.229 356.714a14.125 14.125 0 0 1-9.454 3.406c-6.401-.094-18.365-.281-21.142-.396-3.717-.162-2.484-3.338-2.365-5.535l23.332 1.448s9.557-1.452 10.127-4.3c2.764 1.52 1.539 3.614-.498 5.377Z"/>
      <path fill="#fff" d="M399.229 356.62a14.121 14.121 0 0 1-9.454 3.38c-6.401-.093-18.365-.276-21.142-.396-3.717-.161-2.484-3.337-2.365-5.534l23.332 1.443s9.557-1.451 10.127-4.299c2.764 1.549 1.539 3.644-.498 5.406Z" opacity=".25"/>
      <path fill="#fff" d="M355.793 323.01c-.859.7-1.645 1.486-2.343 2.346-2.314 2.695-5.176 6.726-6.597 8.765l-.884 1.277-3.097-.459s-3.343-5.109-3.3-5.245c.042-.136 2.641-5.62 2.641-5.62l1.008-1.179 3.173-3.712 1.433-1.677s10.773 3.478 7.966 5.504Z"/>
      <path fill="#fff" d="m346.853 334.121-.884 1.277-3.097-.459s-3.343-5.109-3.3-5.245c.042-.136 2.641-5.62 2.641-5.62l1.008-1.179.332.06h.782c-2.764 2.89.209 9.255.209 9.255s1.284.128 2.309 1.911Z" opacity=".1"/>
      <path fill="#fff" d="M343.374 340.605s-2.067 4.461-3.181 7.024c-1.114 2.563-.702 4.423-.702 4.423a4.238 4.238 0 0 1-.353.958 4.87 4.87 0 0 1-4.227 2.678 1.113 1.113 0 0 1-.2 0c-3.747-.098-4.947-11.035-4.947-11.035s.575-20.821 1.651-22.137c.146-.151.337-.252.544-.289a11.569 11.569 0 0 1 3.313-.09c3.403.243 7.783 1.082 7.783 1.082h.783c-2.765 2.89.204 9.255.204 9.255s1.323.123 2.356 1.984c1.034 1.86-3.024 6.147-3.024 6.147Z"/>
      <path fill="#fff" d="M338.844 334.866a.456.456 0 1 0 0-.911.456.456 0 0 0 0 .911Zm-.225 3.606a.455.455 0 1 0 0-.91.455.455 0 0 0 0 .91Z" opacity=".25"/>
      <path fill="#fff" d="M338.845 352.934c-.511 1.008-1.702 2.486-4.228 2.677h-.174c-3.764-.098-4.964-11.034-4.964-11.034s.579-20.822 1.651-22.137a1.02 1.02 0 0 1 .544-.29 11.561 11.561 0 0 1 3.317-.089c-.063 3.738-.238 15.572 0 16.747.239 1.175 2.357 10.975 3.854 14.126Z"/>
      <path fill="#fff" d="M339.121 353.01a4.868 4.868 0 0 1-4.227 2.678 1.113 1.113 0 0 1-.2 0c-3.764-.098-4.959-11.034-4.959-11.034s.578-20.822 1.65-22.138a1.02 1.02 0 0 1 .544-.289 11.567 11.567 0 0 1 3.318-.089c-.064 3.737-.243 15.572 0 16.747.242 1.175 2.373 10.975 3.874 14.125Z" opacity=".25"/>
      <path fill="#fff" d="M334.443 355.611c-3.764-.098-4.964-11.034-4.964-11.034s.579-20.822 1.651-22.137a1.02 1.02 0 0 1 .544-.29c.791 1.175 1.484 3.776.851 9.502-1.174 10.847.242 11.528.242 11.528s1.74 9.196 1.676 12.431Z"/>
      <path fill="#fff" d="M334.392 355.611c-3.777-.098-4.964-11.043-4.964-11.043s.579-20.821 1.65-22.137c.148-.15.338-.251.545-.289.791 1.175 1.48 3.776.85 9.502-1.173 10.847.243 11.528.243 11.528s1.761 9.204 1.676 12.439Zm78.804-147.48a4.474 4.474 0 0 1-1.611.613c-2.127.06-3.828-5.64-3.828-5.64s.6-.609 1.552-1.46c.659 1.558 2.561 5.717 3.887 6.487Z" opacity=".1"/>
      <path fill="#fff" d="M399.693 206.079s1.735.124 2.849-.621c1.115-.745 5.882-2.789 6.006-4.151 0 0 2.849 6.939 4.457 7.186 0 0-4.951 3.908-5.325 5.147-.374 1.239-10.029 4.257-10.029 4.257l2.042-11.818Z"/>
      <path fill="#fff" d="M399.693 206.079s1.735.124 2.849-.621c1.115-.745 5.882-2.789 6.006-4.151 0 0 2.849 6.939 4.457 7.186 0 0-4.951 3.908-5.325 5.147-.374 1.239-10.029 4.257-10.029 4.257l2.042-11.818Z"/>
      <path fill="#fff" d="M355.793 323.01c-.859.7-1.645 1.486-2.343 2.346-3.73-1.567-6.142-4.76-7.056-6.165l1.433-1.677s10.773 3.47 7.966 5.496Z" opacity=".1"/>
      <path fill="#fff" d="M373.46 287.846s-6.056 8.089-8.268 9.008c-2.211.92-18.713 21.154-18.713 21.154s3.538 6.552 10.079 7.603c0 0 3.552-1.405 4.87-4.542 1.319-3.138 11.717-11.984 11.717-11.984l.315-21.239Z"/>
      <path fill="#fff" d="M373.46 287.846s-6.056 8.089-8.268 9.008c-2.211.92-18.713 21.154-18.713 21.154s3.538 6.552 10.079 7.603c0 0 3.552-1.405 4.87-4.542 1.319-3.138 11.717-11.984 11.717-11.984l.315-21.239Z" opacity=".1"/>
      <path fill="#fff" d="M355.113 314.973c1.837.195 3.691.195 5.529 0 3.266-.311.786 1.673-5.529 0Zm-1.485 2.107s4.334 2.478 6.005 1.239c1.672-1.239-1.611 1.196-6.005-1.239Zm25.28 17.416a9.663 9.663 0 0 0-.234 1.984c-3.347 3.039-7.374 2.103-9.892.992 0-1.861-.03-3.163-.03-3.163s11.313-4.977 10.156.187Z" opacity=".1"/>
      <path fill="#fff" d="m398.97 226.697-.123 2.286-1.034 19.199s-.851 4.296-.498 12.559c.353 8.263-4.606 21.32-4.606 21.32s-2.394 8.846-3.138 12.895c-.745 4.048-3.054 5.287-3.054 5.287s.578 4.546-1.072 6.113c-1.65 1.567-1.731 4.215-1.731 4.215s-2.552 14.214-3.402 15.619c-.851 1.405-.745 8.842-.745 8.842-5.367 6.365-13.209.579-13.209.579l.08-19.915s2.233-18.344 3.883-20.907c1.651-2.562 1.651-9.587 1.651-9.587l-.736-16.36s-.587-1.737-.081-2.729c.506-.991-1.412-3.708-1.412-3.708-4.623-5.619-5.282-18.263-3.943-20.745 1.34-2.481 5.355-12.392 5.355-12.392l5.529-3.227 9.982.298 12.304.358Z"/>
      <path fill="#fff" d="M375.485 324.083s1.305 4.525 2.356 5.019c1.05.494-2.356-5.019-2.356-5.019Zm1.794-15.062s3.403 2.674 4.802 2.665c1.399-.008-4.802-2.665-4.802-2.665Z" opacity=".1"/>
      <path fill="#fff" d="M397.651 197.152v5.454l-3.598-1.55-3.585-1.55-7.8-7.684s-6.171-4.014-9.476-7.663c-1.888-2.086-2.841-4.057-1.174-5.108a10.445 10.445 0 0 0 2.157-1.895 35.545 35.545 0 0 0 4.308-6.36l.153-.276c1.608-2.955 2.667-5.475 2.667-5.475s4.525 1.452 7.438 3.508c.234.162.455.332.668.506 1.625 1.333 2.428 2.874.936 4.415a11.54 11.54 0 0 0-1.068 1.277 9.583 9.583 0 0 0-.659 1.043c-.089.162-.174.324-.255.481a11.127 11.127 0 0 0-.991 6.62l10.279 14.257Z"/>
      <path fill="#fff" d="M390.345 173.478c-.386.4-.743.826-1.068 1.277a9.68 9.68 0 0 0-.659 1.043c-.089.162-.174.324-.255.481a12.964 12.964 0 0 1-9.727-5.261 2.05 2.05 0 0 1-.153-.218l.153-.276c1.608-2.955 2.667-5.475 2.667-5.475s4.525 1.452 7.438 3.508c.234.162.455.332.668.507 1.625 1.332 2.45 2.873.936 4.414Z" opacity=".1"/>
      <path fill="#fff" d="M402.096 162.789a13.007 13.007 0 0 1-3.802 9.208 12.98 12.98 0 0 1-9.2 3.806h-.48a13.008 13.008 0 0 1-11.533-8.025 13.023 13.023 0 0 1 2.486-13.838 12.992 12.992 0 0 1 19.626.663 13.013 13.013 0 0 1 2.903 8.186Z"/>
      <path fill="#fff" d="M390.8 194.964s6.55 3.7 4.87.579l-8.545-12.644 9.701 12.478s6.193 8.514 2.808 14.376c0 0-.498 4.879.08 6.033.579 1.153-.166 13.474-.166 13.474s-2.309-2.129-3.547-1.737c-1.237.391-9.99 1.158-9.99 1.158l4.789-33.717Z" opacity=".1"/>
      <path fill="#fff" d="m398.97 226.697-.123 2.286c-.783-.571-1.876-1.209-2.599-.967-1.238.426-9.99 1.158-9.99 1.158l.404-2.843 12.308.366Z" opacity=".1"/>
      <path fill="#fff" d="M391.047 194.964s6.549 3.7 4.869.579l-8.544-12.644 9.701 12.478s6.192 8.514 2.807 14.376c0 0-.493 4.879.081 6.033.574 1.153-.162 13.474-.162 13.474s-2.313-2.129-3.551-1.737c-1.238.391-9.99 1.158-9.99 1.158l4.789-33.717Z"/>
      <path fill="#fff" d="M394.547 201.303c-.383 3.972-2.016 8.697-2.016 8.697s-1.153 11.737-2.642 15.211c-1.488 3.474-.825 8.263-1.65 17.105-.297 3.18-1.322 5.368-2.705 6.846-2.271 2.426-5.529 2.933-8.08 2.784-.209 0-.426-.026-.609-.047-4.129-.426-8.08-20.328-8.08-20.328s-1.897-16.939-1.157-19.255c.74-2.316-.74-15.534-1.238-18.429-.315-1.831.634-4.828 1.365-6.773.426-1.128.783-1.903.783-1.903s1.403-4.462 3.713-6.773a3.39 3.39 0 0 1 2.45-1.031 6.083 6.083 0 0 1 3.058.958l.106.073s15.026 15.368 16.429 18.923c.383.987.421 2.409.273 3.942Z" opacity=".1"/>
      <path fill="#fff" d="M394.053 201.056c-.382 3.972-2.016 8.697-2.016 8.697s-1.156 11.737-2.641 15.207c-1.484 3.469-.85 8.263-1.65 17.105-.298 3.184-1.323 5.372-2.705 6.85-2.275 2.426-5.529 2.933-8.081 2.784l-.604-.047c-4.129-.426-8.08-20.328-8.08-20.328s-1.897-16.943-1.153-19.255c.744-2.311-.744-15.534-1.238-18.429-.314-1.831.63-4.828 1.366-6.777.425-1.124.778-1.899.778-1.899s1.404-4.461 3.717-6.777a3.402 3.402 0 0 1 2.446-1.026 6.094 6.094 0 0 1 3.062.958l.106.068s15.026 15.372 16.425 18.923c.375 1.013.417 2.413.268 3.946Z"/>
      <path fill="#fff" d="M377.22 261.554s-3.403 3.036-4.585 2.912c-1.182-.123 4.585-2.912 4.585-2.912Zm.906 2.912s-3.59 1.669-4.679 1.916c-1.088.247 3.292-2.346 4.679-1.916Zm13.89-45.619s5.325.059 6.129 1.732c.804 1.673-4.394-2.413-6.129-1.732Zm-.744 2.912s4.087.851 5.325 1.86c1.237 1.009-5.325-1.86-5.325-1.86Zm-6.869-10.103s-.493 16.795-2.322 18.966c-1.829 2.171 2.322-18.966 2.322-18.966Zm-4.585 47.476s-3.402 14.81 3.441 15.751c6.843.941 4.734-16.858 4.734-16.858l-8.175 1.107Z" opacity=".1"/>
      <path fill="#fff" d="M379.572 258.881s-3.403 14.815 3.436 15.751c6.839.937 4.738-16.858 4.738-16.858l-8.174 1.107Z"/>
      <path fill="#fff" d="M385.424 196.701c-.353-8.902-12.797-10.741-15.702-2.32-.021.055-.039.111-.06.17-1.897 5.7-1.072 20.136-1.072 20.136s.247 9.694 1.157 12.917c.91 3.222 3.467 12.477 3.467 13.967 0 1.49 2.373 7.191 3.372 7.603 1 .413 1.506 3.636 1.748 4.215.243.579.991 8.089.991 8.089s9.327-.579 9.493-2.065c.166-1.486-2.063-8.753-2.063-8.753s-1.646-2.98-1.854-5.372c-.209-2.393-1.531-3.47-1.276-5.109.255-1.639-.744-2.482-.744-3.555 0-1.072-.74-3.967-.74-3.967s-1.57-1.239-1.323-2.725c.247-1.486-2.229-4.461-1.569-5.534.659-1.073.825-3.717.825-3.717s.825-11.92 1.403-15.125c.579-3.206 3.964-8.425 3.964-8.425s-.008-.166-.017-.43Z" opacity=".1"/>
      <path fill="#fff" d="M385.054 248.915c-2.276 2.426-5.529 2.933-8.081 2.784-.293-1.128-.727-2.512-1.361-2.776-.999-.425-3.373-6.113-3.373-7.599 0-1.485-2.551-10.745-3.466-13.967-.914-3.223-1.157-12.917-1.157-12.917s-.85-14.435 1.059-20.149c0-.059.034-.114.056-.174 2.904-8.421 15.349-6.577 15.702 2.324v.426s-3.403 5.207-3.96 8.429c-.557 3.223-1.407 15.122-1.407 15.122s-.166 2.647-.826 3.72c-.659 1.073 1.816 4.049 1.57 5.535-.247 1.485 1.318 2.724 1.318 2.724s.745 2.891.745 3.968.99 1.898.744 3.554c-.247 1.656 1.076 2.725 1.276 5.109a13.353 13.353 0 0 0 1.161 3.887Z" opacity=".1"/>
      <path fill="#fff" d="M384.926 196.454c-.353-8.902-12.793-10.745-15.698-2.324 0 .059-.042.115-.059.174-1.897 5.7-1.072 20.136-1.072 20.136s.247 9.694 1.153 12.917c.906 3.222 3.47 12.486 3.47 13.967 0 1.482 2.369 7.186 3.373 7.599 1.003.413 1.505 3.64 1.748 4.215.242.574.986 8.088.986 8.088s9.332-.579 9.493-2.069c.162-1.49-2.062-8.757-2.062-8.757s-1.642-2.98-1.855-5.372c-.212-2.393-1.531-3.47-1.276-5.109.255-1.639-.744-2.482-.744-3.554 0-1.073-.744-3.968-.744-3.968s-1.57-1.239-1.319-2.725c.251-1.485-2.233-4.465-1.569-5.534.663-1.068.825-3.716.825-3.716s.825-11.92 1.404-15.126c.578-3.206 3.963-8.429 3.963-8.429s-.004-.149-.017-.413Z"/>
      <path fill="#fff" d="M369.603 219.34c.246-.246 4.954-5.453 6.439-3.593 1.484 1.861-6.439 3.593-6.439 3.593Zm.433 4.028c.183-.183 4.704-.371 5.819-2.912 1.114-2.542-5.819 2.912-5.819 2.912Zm-5.15-45.679c.112.13.196.282.247.447a1.943 1.943 0 0 0-.247-1.703c-.221-.256-.544-.405-.744-.673 0-.021-.026-.047-.043-.072a1.282 1.282 0 0 0 .043 1.311c.2.264.523.417.744.69Zm6.299-16.08c0-.472.021-.94 0-1.404-.089-1.703-.4-3.406-.472-5.109-.098 2.069.361 4.257.472 6.347v.166Z" opacity=".1"/>
      <path fill="#fff" d="m415 204.589.255.179a1.03 1.03 0 0 1-.264-1.426l11.483-16.671c.076-.11.174-.205.286-.278a1.036 1.036 0 0 1 .769-.14c.131.028.255.082.366.158l-.251-.178a1.645 1.645 0 0 1 .425 2.286L417.3 204.168a1.643 1.643 0 0 1-1.708.682 1.631 1.631 0 0 1-.592-.261Z"/>
      <path fill="#fff" d="m427.678 186.233.273.189-12.632 18.357-.273-.189a.74.74 0 0 1-.19-1.03l11.783-17.123a.742.742 0 0 1 1.039-.204Z"/>
      <path fill="#fff" d="m426.353 188.802-.053-.037a.072.072 0 0 0-.1.019l-.948 1.378a.071.071 0 0 0 .018.1l.053.037a.072.072 0 0 0 .1-.019l.949-1.378a.072.072 0 0 0-.019-.1Z"/>
      <path fill="#fff" d="M403.729 161.197c-.183-.89-.91-1.542-1.412-2.299-1.25-1.886-1.055-4.381-.472-6.569a4.694 4.694 0 0 0 .268-1.865 2.952 2.952 0 0 0-1.378-1.932c-1.536-1.009-3.505-1.022-5.227-1.661-2.505-.928-4.772-3.214-7.383-2.66-1.43.302-2.527 1.409-3.76 2.188a9.065 9.065 0 0 1-4.542 1.392c-1.353.042-2.718-.222-4.049 0a4.164 4.164 0 0 0-.702.191 10.569 10.569 0 0 0-3.517-.562 5.911 5.911 0 0 0-3.318.928c-1.799 1.278-2.279 3.725-2.25 5.926.03 2.201.4 4.47-.276 6.565-.851 2.61-3.198 4.598-3.675 7.297-.323 1.834.281 3.686.821 5.47 1.548 5.109 2.573 10.779.519 15.722-.523 1.251-1.306 2.49-2.552 3.065l4.364-.26a2.373 2.373 0 0 1-1.119 2.392 2.365 2.365 0 0 1-.872.316 10.145 10.145 0 0 0 3.203-.737 3.408 3.408 0 0 0 2.02-2.443c.085-.592-.042-1.209.123-1.78.285-.983 1.276-1.524 2.106-2.154 2.126-1.66 3.139-4.457 3.219-7.161.081-2.703-.633-5.359-1.399-7.956-.766-2.597-1.586-5.207-1.701-7.91-.05-.988.042-1.979.272-2.942.157.294.332.584.515.852 1.054 1.609 2.288 3.137 2.934 4.951.229.86.536 1.696.919 2.499.451.766 1.276 1.4 2.165 1.277s1.535-1.086 1.829-1.988c.293-.903.425-1.886.965-2.657 1.038-1.455 3.113-1.587 4.899-1.532 3.764.119 8.957.69 11.909-2.205.561-.549.851-1.388 1.701-1.184.783.183 1.221 1.46 2.059 1.746 1.369.472 3.104-.805 2.794-2.32Z" opacity=".1"/>
      <path fill="#fff" d="M403.729 160.715c-.183-.889-.91-1.545-1.412-2.299-1.25-1.89-1.055-4.384-.472-6.568a4.696 4.696 0 0 0 .268-1.865 2.96 2.96 0 0 0-1.378-1.933c-1.536-1.009-3.505-1.026-5.227-1.66-2.505-.928-4.772-3.214-7.383-2.661-1.43.303-2.527 1.409-3.76 2.188a9.099 9.099 0 0 1-4.542 1.393c-1.353.042-2.718-.222-4.049 0a4.072 4.072 0 0 0-.702.191 10.518 10.518 0 0 0-3.517-.562 5.952 5.952 0 0 0-3.318.924c-1.799 1.277-2.279 3.729-2.25 5.93.03 2.201.4 4.47-.276 6.565-.851 2.609-3.198 4.597-3.675 7.296-.323 1.835.281 3.687.821 5.471 1.548 5.108 2.573 10.779.519 15.717-.523 1.256-1.306 2.495-2.552 3.07l4.364-.26a2.369 2.369 0 0 1-1.119 2.389 2.362 2.362 0 0 1-.872.314 10.003 10.003 0 0 0 3.203-.732 3.408 3.408 0 0 0 2.02-2.444c.085-.591-.042-1.209.123-1.779.285-.984 1.276-1.524 2.106-2.154 2.126-1.661 3.139-4.457 3.219-7.161.081-2.703-.633-5.364-1.399-7.956-.766-2.593-1.586-5.207-1.701-7.91a10.4 10.4 0 0 1 .272-2.942c.157.294.332.583.515.852 1.054 1.609 2.288 3.137 2.934 4.951.228.858.535 1.693.919 2.494.451.767 1.276 1.405 2.165 1.278.889-.128 1.535-1.082 1.829-1.984.293-.903.425-1.886.965-2.657 1.038-1.456 3.113-1.588 4.899-1.532 3.764.119 8.957.689 11.909-2.206.561-.549.851-1.387 1.701-1.183.783.183 1.221 1.46 2.059 1.745 1.369.473 3.104-.804 2.794-2.32Z"/>
      <path fill="#fff" d="M366 152.955v.851c0 .92.077 1.852.111 2.776.038-1.192-.068-2.414-.111-3.627Zm-1.488 28.952c.115-3.405-.659-6.917-1.655-10.217a19.448 19.448 0 0 1-.85-3.635c-.183 1.703.365 3.405.85 5.083a35.16 35.16 0 0 1 1.655 8.769Zm36.908-27.658c.07-.812.212-1.615.425-2.401a4.679 4.679 0 0 0 .268-1.865 2.067 2.067 0 0 0-.081-.328c-.051.251-.119.498-.187.745a11.348 11.348 0 0 0-.425 3.849Zm-36.219 35.977-2.637.153a4.381 4.381 0 0 1-1.727 1.55l4.117-.243c.247-.444.334-.96.247-1.46Zm38.413-29.885a2.284 2.284 0 0 1-2.683 1.256c-.851-.286-1.276-1.563-2.059-1.746-.851-.204-1.14.639-1.701 1.188-2.948 2.89-8.14 2.32-11.909 2.201-1.786-.056-3.861.076-4.899 1.532-.553.771-.676 1.759-.966 2.661-.289.903-.893 1.839-1.828 1.984-.936.145-1.702-.498-2.165-1.277a14.494 14.494 0 0 1-.919-2.495c-.646-1.813-1.88-3.346-2.935-4.955a10.938 10.938 0 0 1-.514-.852 10.392 10.392 0 0 0-.272 2.946v.209a9.516 9.516 0 0 1 .255-1.703c.157.294.332.583.514.851 1.055 1.61 2.289 3.138 2.935 4.951.228.859.535 1.694.919 2.495.451.766 1.276 1.405 2.165 1.277.888-.127 1.535-1.081 1.828-1.984.294-.902.426-1.885.966-2.656 1.038-1.456 3.113-1.588 4.899-1.533 3.764.12 8.957.69 11.909-2.205.561-.549.85-1.388 1.701-1.183.783.183 1.221 1.46 2.059 1.745 1.373.464 3.108-.813 2.798-2.328a2.888 2.888 0 0 0-.098-.379Zm-32.952 25.474c-.808.63-1.821 1.171-2.105 2.154-.166.575-.039 1.188-.124 1.78a3.416 3.416 0 0 1-2.02 2.448 6.377 6.377 0 0 1-1.255.425 2.38 2.38 0 0 1-1.948 1.75 10.003 10.003 0 0 0 3.203-.732 3.4 3.4 0 0 0 2.02-2.444c.085-.591-.042-1.209.124-1.779.284-.984 1.275-1.524 2.105-2.154 2.126-1.661 3.139-4.457 3.219-7.161v-1.205c-.153 2.623-1.161 5.309-3.219 6.918Z" opacity=".1"/>
      <path fill="#fff" d="M193.726 348.574h.098s-15.617-42.392-19.989-48.152c0 0-4.581-2.678-4.372-7.203l-5.619-26.982s.085-.081.226-.234l.119-.132c.042-.047.089-.098.136-.158a12.677 12.677 0 0 0 1.867-2.882c.03-.068.064-.132.094-.2.208-.472.383-.958.523-1.456.392.137.823.114 1.199-.063v-.405s-.055-1.596-.059-4.091v-2.261c.181-.647.33-1.304.446-1.966l-.23-.107c0-.034 0-.064.022-.098l-.192-.089c.153-5.918.664-13.478 2.127-18.629.051-.183.102-.362.157-.541 1.735-5.624 1.774-12.49 2.22-18.306.351.728.652 1.479.902 2.248.221-.244.476-.455.757-.626l1.744 13.798v16.253s-2.918 20.992 6.243 17.084c9.161-3.908 2.501-18.305 2.501-18.305s0-8.025 1.25-12.142c.821-2.707.29-11.494-.17-17.152.876.158 1.417.281 1.417.281a9.532 9.532 0 0 0 .272-2.524c.187-9.485-11.649-24.777-16.477-30.609a13.792 13.792 0 0 0-5.558-4.828l-9.259-4.431s-4.36-1.086-6.061-4.406c0-.056-.03-.115-.042-.175.191-.085.382-.175.57-.272a10.297 10.297 0 0 0 3.619-2.878c1.973-2.478 2.913-5.581 3.828-8.604 1.059-3.55 2.126-7.182 1.986-10.885-.14-3.704-1.701-7.553-4.895-9.519-2.718-1.678-6.503-1.997-8.188-4.683-.455-.724-.731-1.584-1.339-2.171a.51.51 0 0 0-.426-.524l-4.72-.911a.518.518 0 0 0-.6.4v.064a28.469 28.469 0 0 0-11.981 3.01 27.598 27.598 0 0 0-3.794 2.214c-1.701 1.2-3.402 2.784-3.64 4.844-.124 1.026.127 2.078-.085 3.082-.562 2.691-4.207 4.44-3.675 7.135.357 1.831 2.454 2.618 4.415 2.623a14.482 14.482 0 0 0-.549 3.937 14.672 14.672 0 0 0 3.347 9.256 14.648 14.648 0 0 0 8.438 5.053 41.778 41.778 0 0 1 3.739 6.292c-2.399 2.252-7.422 7.48-4.343 9.238l-6.379 15.64.621 16.131-2.701 2.388.591.732c-3.024 3.483-10.033 11.099-15.153 13.125-.734.292-1.445.64-2.127 1.039a8.718 8.718 0 0 1-3.071 1.187 8.3 8.3 0 0 0-1.407.269l-1.221-2.508a1.839 1.839 0 0 0-2.441-.851l-.749.357-1.782.852-.74.353-.566.268a1.8 1.8 0 0 0-.85 2.414l1.48 3.035c-2.105 1.835-3.135 4.028-.268 6.063a6.312 6.312 0 0 0 3.828 1.192l.901 1.843a1.834 1.834 0 0 0 2.437.851l1.306-.621 2.552-1.205a1.79 1.79 0 0 0 .85-2.409l-.74-1.52a29.982 29.982 0 0 0 4.526-4.291s3.798-2.355 6.035-2.878c1.484-.349 6.694-3.725 9.901-5.862l.914 23.763a5.233 5.233 0 0 1-.706.851l.719-.502v.175a5.53 5.53 0 0 1-.31.327l.31-.221v.285a3.194 3.194 0 0 1-.323.345l.327-.23.094 2.469 1.569-2.554.098 2.554.366-.6c-4.398 7.386-10.127 18.259-13.185 29.204 0 0-4.784 8.229-4.163 16.667l-8.804 41.762.17.064c-2.854 2.031-8.85 5.756-14.741 5.905 0 0-14.159-.426-10.207 2.673 3.95 3.099 39.128 7.616 39.128 7.616l1.352-10.404.315.115s0-.06-.021-.162l.425.162s-.851-5.147 2.288-8.025 10.411-32.103 9.782-36.611c0 0 5.588-13.806 12.585-24.815l8.234 20.907 9.161 15.64s12.185 26.778 11.793 32.746c-2.551 3.091-7.136 7.931-10.543 7.791 0 0-13.95 2.678-4.372 5.147 9.578 2.469 37.682-6.812 37.682-6.812l-2.769-9.038Zm-60.993-95.747.085-.047c-.425.66-.897 1.397-1.399 2.201l1.314-2.154Z"/>
      <path fill="#fff" d="M126.69 255.981c-.345.243-.532.384-.532.384.195-.101.375-.23.532-.384Zm.417.409-.532.388c.195-.103.374-.233.532-.388Zm0-.409c-.345.243-.532.384-.532.384.195-.101.374-.23.532-.384Zm47.638 93.189s-7.307 10.362-12.176 10.158c0 0-13.61 2.639-4.254 5.078 9.357 2.44 36.743-6.705 36.743-6.705l-3.258-10.642-17.055 2.111Z"/>
      <path fill="#fff" d="m142.064 277.246 10.348 26.615 8.932 15.441s12.282 27.327 11.483 32.61l19.564-3.151s-15.222-41.851-19.483-47.539c0 0-4.466-2.644-4.253-7.114l-5.478-26.594s5.329-5.147 2.352-11.596a10.972 10.972 0 0 0-.528-1.001c-4.057-6.905-19.483-3.048-19.483-3.048l-3.454 25.377Z"/>
      <path fill="#fff" d="m142.064 277.246 10.348 26.615 8.932 15.441s12.282 27.327 11.483 32.61l19.564-3.151s-15.222-41.851-19.483-47.539c0 0-4.466-2.644-4.253-7.114l-5.478-26.594s5.329-5.147 2.352-11.596a10.972 10.972 0 0 0-.528-1.001c-4.057-6.905-19.483-3.048-19.483-3.048l-3.454 25.377Z" opacity=".03"/>
      <path fill="#fff" d="M172.92 301.222s-4.465-2.644-4.253-7.114l-5.49-26.594s5.329-5.147 2.352-11.596a10.972 10.972 0 0 0-.528-1.001c-1.969-3.35-6.609-4.168-10.871-4.121 4.088.039 8.387.933 10.263 4.121.193.323.368.657.523 1.001 2.977 6.449-2.348 11.596-2.348 11.596l5.478 26.616c-.2 4.47 4.253 7.113 4.253 7.113 4.253 5.688 19.484 47.54 19.484 47.54l-18.956 3.022v.098l19.564-3.15s-15.209-41.843-19.471-47.531Z" opacity=".1"/>
      <path fill="#fff" d="M106.139 344.7s-8.12 6.905-16.034 7.11c0 0-13.801-.426-9.948 2.643 3.853 3.07 38.163 7.514 38.163 7.514l1.527-11.864-13.708-5.403Z"/>
      <path fill="#fff" d="M135.978 250.226s-13.397 18.893-18.675 37.991c0 0-4.678 8.126-4.057 16.458l-8.527 41.243 15.629 5.887s-.812-5.078 2.233-7.922c3.045-2.844 10.148-31.694 9.54-36.164 0 0 9.744-24.381 19.487-33.93 9.744-9.549 14.588-11.754 16.022-20.008 0 .012-22.924-11.073-31.652-3.555Z" opacity=".1"/>
      <path fill="#fff" d="M135.57 250.226s-13.397 18.893-18.671 37.991c0 0-4.678 8.126-4.061 16.458l-8.506 41.243 15.608 5.887s-.808-5.078 2.233-7.922c3.041-2.844 10.152-31.694 9.54-36.164 0 0 9.743-24.381 19.487-33.93 9.744-9.549 14.592-11.754 16.026-20.008 0 .012-22.929-11.073-31.656-3.555Z"/>
      <path fill="#fff" d="M144.225 247.412c10.063.119 22.592 6.181 22.592 6.181-1.433 8.242-6.281 10.447-16.021 20.009-9.739 9.561-19.487 33.929-19.487 33.929.608 4.47-6.495 33.321-9.54 36.165-2.65 2.477-2.377 6.645-2.263 7.684l.638.238s-.812-5.079 2.233-7.922c3.045-2.844 10.148-31.695 9.54-36.165 0 0 9.744-24.38 19.487-33.929 9.744-9.549 14.593-11.754 16.022-20.009 0 0-13.045-6.309-23.201-6.181Z" opacity=".1"/>
      <path fill="#fff" d="M125.618 220.762s-9.688 12.078-16.23 14.7c-.718.289-1.415.63-2.084 1.022a8.453 8.453 0 0 1-2.977 1.175 7.192 7.192 0 0 0-2.267.596c-3.402 1.566-11.24 5.807-6.064 9.531 6.494 4.683 15.221-6.096 15.221-6.096s3.705-2.324 5.886-2.843c2.182-.52 12.177-7.519 12.177-7.519l-3.662-10.566Z"/>
      <path fill="#fff" d="m127.451 218.327-3.857 3.453 5.682 7.109-1.825-10.562Z"/>
      <path fill="#fff" d="m127.451 218.327-3.857 3.453 5.682 7.109-1.825-10.562Z" opacity=".1"/>
      <path fill="#fff" d="M137.224 177.893s-9.237 7.927-5.367 10.162l-6.239 15.44 2.148 56.48 8.808-14.628-6.018-31.694s-1.702-18.893 3.224-23.363l4.725-9.366-1.281-3.031Z"/>
      <path fill="#fff" d="M138.445 175.062s-9.238 7.927-5.372 10.162l-6.23 15.453 2.148 56.48 8.808-14.628-6.014-31.707s-1.701-18.893 3.219-23.363l4.73-9.366-1.289-3.031Z" opacity=".1"/>
      <path fill="#fff" d="M130.092 169.566s7.511 9.14 7.307 14.423c-.204 5.283 14.209-9.14 14.209-9.14s-5.482-6.705-4.061-13.819c1.42-7.113-17.455 8.536-17.455 8.536Zm42.828 45.918 2.033 16.27v16.05s-2.841 20.723 6.091 16.862c8.931-3.861 2.415-18.097 2.415-18.097s0-7.927 1.221-11.988-.608-21.946-.608-21.946l-11.152 2.849Z"/>
      <path fill="#fff" d="M145.11 177.084s-5.457 5.287-8.319 3.453l-3.896 9.693a44.63 44.63 0 0 0-3.168 18.685l1.377 36.636 6.091-.813 2.033-34.742 3.045-21.128 2.837-11.784Z"/>
      <path fill="#fff" d="M149.678 171.494s-7.205 4.977-9.234 9.247c0 0-.204 4.683-1.829 6.705-1.624 2.022-3.245 12.188-3.653 24.38-.408 12.193-2.233 28.442-2.233 28.442s-3.045 15.85-6.29 17.455c0 0 15.017-11.375 22.324-7.514 7.307 3.861 15.63 13.197 18.067 11.784 0 0-.587-17.808 2.076-27.306.051-.178.102-.357.157-.532 2.841-9.344 1.016-22.137 4.253-27.629 0 0 0-9.932-1.871-17.347a13.416 13.416 0 0 0-7.167-8.753l-9.016-4.359s-4.772-.711-5.584-4.573Z" opacity=".1"/>
      <path fill="#fff" d="M149.677 171.494s-6.804 5.386-8.829 9.651c0 0-.204 4.683-1.825 6.705-1.62 2.022-3.249 12.193-3.653 24.381-.404 12.188-2.233 28.463-2.233 28.463s-3.045 15.845-6.294 17.454c0 0 15.022-11.379 22.328-7.518 7.307 3.861 15.63 13.197 18.063 11.784 0 0-.583-17.803 2.08-27.301.051-.183.102-.358.153-.532 2.845-9.366 1.016-22.137 4.253-27.633 0 0 0-9.932-1.876-17.344a13.384 13.384 0 0 0-2.612-5.172 13.38 13.38 0 0 0-4.55-3.585l-9.029-4.376s-5.163-1.115-5.976-4.977Z" opacity=".1"/>
      <path fill="#fff" d="M149.575 171.392s-6.698 5.079-8.727 9.366c0 0-.204 4.683-1.825 6.705-1.62 2.022-3.249 12.188-3.653 24.381-.404 12.192-2.233 28.425-2.233 28.425s-3.045 15.849-6.294 17.454c0 0 15.022-11.375 22.328-7.514 7.307 3.861 15.63 13.197 18.063 11.784 0 0-.583-17.808 2.08-27.306l.153-.532c2.845-9.344 1.016-22.137 4.253-27.629 0 0 0-9.931-1.876-17.347a13.38 13.38 0 0 0-7.162-8.753l-9.029-4.376s-4.555-1.103-6.078-4.658Z"/>
      <path fill="#fff" d="M168.148 183.278s20.602 23.466 17.761 34.641c0 0-10.556-2.436-13.397.813 0 0-2.233-7.518-8.931-11.784-6.699-4.266-12.87-31.592 4.567-23.67Z" opacity=".1"/>
      <path fill="#fff" d="M168.148 182.874s20.602 23.465 17.761 34.64c0 0-10.556-2.439-13.397.813 0 0-2.233-7.518-8.931-11.784-6.699-4.265-12.87-31.596 4.567-23.669Z"/>
      <path fill="#fff" d="M148.053 165.603c-.319-1.639-.051-1.763.306-3.555 1.421-7.11-17.437 8.514-17.437 8.514s1.05 1.277 2.352 3.159c.961.199 1.94.299 2.921.298 5.159.017 9.315-4.342 11.858-8.416Z" opacity=".1"/>
      <path fill="#fff" d="M135.366 173.014c7.958 0 14.409-6.457 14.409-14.423s-6.451-14.423-14.409-14.423c-7.958 0-14.409 6.457-14.409 14.423s6.451 14.423 14.409 14.423Z"/>
      <path fill="#fff" d="M122.42 154.645c-2.127.285-4.828-.426-5.236-2.529-.515-2.657 3.037-4.389 3.585-7.041.209-.997-.038-2.035.081-3.044.238-2.035 1.88-3.602 3.552-4.781a27.302 27.302 0 0 1 18.177-4.849 4.056 4.056 0 0 1 2.25.711c.702.579.97 1.511 1.446 2.282 1.646 2.661 5.333 2.98 7.983 4.632 3.1 1.937 4.631 5.738 4.772 9.395.14 3.657-.902 7.237-1.935 10.749-.876 2.98-1.795 6.046-3.717 8.489-1.923 2.444-5.104 4.155-8.137 3.406 1.387-1.001.383-3.316-1.118-4.13-1.501-.813-3.36-.953-4.64-2.073-1.28-1.119-1.667-2.959-2.088-4.627-.528-2.129-1.276-4.257-2.824-5.786-2.999-3.005-8.451-1.302-12.151-.804Z" opacity=".1"/>
      <path fill="#fff" d="M122.828 154.44c-2.127.29-4.827-.425-5.24-2.524-.514-2.661 3.037-4.389 3.59-7.046.204-.996-.043-2.03.076-3.043.238-2.035 1.884-3.598 3.556-4.781a27.306 27.306 0 0 1 18.173-4.849 4.06 4.06 0 0 1 2.25.715c.702.575.974 1.507 1.45 2.278 1.642 2.66 5.334 2.98 7.983 4.631 3.096 1.937 4.632 5.743 4.768 9.396.136 3.653-.902 7.237-1.931 10.749-.88 2.98-1.795 6.05-3.721 8.493-1.927 2.444-5.104 4.151-8.132 3.406 1.382-.996.378-3.316-1.119-4.13-1.497-.813-3.36-.949-4.644-2.073-1.285-1.124-1.667-2.958-2.084-4.627-.527-2.108-1.276-4.257-2.824-5.781-3.016-3.015-8.455-1.312-12.151-.814Z"/>
      <path fill="#fff" d="m144.068 139.8 1.306-6.692a.512.512 0 0 0-.077-.374.5.5 0 0 0-.319-.209l-4.602-.899a.487.487 0 0 0-.373.074.496.496 0 0 0-.21.318l-1.305 6.688-4.462 16.518 8.179 1.605 1.863-17.029Z"/>
      <path fill="#fff" d="M121.021 145.402a4.6 4.6 0 0 0 .637-1.494c.205-.996-.042-2.035.077-3.044.045-.359.132-.712.259-1.051a4.867 4.867 0 0 0-.74 2.013c-.119 1.014.128 2.048-.08 3.044-.036.182-.087.36-.153.532Zm33.241 22.091c-1.892 2.409-5.018 4.095-7.995 3.444a1.552 1.552 0 0 1-.617.936c3.02.737 6.209-.97 8.132-3.406a14.868 14.868 0 0 0 1.812-3.026 13.547 13.547 0 0 1-1.332 2.052Zm-7.974 3.278c1.135-1.056.157-3.21-1.276-3.989-1.501-.813-3.36-.954-4.644-2.074-1.285-1.119-1.668-2.958-2.084-4.631-.528-2.108-1.276-4.257-2.824-5.782-3.016-3.018-8.455-1.315-12.151-.817-2.127.285-4.828-.426-5.236-2.529a2.783 2.783 0 0 1 .119-1.485 3.303 3.303 0 0 0-.604 2.452c.426 2.103 3.118 2.814 5.24 2.524 3.696-.498 9.136-2.201 12.151.822 1.531 1.537 2.297 3.674 2.824 5.781.425 1.669.787 3.495 2.084 4.628 1.297 1.132 3.143 1.277 4.644 2.073 1.076.579 1.889 1.941 1.757 3.027Z" opacity=".1"/>
      <path fill="#fff" d="M137.297 166.007a7.106 7.106 0 0 0 7.103-7.109c0-3.927-3.18-7.11-7.103-7.11a7.106 7.106 0 0 0-7.103 7.11 7.106 7.106 0 0 0 7.103 7.109Z" opacity=".1"/>
      <path fill="#fff" d="M137.297 166.211a7.106 7.106 0 0 0 7.103-7.109c0-3.927-3.18-7.11-7.103-7.11a7.106 7.106 0 0 0-7.103 7.11 7.106 7.106 0 0 0 7.103 7.109Z"/>
      <path fill="#fff" d="M137.297 163.759a4.655 4.655 0 0 0 4.653-4.657 4.655 4.655 0 0 0-4.653-4.657 4.655 4.655 0 0 0-4.653 4.657 4.655 4.655 0 0 0 4.653 4.657Z"/>
      <path fill="#fff" d="M137.297 160.524a1.42 1.42 0 0 0 1.42-1.422 1.42 1.42 0 1 0-2.841 0c0 .785.636 1.422 1.421 1.422Z"/>
      <path fill="#fff" d="m144.187 139.206-5.577-1.09-.039.201 5.576 1.09.04-.201Z" opacity=".05"/>
      <path fill="#fff" d="m97.81 235.381-1.36.656a2.701 2.701 0 0 0-1.258 3.604l4.974 10.327a2.696 2.696 0 0 0 3.6 1.259l1.36-.657a2.7 2.7 0 0 0 1.258-3.603l-4.974-10.327a2.696 2.696 0 0 0-3.6-1.259Z"/>
      <path fill="#fff" d="m99.683 234.477-5.107 2.464a.618.618 0 0 0-.287.825l6.78 14.077a.616.616 0 0 0 .823.288l5.107-2.465a.617.617 0 0 0 .288-.824l-6.781-14.077a.616.616 0 0 0-.823-.288Z"/>
      <path fill="#fff" d="m100.336 234.163-5.141 2.481a.699.699 0 0 0-.326.932l6.71 13.932a.698.698 0 0 0 .932.325l5.141-2.481a.698.698 0 0 0 .325-.932l-6.71-13.931a.696.696 0 0 0-.931-.326Z"/>
      <path fill="#fff" d="m100.713 235.334-4.835 2.333 5.554 11.531 4.835-2.333-5.554-11.531Zm4.199 14.669c.303-.146.39-.593.195-.997-.195-.405-.598-.614-.9-.468-.303.146-.39.592-.196.997.195.404.599.614.901.468Z"/>
      <path fill="#fff" d="M141.95 237.242c2.855.032 5.681.589 8.336 1.643 4.253 1.728 8.757 0 8.757 0s-12.827-3.725-17.093-1.643Z" opacity=".1"/>
      <path fill="#fff" d="M288.353 314.015s2.645 3.461-1.221 8.689c-3.866 5.227-7.052 9.638-5.763 12.895 0 0 5.831-9.707 10.577-9.843 4.747-.136 1.629-5.905-3.593-11.741Z"/>
      <path fill="#fff" d="M288.352 314.015c.231.334.413.7.541 1.085 4.631 5.445 7.102 10.528 2.649 10.643-4.147.12-9.123 7.544-10.313 9.417.038.145.085.287.14.426 0 0 5.831-9.706 10.577-9.843 4.747-.136 1.629-5.892-3.594-11.728Z" opacity=".1"/>
      <path fill="#fff" d="M293.269 318.425c0 1.222-.136 2.21-.302 2.21-.166 0-.306-.988-.306-2.21s.17-.643.34-.643.268-.574.268.643Z"/>
      <path fill="#fff" d="M294.957 319.877c-1.067.583-1.998.936-2.079.787-.081-.149.718-.74 1.786-1.324 1.067-.583.651-.157.731 0 .081.158.63-.042-.438.537Zm-20.572-5.862s-2.645 3.461 1.221 8.689c3.866 5.227 7.051 9.638 5.763 12.895 0 0-5.831-9.707-10.578-9.843-4.746-.136-1.628-5.905 3.594-11.741Z"/>
      <path fill="#fff" d="M274.385 314.015c-.231.334-.413.7-.54 1.085-4.631 5.445-7.098 10.528-2.645 10.643 4.146.12 9.118 7.544 10.309 9.417a3.722 3.722 0 0 1-.14.426s-5.831-9.706-10.578-9.843c-4.746-.136-1.628-5.892 3.594-11.728Z" opacity=".1"/>
      <path fill="#fff" d="M269.469 318.425c0 1.222.136 2.21.306 2.21.17 0 .306-.988.306-2.21s-.174-.643-.34-.643c-.166 0-.272-.574-.272.643Z"/>
      <path fill="#fff" d="M267.78 319.877c1.072.583 2.004.936 2.084.787.081-.149-.723-.74-1.79-1.324-1.068-.583-.647-.157-.727 0-.081.158-.634-.042.433.537Zm2.531 15.27s7.396-.23 9.625-1.818c2.228-1.588 11.372-3.482 11.908-.936.536 2.546 11.109 12.669 2.765 12.737-8.345.068-19.398-1.302-21.623-2.661-2.224-1.358-2.675-7.322-2.675-7.322Z"/>
      <path fill="#fff" d="M294.775 344.24c-8.349.069-19.399-1.298-21.623-2.656-1.701-1.03-2.369-4.738-2.594-6.445h-.247s.468 5.96 2.692 7.322c2.225 1.362 13.274 2.729 21.623 2.661 2.407-.022 3.241-.877 3.194-2.15-.332.775-1.255 1.256-3.045 1.268Z" opacity=".2"/>
      <path fill="#fff" d="M256.055 340.579a3.94 3.94 0 0 0 1.276-1.949c.166-.771-.166-1.703-.902-1.98-.85-.319-1.701.255-2.382.851-.68.596-1.441 1.244-2.317 1.12.451-.409.789-.929.979-1.508a3.519 3.519 0 0 0 .109-1.795 1.38 1.38 0 0 0-.302-.673c-.459-.49-1.276-.277-1.841.111-1.748 1.23-2.237 3.605-2.246 5.747-.178-.771-.03-1.575-.034-2.367-.004-.792-.221-1.669-.889-2.095a2.634 2.634 0 0 0-1.352-.319c-.787-.03-1.663.047-2.199.626-.668.715-.493 1.915.085 2.699.578.783 1.463 1.277 2.275 1.826a4.977 4.977 0 0 1 1.625 1.554c.052.087.093.18.123.277h4.93a13.68 13.68 0 0 0 3.062-2.125Z"/>
      <path stroke="#fff" stroke-miterlimit="10" stroke-width="2" d="M222.643 337.816s-4.73-16.062.884-27.884a25.393 25.393 0 0 0 2.038-15.917 43.178 43.178 0 0 0-2.25-7.472"/>
      <path fill="#fff" d="M226.841 279.072c0 1.967-3.564 7.663-3.564 7.663s-3.56-5.709-3.56-7.663a3.57 3.57 0 0 1 3.562-3.444 3.57 3.57 0 0 1 3.562 3.444Zm5.864 10.903c-1.071 1.656-7.157 4.508-7.157 4.508s.11-6.73 1.178-8.382a3.559 3.559 0 0 1 6.472 1.19c.198.925.021 1.89-.493 2.684Zm-.259 18.633c-1.757.89-8.451.277-8.451.277s3.488-5.756 5.244-6.641a3.558 3.558 0 0 1 5.154 2.917c.035.467-.022.936-.169 1.38a3.547 3.547 0 0 1-1.778 2.067Zm-3.364 14.057c-1.582 1.171-8.285 1.703-8.285 1.703s2.467-6.262 4.049-7.433a3.563 3.563 0 0 1 4.991.739 3.57 3.57 0 0 1 .664 2.651 3.57 3.57 0 0 1-1.402 2.345l-.017-.005Zm-11.011-27.799c1.408 1.371 7.983 2.793 7.983 2.793s-1.612-6.535-3.02-7.906a3.566 3.566 0 0 0-2.54-1.038 3.566 3.566 0 0 0-3.531 3.634c.01.472.112.936.302 1.368.191.431.464.82.806 1.145v.004Zm-3.73 16.497c1.756.89 8.451.277 8.451.277s-3.488-5.756-5.244-6.642a3.581 3.581 0 0 0-2.726-.199 3.571 3.571 0 0 0-.481 6.585v-.021Zm-1.429 16.509c1.582 1.171 8.285 1.703 8.285 1.703s-2.467-6.263-4.049-7.433a3.554 3.554 0 0 0-2.647-.666 3.556 3.556 0 0 0-2.938 2.661 3.562 3.562 0 0 0 .398 2.702c.241.402.558.753.934 1.033h.017Z"/>
      <path fill="#fff" d="M226.841 279.072c0 1.967-3.564 7.663-3.564 7.663s-3.56-5.709-3.56-7.663a3.57 3.57 0 0 1 3.562-3.444 3.57 3.57 0 0 1 3.562 3.444Zm5.864 10.903c-1.071 1.656-7.157 4.508-7.157 4.508s.11-6.73 1.178-8.382a3.559 3.559 0 0 1 6.472 1.19c.198.925.021 1.89-.493 2.684Zm-.259 18.633c-1.757.89-8.451.277-8.451.277s3.488-5.756 5.244-6.641a3.558 3.558 0 0 1 5.154 2.917c.035.467-.022.936-.169 1.38a3.547 3.547 0 0 1-1.778 2.067Zm-3.364 14.057c-1.582 1.171-8.285 1.703-8.285 1.703s2.467-6.262 4.049-7.433a3.563 3.563 0 0 1 4.991.739 3.57 3.57 0 0 1 .664 2.651 3.57 3.57 0 0 1-1.402 2.345l-.017-.005Zm-11.011-27.799c1.408 1.371 7.983 2.793 7.983 2.793s-1.612-6.535-3.02-7.906a3.566 3.566 0 0 0-2.54-1.038 3.566 3.566 0 0 0-3.531 3.634c.01.472.112.936.302 1.368.191.431.464.82.806 1.145v.004Zm-3.73 16.497c1.756.89 8.451.277 8.451.277s-3.488-5.756-5.244-6.642a3.581 3.581 0 0 0-2.726-.199 3.571 3.571 0 0 0-.481 6.585v-.021Zm-1.429 16.509c1.582 1.171 8.285 1.703 8.285 1.703s-2.467-6.263-4.049-7.433a3.554 3.554 0 0 0-2.647-.666 3.556 3.556 0 0 0-2.938 2.661 3.562 3.562 0 0 0 .398 2.702c.241.402.558.753.934 1.033h.017Zm-1.442 8.931s5.754-1.145 7.29-2.669c1.535-1.524 8.442-4.193 9.208-2.29.765 1.903 10.36 8.391 3.827 9.536-6.532 1.145-15.345 1.524-17.263.762-1.918-.762-3.062-5.339-3.062-5.339Z"/>
      <path fill="#fff" d="M231.808 340.669c-6.524 1.145-15.349 1.524-17.267.762-1.463-.579-2.476-3.372-2.88-4.683l-.191.043s1.153 4.576 3.071 5.338c1.918.762 10.743.379 17.267-.762 1.88-.332 2.42-1.107 2.216-2.09-.162.655-.804 1.145-2.216 1.392Z" opacity=".2"/>
    </g>
    <path fill="#9333EA" d="M240.85 369c102.139 0 184.94-5.992 184.94-13.384s-82.801-13.385-184.94-13.385-184.94 5.993-184.94 13.385c0 7.392 82.801 13.384 184.94 13.384Zm239.472-74.828a36.731 36.731 0 0 1-7.332 8.251 42.525 42.525 0 0 1-2.42 1.864c-10.565 7.595-24.71 10.933-38.452 13.095-26.679 4.198-53.916 5.015-81.037 5.815-22.835.682-45.682 1.363-68.526 1.814-32.65.656-65.305.851-97.905 0a1330.448 1330.448 0 0 1-53.418-2.478c-33.012-2.26-66.875-6.253-95.613-20.2a98.625 98.625 0 0 1-15.017-8.897c-7.805-5.692-14.23-12.58-17.667-20.737-5.53-13.112-2.607-27.846 3.708-40.702 3.828-7.774 8.8-15.053 13.959-22.269 3.053-4.283 6.175-8.54 9.144-12.861.31-.426.612-.881.91-1.324.574-.851 1.144-1.703 1.701-2.554a153.923 153.923 0 0 0 6.563-11.069 125.283 125.283 0 0 0 5.465-11.588 101.12 101.12 0 0 0 3.828-11.068 84.152 84.152 0 0 0 1.76-7.616c2.514-13.84 1.187-27.672-6.256-40.192-.072-.123-.149-.255-.225-.379l-.094-.149c-2.1-3.452-4.636-6.705-7.128-9.97-2.977-3.917-5.908-7.859-7.97-12.171-5.427-11.397-4.253-24.21-2.28-36.382 2.633-16.177 7.532-33.631 22.703-43.716C64.48-1.81 86.852-1.277 106.41 2.478c30.393 5.82 58.458 18.024 86.796 29.038 28.339 11.013 58.008 21.085 89.166 22.162 27.513.958 59.602-6.194 77.86-24.798 17.735-18.063 51.075-19.438 75.113-8.514 22.933 10.409 37.763 32.444 36.649 54.445-1.625 32.043-32.477 56.62-50.884 84.657a90.403 90.403 0 0 0-2.394 3.831c-7.23 12.231-11.683 26.275-6.35 39.009 7.154 17.058 28.393 25.381 46.307 36.096 8.651 5.172 16.545 10.907 21.648 18.467.192.273.366.541.54.809 7.201 11.154 6.656 25.398-.54 36.492Z" opacity=".1"/>
    <path fill="#9333EA" d="M32.353 192.98a153.902 153.902 0 0 0 6.562-11.068 125.307 125.307 0 0 0 5.47-11.58 101.12 101.12 0 0 0 3.828-11.068 84.152 84.152 0 0 0 1.76-7.616c2.514-13.84 1.187-27.672-6.256-40.192-.072-.123-.149-.255-.225-.379l-7.23-10.119h53.652v35.658h14.924v106.96h19.257v-34.695h23.107v34.695h19.245v-59.272h.961v-30.839h18.289v30.839h42.364v46.258h23.592v-14.474h14.46v14.474h23.588V93.712h30.809V72.026h5.295v21.686h8.663V136.6h15.409v-35.658h12.997V64.33h26.956v36.611h13.002v35.658h15.885v26.696c-7.23 12.231-11.683 26.275-6.35 39.008 7.154 17.059 28.393 25.381 46.307 36.097 8.651 5.176 16.545 10.911 21.648 18.471v37.314a36.737 36.737 0 0 1-7.332 8.238 42.525 42.525 0 0 1-2.42 1.864c-10.565 7.595-24.71 10.933-38.452 13.095-26.679 4.198-53.916 5.015-81.037 5.815-22.835.682-45.682 1.363-68.526 1.814h-97.913a1330.362 1330.362 0 0 1-53.418-2.478c-33.013-2.26-66.875-6.253-95.613-20.2a98.625 98.625 0 0 1-15.018-8.897v-83.708c3.054-4.283 6.176-8.54 9.144-12.861l2.616-3.887Z" opacity=".3"/>
    <path fill="#fff" d="M49.956 151.631v7.616h-1.743a93.634 93.634 0 0 0 1.743-7.616Zm25.034 7.616h20.219V147.68h-20.22v11.567Zm-25.034 11.085v11.563H38.898a125.357 125.357 0 0 0 5.487-11.563h5.571Zm25.034 11.563h20.219v-11.567h-20.22v11.567Zm-42.637 11.081h17.603v11.566H29.737v-7.675l2.616-3.891Zm42.637 11.566h20.219v-11.566h-20.22v11.566Zm-25.034 11.086H29.737v11.567h20.22v-11.567ZM74.99 227.19h20.219v-11.566h-20.22v11.566Zm-25.034 11.086H29.737v11.567h20.22v-11.567Zm25.034 11.563h20.219v-11.567h-20.22v11.567Zm-25.034 11.085H29.737v11.567h20.22v-11.567Zm25.034 11.563h20.219V260.92h-20.22v11.567Zm-25.034 11.085H29.737v11.567h20.22v-11.567Zm25.034 11.563h20.219v-11.567h-20.22v11.567Zm84.248-39.996h-47.179v5.781h47.179v-5.781Zm0 8.676h-47.179v5.781h47.179v-5.781Zm0 8.672h-47.179v5.781h47.179v-5.781Zm123.241-14.454H235.3v5.782h47.179v-5.782Zm0 8.672H235.3v5.782h47.179v-5.782Zm0 8.672H235.3v5.781h47.179v-5.781Zm-123.241 5.786h-47.179v5.781h47.179v-5.781Zm0 8.671h-47.179v5.781h47.179v-5.781Zm0 8.676h-47.179v5.781h47.179v-5.781Zm30.324-103.12h-12.997v16.866h12.997V195.39Zm15.409 16.862h12.998v-16.867h-12.998v16.867Zm-15.409 10.12h-12.997v16.866h12.997v-16.866Zm15.409 16.866h12.998v-16.867h-12.998v16.867Zm-15.409 10.119h-12.997v16.867h12.997v-16.867Zm15.409 16.867h12.998v-16.867h-12.998v16.867Zm-15.409 10.12h-12.997v16.866h12.997v-16.866Zm15.409 16.866h12.998v-16.867h-12.998v16.867Zm102.056-188.412h-17.331v22.167h17.331v-22.167Zm0 31.801h-17.331v22.167h17.331v-22.167Zm0 31.805h-17.331v22.167h17.331v-22.167Zm0 31.805h-17.331v22.167h17.331v-22.167Zm0 31.801h-17.331v22.166h17.331V232.01Zm0 31.805h-17.331v22.167h17.331v-22.167ZM408.85 150.094h-64.51v18.791h64.51v-18.791Zm.238 40.477h-64.51v18.791h64.51v-18.791Zm.242 40.476h-64.51v18.791h64.51v-18.791Zm.239 40.477h-64.511v18.791h64.511v-18.791ZM43.7 111.06v.379a17.538 17.538 0 0 0-.225-.379h.225Zm436.622 145.811v6.956h-21.648v-25.415c8.651 5.164 16.544 10.899 21.648 18.459Zm0 19.473v17.828a36.731 36.731 0 0 1-7.332 8.251 42.525 42.525 0 0 1-2.42 1.864h-11.909v-27.943h21.661Z" opacity=".4"/>
    <path fill="#9333EA" d="M148.014 87.297h-3.313a2.315 2.315 0 0 0 2.318-2.32 2.32 2.32 0 0 0-2.318-2.32h-26.832a2.317 2.317 0 0 0-2.318 2.32 2.32 2.32 0 0 0 2.318 2.32h3.313a2.322 2.322 0 0 0-1.577 3.93 2.32 2.32 0 0 0 1.577.714h-4.636a2.317 2.317 0 0 0-2.318 2.32 2.32 2.32 0 0 0 2.318 2.32h26.828a2.315 2.315 0 0 0 2.318-2.32 2.32 2.32 0 0 0-2.318-2.32h4.64a2.32 2.32 0 0 0 2.223-2.322 2.326 2.326 0 0 0-2.223-2.322Zm118.427 58.306h-3.313a2.32 2.32 0 0 0 0-4.641h-26.833a2.318 2.318 0 0 0-2.318 2.321 2.32 2.32 0 0 0 2.318 2.32h3.305a2.318 2.318 0 0 0-2.223 2.322 2.318 2.318 0 0 0 2.223 2.322h-4.636a2.306 2.306 0 0 0-1.639.68 2.331 2.331 0 0 0-.503.752 2.336 2.336 0 0 0 0 1.776 2.336 2.336 0 0 0 1.255 1.256c.281.116.582.176.887.176h26.837a2.319 2.319 0 0 0 1.639-3.96 2.32 2.32 0 0 0-1.639-.68h4.64a2.328 2.328 0 0 0 1.577-3.93 2.316 2.316 0 0 0-1.577-.714ZM468.15 69.468h-3.313a2.317 2.317 0 0 0 2.318-2.32 2.32 2.32 0 0 0-2.318-2.32h-26.832a2.32 2.32 0 0 0 0 4.64h3.313a2.315 2.315 0 0 0-2.318 2.32 2.32 2.32 0 0 0 2.318 2.32h-4.636a2.324 2.324 0 0 0 0 4.645h26.828a2.322 2.322 0 0 0 1.706-4 2.319 2.319 0 0 0-1.706-.645h4.64a2.317 2.317 0 0 0 2.318-2.32 2.32 2.32 0 0 0-2.318-2.32Z" opacity=".1"/>
    <path fill="url(#c)" d="m429.643 183.772.025-.038-.102-.068-.208-.141a.154.154 0 0 1 .038.034.852.852 0 0 0-1.118.238l-.128.175-5.954 8.557-1.042 1.503c-3.131-.945-8.217 3.031-10.799 5.308l-.451.405c-.204-.46-.323-.75-.323-.75-.127 1.397-5.065 3.496-6.218 4.258a4.24 4.24 0 0 1-1.701.579c.162-5.326-3.947-10.929-3.947-10.929l-10.041-12.805a11.297 11.297 0 0 1 1.288-7.288h.481c.82-.001 1.638-.074 2.445-.217a13.393 13.393 0 0 0 7.651-4.27c2-2.241 3.189-5.09 3.378-8.089 1.012-.259 1.871-1.2 1.726-2.282a1.706 1.706 0 0 0 0-.621 2.266 2.266 0 0 0-.114-.379c-.285-.728-.898-1.315-1.34-1.98a6.1 6.1 0 0 1-.957-3.256c.039-1.009.196-2.009.468-2.98.202-.58.299-1.191.285-1.805v-.124c.007-.16 0-.321-.022-.481a2.28 2.28 0 0 0-.08-.336 3.195 3.195 0 0 0-1.344-1.643c-1.591-1.039-3.628-1.056-5.414-1.703-2.595-.95-4.938-3.295-7.656-2.729-1.48.306-2.616 1.443-3.896 2.243a9.412 9.412 0 0 1-4.699 1.431c-1.4.042-2.816-.23-4.194 0-.247.044-.491.11-.727.196a10.807 10.807 0 0 0-3.641-.575 6.128 6.128 0 0 0-3.436.949c-1.863 1.299-2.356 3.832-2.331 6.084a.253.253 0 0 0 0 .055v.426c0 1.081.106 2.179.128 3.261a9.928 9.928 0 0 1-.426 2.98c-.85 2.673-3.313 4.717-3.806 7.488a6.321 6.321 0 0 0-.085 1.447c-.034 1.567.468 3.138.931 4.658.961 3.142 1.701 6.479 1.727 9.74a16.075 16.075 0 0 1-1.187 5.905 8.81 8.81 0 0 1-.85 1.562 7.23 7.23 0 0 1-.349.451l-.047.056a5.286 5.286 0 0 1-.336.349l-.093.089c-.11.097-.225.188-.345.273l-.115.085a3.646 3.646 0 0 1-.502.285l.851-.051a4.08 4.08 0 0 1-.851.545l4.517-.264a.837.837 0 0 1 .022.149 2.494 2.494 0 0 1-.064.332c-.031.106-.068.21-.111.311a.294.294 0 0 1 0 .042 2.583 2.583 0 0 1-.349.567l-.038.042a2.462 2.462 0 0 1-.225.243 2.29 2.29 0 0 1-.247.191l-.055.043a2.152 2.152 0 0 1-.57.268l-.077.021a1.87 1.87 0 0 1-.314.06l.425-.047a18.1 18.1 0 0 0 .85-.119h.086a2.279 2.279 0 0 1-1.361.677 12.482 12.482 0 0 0 2.862-.566c.587 3.955 1.892 16.006 1.174 18.233-.77 2.371 1.195 19.757 1.195 19.757s.268 1.333.736 3.321c-1.208 2.856-2.586 6.015-3.28 7.284-1.386 2.554-.706 15.521 4.083 21.285 0 0 1.982 2.797 1.459 3.832-.523 1.034.089 2.801.089 2.801l.758 16.79a43.767 43.767 0 0 1-.353 5.13c-2.038 2.533-5.189 6.224-6.669 6.812-2.293.932-19.39 21.711-19.39 21.711s.136.251.404.66l-.48.557-3.28 3.806-.259.303c-.617-.115-4.712-.852-7.97-1.099l-.319-.021v-.055a12.035 12.035 0 0 0-3.437.089h-.025a1.12 1.12 0 0 0-.566.298c-1.11 1.358-1.701 22.733-1.701 22.733s1.182 10.677 4.857 11.29c.192.067.392.105.595.115h.005c.068.004.136.004.204 0 2.637-.192 3.828-1.703 4.376-2.746.161-.313.283-.645.366-.988 0 0-.425-1.907.727-4.533 1.153-2.627 3.292-7.212 3.292-7.212s3.909-4.117 3.211-6.113l.374-.541c1.472-2.094 4.436-6.232 6.835-8.995l.468-.532a11.88 11.88 0 0 0 2.726.792s3.675-1.439 5.044-4.683c.583-1.371 2.862-3.798 5.291-6.139-.051.4-.077.626-.077.626l-.085 20.434c.79.544 1.632 1.008 2.514 1.383v.511a66.11 66.11 0 0 1-.523 8.715l-.077.451c-.302-.217-.561-.29-.731-.119-.753.762-1.221 5.64-1.276 7.888v.128c-.051.928-.298 2.035-.298 3.023-.025 1.434.425 2.643 2.743 2.745 2.88.12 15.264.311 21.895.426a14.696 14.696 0 0 0 9.782-3.47c1.216-1.042 2.148-2.2 2.178-3.295.059-.851-.396-1.647-1.663-2.345a.52.52 0 0 1-.026.085 7.178 7.178 0 0 0-.54-.264l-6.38-1-10.845-5.539s-.064-3.355-1.365-2.797c-.388.081-.76.225-1.102.426-.063-.128-.131-.256-.195-.392a12.577 12.577 0 0 1-1.34-5.662c0-.179 0-.357.026-.54.32-.288.621-.597.901-.924 0 0-.085-7.633.766-9.077.85-1.443 3.508-16.032 3.508-16.032s.086-2.712 1.795-4.325c1.71-1.614 1.11-6.275 1.11-6.275s2.391-1.277 3.16-5.428c.77-4.151 3.25-13.231 3.25-13.231s5.129-13.402 4.789-21.882c-.341-8.48.51-12.89.51-12.89l1.067-19.707v-.306c.426.328.711.587.711.587v-.213l.246.213s.545-8.94.362-12.486c2.977-1.017 7.545-2.69 7.8-3.542.387-1.277 5.529-5.279 5.529-5.279a.942.942 0 0 1-.311-.119c.162-.072.328-.162.507-.255 3.359-1.805 9.607-7.071 8.557-10.294l6.83-9.834a1.678 1.678 0 0 0-.14-2.086Zm-55.647-9.562a3.947 3.947 0 0 0-.498.039 37.817 37.817 0 0 0-1.276-5.181c-.791-2.665-1.641-5.347-1.769-8.119v-.361a9.77 9.77 0 0 1 .285-2.167c.162.302.345.6.532.881 1.093 1.652 2.369 3.223 3.041 5.083.306.851.484 1.775.952 2.554.468.779 1.332 1.439 2.242 1.299.313-.05.607-.184.85-.388a35.897 35.897 0 0 1-4.359 6.36Z"/>
    <path fill="#ECB4B6" d="M413.196 208.131a4.474 4.474 0 0 1-1.611.613c-2.127.06-3.828-5.64-3.828-5.64s.6-.609 1.552-1.46c2.82-2.508 8.74-7.144 11.513-4.551 3.101 2.907-4.002 9.076-7.626 11.038Zm-31.97 135.952-7.762 8.386s-7.183.081-5.775-3.886c.276-.859.475-1.741.595-2.636a64.61 64.61 0 0 0 .506-8.514c0-1.86-.03-3.163-.03-3.163s11.309-4.959 10.153.205c-.15.658-.23 1.33-.239 2.005a12.327 12.327 0 0 0 1.276 5.513c.357.736.784 1.436 1.276 2.09Z"/>
    <path fill="#000" d="m381.226 344.083-7.762 8.386s-7.183.081-5.775-3.886c.276-.859.475-1.741.595-2.635 1.025.791 2.501 3.133 2.501 3.133s4.95 1.447 6.311-2.891c.766-2.426 1.965-3.627 2.88-4.214a12.6 12.6 0 0 0 1.25 2.107Z" opacity=".1"/>
    <path fill="#9333EA" d="M399.229 356.714a14.125 14.125 0 0 1-9.454 3.406c-6.401-.094-18.365-.281-21.142-.396-3.717-.162-2.484-3.338-2.365-5.535v-.221c.043-2.188.498-6.939 1.225-7.663.727-.724 3.279 3.304 3.279 3.304s4.951 1.447 6.312-2.891c1.361-4.338 4.142-4.785 4.142-4.785 1.276-.545 1.323 2.725 1.323 2.725l10.483 5.415 6.15.97c.2.09.379.183.549.273 2.76 1.541 1.535 3.635-.502 5.398Z"/>
    <path fill="#fff" d="M379.857 348.378a.455.455 0 1 0 0-.91.455.455 0 0 0 0 .91Zm4.253 2.108a.456.456 0 1 0-.001-.911.456.456 0 0 0 .001.911Zm2.19.983a.455.455 0 1 0 0-.91.455.455 0 0 0 0 .91Zm4.538 1.746a.456.456 0 1 0-.001-.911.456.456 0 0 0 .001.911Zm-2.309-.745a.456.456 0 1 0-.001-.911.456.456 0 0 0 .001.911Z" opacity=".25"/>
    <path fill="#9333EA" d="M399.229 356.714a14.125 14.125 0 0 1-9.454 3.406c-6.401-.094-18.365-.281-21.142-.396-3.717-.162-2.484-3.338-2.365-5.535l23.332 1.448s9.557-1.452 10.127-4.3c2.764 1.52 1.539 3.614-.498 5.377Z"/>
    <path fill="#fff" d="M399.229 356.62a14.121 14.121 0 0 1-9.454 3.38c-6.401-.093-18.365-.276-21.142-.396-3.717-.161-2.484-3.337-2.365-5.534l23.332 1.443s9.557-1.451 10.127-4.299c2.764 1.549 1.539 3.644-.498 5.406Z" opacity=".25"/>
    <path fill="#ECB4B6" d="M355.793 323.01c-.859.7-1.645 1.486-2.343 2.346-2.314 2.695-5.176 6.726-6.597 8.765l-.884 1.277-3.097-.459s-3.343-5.109-3.3-5.245c.042-.136 2.641-5.62 2.641-5.62l1.008-1.179 3.173-3.712 1.433-1.677s10.773 3.478 7.966 5.504Z"/>
    <path fill="#000" d="m346.853 334.121-.884 1.277-3.097-.459s-3.343-5.109-3.3-5.245c.042-.136 2.641-5.62 2.641-5.62l1.008-1.179.332.06h.782c-2.764 2.89.209 9.255.209 9.255s1.284.128 2.309 1.911Z" opacity=".1"/>
    <path fill="#9333EA" d="M343.374 340.605s-2.067 4.461-3.181 7.024c-1.114 2.563-.702 4.423-.702 4.423a4.238 4.238 0 0 1-.353.958 4.87 4.87 0 0 1-4.227 2.678 1.113 1.113 0 0 1-.2 0c-3.747-.098-4.947-11.035-4.947-11.035s.575-20.821 1.651-22.137c.146-.151.337-.252.544-.289a11.569 11.569 0 0 1 3.313-.09c3.403.243 7.783 1.082 7.783 1.082h.783c-2.765 2.89.204 9.255.204 9.255s1.323.123 2.356 1.984c1.034 1.86-3.024 6.147-3.024 6.147Z"/>
    <path fill="#fff" d="M338.844 334.866a.456.456 0 1 0 0-.911.456.456 0 0 0 0 .911Zm-.225 3.606a.455.455 0 1 0 0-.91.455.455 0 0 0 0 .91Z" opacity=".25"/>
    <path fill="#9333EA" d="M338.845 352.934c-.511 1.008-1.702 2.486-4.228 2.677h-.174c-3.764-.098-4.964-11.034-4.964-11.034s.579-20.822 1.651-22.137a1.02 1.02 0 0 1 .544-.29 11.561 11.561 0 0 1 3.317-.089c-.063 3.738-.238 15.572 0 16.747.239 1.175 2.357 10.975 3.854 14.126Z"/>
    <path fill="#fff" d="M339.121 353.01a4.868 4.868 0 0 1-4.227 2.678 1.113 1.113 0 0 1-.2 0c-3.764-.098-4.959-11.034-4.959-11.034s.578-20.822 1.65-22.138a1.02 1.02 0 0 1 .544-.289 11.567 11.567 0 0 1 3.318-.089c-.064 3.737-.243 15.572 0 16.747.242 1.175 2.373 10.975 3.874 14.125Z" opacity=".25"/>
    <path fill="#9333EA" d="M334.443 355.611c-3.764-.098-4.964-11.034-4.964-11.034s.579-20.822 1.651-22.137a1.02 1.02 0 0 1 .544-.29c.791 1.175 1.484 3.776.851 9.502-1.174 10.847.242 11.528.242 11.528s1.74 9.196 1.676 12.431Z"/>
    <path fill="#000" d="M334.392 355.611c-3.777-.098-4.964-11.043-4.964-11.043s.579-20.821 1.65-22.137c.148-.15.338-.251.545-.289.791 1.175 1.48 3.776.85 9.502-1.173 10.847.243 11.528.243 11.528s1.761 9.204 1.676 12.439Zm78.804-147.48a4.474 4.474 0 0 1-1.611.613c-2.127.06-3.828-5.64-3.828-5.64s.6-.609 1.552-1.46c.659 1.558 2.561 5.717 3.887 6.487Z" opacity=".1"/>
    <path fill="#FF748E" d="M399.693 206.079s1.735.124 2.849-.621c1.115-.745 5.882-2.789 6.006-4.151 0 0 2.849 6.939 4.457 7.186 0 0-4.951 3.908-5.325 5.147-.374 1.239-10.029 4.257-10.029 4.257l2.042-11.818Z"/>
    <path fill="#9333EA" d="M399.693 206.079s1.735.124 2.849-.621c1.115-.745 5.882-2.789 6.006-4.151 0 0 2.849 6.939 4.457 7.186 0 0-4.951 3.908-5.325 5.147-.374 1.239-10.029 4.257-10.029 4.257l2.042-11.818Z"/>
    <path fill="#000" d="M355.793 323.01c-.859.7-1.645 1.486-2.343 2.346-3.73-1.567-6.142-4.76-7.056-6.165l1.433-1.677s10.773 3.47 7.966 5.496Z" opacity=".1"/>
    <path fill="#5E5A6B" d="M373.46 287.846s-6.056 8.089-8.268 9.008c-2.211.92-18.713 21.154-18.713 21.154s3.538 6.552 10.079 7.603c0 0 3.552-1.405 4.87-4.542 1.319-3.138 11.717-11.984 11.717-11.984l.315-21.239Z"/>
    <path fill="#000" d="M373.46 287.846s-6.056 8.089-8.268 9.008c-2.211.92-18.713 21.154-18.713 21.154s3.538 6.552 10.079 7.603c0 0 3.552-1.405 4.87-4.542 1.319-3.138 11.717-11.984 11.717-11.984l.315-21.239Z" opacity=".1"/>
    <path fill="#000" d="M355.113 314.973c1.837.195 3.691.195 5.529 0 3.266-.311.786 1.673-5.529 0Zm-1.485 2.107s4.334 2.478 6.005 1.239c1.672-1.239-1.611 1.196-6.005-1.239Zm25.28 17.416a9.663 9.663 0 0 0-.234 1.984c-3.347 3.039-7.374 2.103-9.892.992 0-1.861-.03-3.163-.03-3.163s11.313-4.977 10.156.187Z" opacity=".1"/>
    <path fill="#5E5A6B" d="m398.97 226.697-.123 2.286-1.034 19.199s-.851 4.296-.498 12.559c.353 8.263-4.606 21.32-4.606 21.32s-2.394 8.846-3.138 12.895c-.745 4.048-3.054 5.287-3.054 5.287s.578 4.546-1.072 6.113c-1.65 1.567-1.731 4.215-1.731 4.215s-2.552 14.214-3.402 15.619c-.851 1.405-.745 8.842-.745 8.842-5.367 6.365-13.209.579-13.209.579l.08-19.915s2.233-18.344 3.883-20.907c1.651-2.562 1.651-9.587 1.651-9.587l-.736-16.36s-.587-1.737-.081-2.729c.506-.991-1.412-3.708-1.412-3.708-4.623-5.619-5.282-18.263-3.943-20.745 1.34-2.481 5.355-12.392 5.355-12.392l5.529-3.227 9.982.298 12.304.358Z"/>
    <path fill="#000" d="M375.485 324.083s1.305 4.525 2.356 5.019c1.05.494-2.356-5.019-2.356-5.019Zm1.794-15.062s3.403 2.674 4.802 2.665c1.399-.008-4.802-2.665-4.802-2.665Z" opacity=".1"/>
    <path fill="#ECB4B6" d="M397.651 197.152v5.454l-3.598-1.55-3.585-1.55-7.8-7.684s-6.171-4.014-9.476-7.663c-1.888-2.086-2.841-4.057-1.174-5.108a10.445 10.445 0 0 0 2.157-1.895 35.545 35.545 0 0 0 4.308-6.36l.153-.276c1.608-2.955 2.667-5.475 2.667-5.475s4.525 1.452 7.438 3.508c.234.162.455.332.668.506 1.625 1.333 2.428 2.874.936 4.415a11.54 11.54 0 0 0-1.068 1.277 9.583 9.583 0 0 0-.659 1.043c-.089.162-.174.324-.255.481a11.127 11.127 0 0 0-.991 6.62l10.279 14.257Z"/>
    <path fill="#000" d="M390.345 173.478c-.386.4-.743.826-1.068 1.277a9.68 9.68 0 0 0-.659 1.043c-.089.162-.174.324-.255.481a12.964 12.964 0 0 1-9.727-5.261 2.05 2.05 0 0 1-.153-.218l.153-.276c1.608-2.955 2.667-5.475 2.667-5.475s4.525 1.452 7.438 3.508c.234.162.455.332.668.507 1.625 1.332 2.45 2.873.936 4.414Z" opacity=".1"/>
    <path fill="#ECB4B6" d="M402.096 162.789a13.007 13.007 0 0 1-3.802 9.208 12.98 12.98 0 0 1-9.2 3.806h-.48a13.008 13.008 0 0 1-11.533-8.025 13.023 13.023 0 0 1 2.486-13.838 12.992 12.992 0 0 1 19.626.663 13.013 13.013 0 0 1 2.903 8.186Z"/>
    <path fill="#000" d="M390.8 194.964s6.55 3.7 4.87.579l-8.545-12.644 9.701 12.478s6.193 8.514 2.808 14.376c0 0-.498 4.879.08 6.033.579 1.153-.166 13.474-.166 13.474s-2.309-2.129-3.547-1.737c-1.237.391-9.99 1.158-9.99 1.158l4.789-33.717Z" opacity=".1"/>
    <path fill="#000" d="m398.97 226.697-.123 2.286c-.783-.571-1.876-1.209-2.599-.967-1.238.426-9.99 1.158-9.99 1.158l.404-2.843 12.308.366Z" opacity=".1"/>
    <path fill="#464353" d="M391.047 194.964s6.549 3.7 4.869.579l-8.544-12.644 9.701 12.478s6.192 8.514 2.807 14.376c0 0-.493 4.879.081 6.033.574 1.153-.162 13.474-.162 13.474s-2.313-2.129-3.551-1.737c-1.238.391-9.99 1.158-9.99 1.158l4.789-33.717Z"/>
    <path fill="#000" d="M394.547 201.303c-.383 3.972-2.016 8.697-2.016 8.697s-1.153 11.737-2.642 15.211c-1.488 3.474-.825 8.263-1.65 17.105-.297 3.18-1.322 5.368-2.705 6.846-2.271 2.426-5.529 2.933-8.08 2.784-.209 0-.426-.026-.609-.047-4.129-.426-8.08-20.328-8.08-20.328s-1.897-16.939-1.157-19.255c.74-2.316-.74-15.534-1.238-18.429-.315-1.831.634-4.828 1.365-6.773.426-1.128.783-1.903.783-1.903s1.403-4.462 3.713-6.773a3.39 3.39 0 0 1 2.45-1.031 6.083 6.083 0 0 1 3.058.958l.106.073s15.026 15.368 16.429 18.923c.383.987.421 2.409.273 3.942Z" opacity=".1"/>
    <path fill="#9333EA" d="M394.053 201.056c-.382 3.972-2.016 8.697-2.016 8.697s-1.156 11.737-2.641 15.207c-1.484 3.469-.85 8.263-1.65 17.105-.298 3.184-1.323 5.372-2.705 6.85-2.275 2.426-5.529 2.933-8.081 2.784l-.604-.047c-4.129-.426-8.08-20.328-8.08-20.328s-1.897-16.943-1.153-19.255c.744-2.311-.744-15.534-1.238-18.429-.314-1.831.63-4.828 1.366-6.777.425-1.124.778-1.899.778-1.899s1.404-4.461 3.717-6.777a3.402 3.402 0 0 1 2.446-1.026 6.094 6.094 0 0 1 3.062.958l.106.068s15.026 15.372 16.425 18.923c.375 1.013.417 2.413.268 3.946Z"/>
    <path fill="#000" d="M377.22 261.554s-3.403 3.036-4.585 2.912c-1.182-.123 4.585-2.912 4.585-2.912Zm.906 2.912s-3.59 1.669-4.679 1.916c-1.088.247 3.292-2.346 4.679-1.916Zm13.89-45.619s5.325.059 6.129 1.732c.804 1.673-4.394-2.413-6.129-1.732Zm-.744 2.912s4.087.851 5.325 1.86c1.237 1.009-5.325-1.86-5.325-1.86Zm-6.869-10.103s-.493 16.795-2.322 18.966c-1.829 2.171 2.322-18.966 2.322-18.966Zm-4.585 47.476s-3.402 14.81 3.441 15.751c6.843.941 4.734-16.858 4.734-16.858l-8.175 1.107Z" opacity=".1"/>
    <path fill="#ECB4B6" d="M379.572 258.881s-3.403 14.815 3.436 15.751c6.839.937 4.738-16.858 4.738-16.858l-8.174 1.107Z"/>
    <path fill="#000" d="M385.424 196.701c-.353-8.902-12.797-10.741-15.702-2.32-.021.055-.039.111-.06.17-1.897 5.7-1.072 20.136-1.072 20.136s.247 9.694 1.157 12.917c.91 3.222 3.467 12.477 3.467 13.967 0 1.49 2.373 7.191 3.372 7.603 1 .413 1.506 3.636 1.748 4.215.243.579.991 8.089.991 8.089s9.327-.579 9.493-2.065c.166-1.486-2.063-8.753-2.063-8.753s-1.646-2.98-1.854-5.372c-.209-2.393-1.531-3.47-1.276-5.109.255-1.639-.744-2.482-.744-3.555 0-1.072-.74-3.967-.74-3.967s-1.57-1.239-1.323-2.725c.247-1.486-2.229-4.461-1.569-5.534.659-1.073.825-3.717.825-3.717s.825-11.92 1.403-15.125c.579-3.206 3.964-8.425 3.964-8.425s-.008-.166-.017-.43Z" opacity=".1"/>
    <path fill="#000" d="M385.054 248.915c-2.276 2.426-5.529 2.933-8.081 2.784-.293-1.128-.727-2.512-1.361-2.776-.999-.425-3.373-6.113-3.373-7.599 0-1.485-2.551-10.745-3.466-13.967-.914-3.223-1.157-12.917-1.157-12.917s-.85-14.435 1.059-20.149c0-.059.034-.114.056-.174 2.904-8.421 15.349-6.577 15.702 2.324v.426s-3.403 5.207-3.96 8.429c-.557 3.223-1.407 15.122-1.407 15.122s-.166 2.647-.826 3.72c-.659 1.073 1.816 4.049 1.57 5.535-.247 1.485 1.318 2.724 1.318 2.724s.745 2.891.745 3.968.99 1.898.744 3.554c-.247 1.656 1.076 2.725 1.276 5.109a13.353 13.353 0 0 0 1.161 3.887Z" opacity=".1"/>
    <path fill="#9333EA" d="M384.926 196.454c-.353-8.902-12.793-10.745-15.698-2.324 0 .059-.042.115-.059.174-1.897 5.7-1.072 20.136-1.072 20.136s.247 9.694 1.153 12.917c.906 3.222 3.47 12.486 3.47 13.967 0 1.482 2.369 7.186 3.373 7.599 1.003.413 1.505 3.64 1.748 4.215.242.574.986 8.088.986 8.088s9.332-.579 9.493-2.069c.162-1.49-2.062-8.757-2.062-8.757s-1.642-2.98-1.855-5.372c-.212-2.393-1.531-3.47-1.276-5.109.255-1.639-.744-2.482-.744-3.554 0-1.073-.744-3.968-.744-3.968s-1.57-1.239-1.319-2.725c.251-1.485-2.233-4.465-1.569-5.534.663-1.068.825-3.716.825-3.716s.825-11.92 1.404-15.126c.578-3.206 3.963-8.429 3.963-8.429s-.004-.149-.017-.413Z"/>
    <path fill="#000" d="M369.603 219.34c.246-.246 4.954-5.453 6.439-3.593 1.484 1.861-6.439 3.593-6.439 3.593Zm.433 4.028c.183-.183 4.704-.371 5.819-2.912 1.114-2.542-5.819 2.912-5.819 2.912Zm-5.15-45.679c.112.13.196.282.247.447a1.943 1.943 0 0 0-.247-1.703c-.221-.256-.544-.405-.744-.673 0-.021-.026-.047-.043-.072a1.282 1.282 0 0 0 .043 1.311c.2.264.523.417.744.69Zm6.299-16.08c0-.472.021-.94 0-1.404-.089-1.703-.4-3.406-.472-5.109-.098 2.069.361 4.257.472 6.347v.166Z" opacity=".1"/>
    <path fill="#464353" d="m415 204.589.255.179a1.03 1.03 0 0 1-.264-1.426l11.483-16.671c.076-.11.174-.205.286-.278a1.036 1.036 0 0 1 .769-.14c.131.028.255.082.366.158l-.251-.178a1.645 1.645 0 0 1 .425 2.286L417.3 204.168a1.643 1.643 0 0 1-1.708.682 1.631 1.631 0 0 1-.592-.261Z"/>
    <path fill="#9F9EFF" d="m427.678 186.233.273.189-12.632 18.357-.273-.189a.74.74 0 0 1-.19-1.03l11.783-17.123a.742.742 0 0 1 1.039-.204Z"/>
    <path fill="#464353" d="m426.353 188.802-.053-.037a.072.072 0 0 0-.1.019l-.948 1.378a.071.071 0 0 0 .018.1l.053.037a.072.072 0 0 0 .1-.019l.949-1.378a.072.072 0 0 0-.019-.1Z"/>
    <path fill="#000" d="M403.729 161.197c-.183-.89-.91-1.542-1.412-2.299-1.25-1.886-1.055-4.381-.472-6.569a4.694 4.694 0 0 0 .268-1.865 2.952 2.952 0 0 0-1.378-1.932c-1.536-1.009-3.505-1.022-5.227-1.661-2.505-.928-4.772-3.214-7.383-2.66-1.43.302-2.527 1.409-3.76 2.188a9.065 9.065 0 0 1-4.542 1.392c-1.353.042-2.718-.222-4.049 0a4.164 4.164 0 0 0-.702.191 10.569 10.569 0 0 0-3.517-.562 5.911 5.911 0 0 0-3.318.928c-1.799 1.278-2.279 3.725-2.25 5.926.03 2.201.4 4.47-.276 6.565-.851 2.61-3.198 4.598-3.675 7.297-.323 1.834.281 3.686.821 5.47 1.548 5.109 2.573 10.779.519 15.722-.523 1.251-1.306 2.49-2.552 3.065l4.364-.26a2.373 2.373 0 0 1-1.119 2.392 2.365 2.365 0 0 1-.872.316 10.145 10.145 0 0 0 3.203-.737 3.408 3.408 0 0 0 2.02-2.443c.085-.592-.042-1.209.123-1.78.285-.983 1.276-1.524 2.106-2.154 2.126-1.66 3.139-4.457 3.219-7.161.081-2.703-.633-5.359-1.399-7.956-.766-2.597-1.586-5.207-1.701-7.91-.05-.988.042-1.979.272-2.942.157.294.332.584.515.852 1.054 1.609 2.288 3.137 2.934 4.951.229.86.536 1.696.919 2.499.451.766 1.276 1.4 2.165 1.277s1.535-1.086 1.829-1.988c.293-.903.425-1.886.965-2.657 1.038-1.455 3.113-1.587 4.899-1.532 3.764.119 8.957.69 11.909-2.205.561-.549.851-1.388 1.701-1.184.783.183 1.221 1.46 2.059 1.746 1.369.472 3.104-.805 2.794-2.32Z" opacity=".1"/>
    <path fill="#464353" d="M403.729 160.715c-.183-.889-.91-1.545-1.412-2.299-1.25-1.89-1.055-4.384-.472-6.568a4.696 4.696 0 0 0 .268-1.865 2.96 2.96 0 0 0-1.378-1.933c-1.536-1.009-3.505-1.026-5.227-1.66-2.505-.928-4.772-3.214-7.383-2.661-1.43.303-2.527 1.409-3.76 2.188a9.099 9.099 0 0 1-4.542 1.393c-1.353.042-2.718-.222-4.049 0a4.072 4.072 0 0 0-.702.191 10.518 10.518 0 0 0-3.517-.562 5.952 5.952 0 0 0-3.318.924c-1.799 1.277-2.279 3.729-2.25 5.93.03 2.201.4 4.47-.276 6.565-.851 2.609-3.198 4.597-3.675 7.296-.323 1.835.281 3.687.821 5.471 1.548 5.108 2.573 10.779.519 15.717-.523 1.256-1.306 2.495-2.552 3.07l4.364-.26a2.369 2.369 0 0 1-1.119 2.389 2.362 2.362 0 0 1-.872.314 10.003 10.003 0 0 0 3.203-.732 3.408 3.408 0 0 0 2.02-2.444c.085-.591-.042-1.209.123-1.779.285-.984 1.276-1.524 2.106-2.154 2.126-1.661 3.139-4.457 3.219-7.161.081-2.703-.633-5.364-1.399-7.956-.766-2.593-1.586-5.207-1.701-7.91a10.4 10.4 0 0 1 .272-2.942c.157.294.332.583.515.852 1.054 1.609 2.288 3.137 2.934 4.951.228.858.535 1.693.919 2.494.451.767 1.276 1.405 2.165 1.278.889-.128 1.535-1.082 1.829-1.984.293-.903.425-1.886.965-2.657 1.038-1.456 3.113-1.588 4.899-1.532 3.764.119 8.957.689 11.909-2.206.561-.549.851-1.387 1.701-1.183.783.183 1.221 1.46 2.059 1.745 1.369.473 3.104-.804 2.794-2.32Z"/>
    <path fill="#000" d="M366 152.955v.851c0 .92.077 1.852.111 2.776.038-1.192-.068-2.414-.111-3.627Zm-1.488 28.952c.115-3.405-.659-6.917-1.655-10.217a19.448 19.448 0 0 1-.85-3.635c-.183 1.703.365 3.405.85 5.083a35.16 35.16 0 0 1 1.655 8.769Zm36.908-27.658c.07-.812.212-1.615.425-2.401a4.679 4.679 0 0 0 .268-1.865 2.067 2.067 0 0 0-.081-.328c-.051.251-.119.498-.187.745a11.348 11.348 0 0 0-.425 3.849Zm-36.219 35.977-2.637.153a4.381 4.381 0 0 1-1.727 1.55l4.117-.243c.247-.444.334-.96.247-1.46Zm38.413-29.885a2.284 2.284 0 0 1-2.683 1.256c-.851-.286-1.276-1.563-2.059-1.746-.851-.204-1.14.639-1.701 1.188-2.948 2.89-8.14 2.32-11.909 2.201-1.786-.056-3.861.076-4.899 1.532-.553.771-.676 1.759-.966 2.661-.289.903-.893 1.839-1.828 1.984-.936.145-1.702-.498-2.165-1.277a14.494 14.494 0 0 1-.919-2.495c-.646-1.813-1.88-3.346-2.935-4.955a10.938 10.938 0 0 1-.514-.852 10.392 10.392 0 0 0-.272 2.946v.209a9.516 9.516 0 0 1 .255-1.703c.157.294.332.583.514.851 1.055 1.61 2.289 3.138 2.935 4.951.228.859.535 1.694.919 2.495.451.766 1.276 1.405 2.165 1.277.888-.127 1.535-1.081 1.828-1.984.294-.902.426-1.885.966-2.656 1.038-1.456 3.113-1.588 4.899-1.533 3.764.12 8.957.69 11.909-2.205.561-.549.85-1.388 1.701-1.183.783.183 1.221 1.46 2.059 1.745 1.373.464 3.108-.813 2.798-2.328a2.888 2.888 0 0 0-.098-.379Zm-32.952 25.474c-.808.63-1.821 1.171-2.105 2.154-.166.575-.039 1.188-.124 1.78a3.416 3.416 0 0 1-2.02 2.448 6.377 6.377 0 0 1-1.255.425 2.38 2.38 0 0 1-1.948 1.75 10.003 10.003 0 0 0 3.203-.732 3.4 3.4 0 0 0 2.02-2.444c.085-.591-.042-1.209.124-1.779.284-.984 1.275-1.524 2.105-2.154 2.126-1.661 3.139-4.457 3.219-7.161v-1.205c-.153 2.623-1.161 5.309-3.219 6.918Z" opacity=".1"/>
    <path fill="url(#d)" d="M193.726 348.574h.098s-15.617-42.392-19.989-48.152c0 0-4.581-2.678-4.372-7.203l-5.619-26.982s.085-.081.226-.234l.119-.132c.042-.047.089-.098.136-.158a12.677 12.677 0 0 0 1.867-2.882c.03-.068.064-.132.094-.2.208-.472.383-.958.523-1.456.392.137.823.114 1.199-.063v-.405s-.055-1.596-.059-4.091v-2.261c.181-.647.33-1.304.446-1.966l-.23-.107c0-.034 0-.064.022-.098l-.192-.089c.153-5.918.664-13.478 2.127-18.629.051-.183.102-.362.157-.541 1.735-5.624 1.774-12.49 2.22-18.306.351.728.652 1.479.902 2.248.221-.244.476-.455.757-.626l1.744 13.798v16.253s-2.918 20.992 6.243 17.084c9.161-3.908 2.501-18.305 2.501-18.305s0-8.025 1.25-12.142c.821-2.707.29-11.494-.17-17.152.876.158 1.417.281 1.417.281a9.532 9.532 0 0 0 .272-2.524c.187-9.485-11.649-24.777-16.477-30.609a13.792 13.792 0 0 0-5.558-4.828l-9.259-4.431s-4.36-1.086-6.061-4.406c0-.056-.03-.115-.042-.175.191-.085.382-.175.57-.272a10.297 10.297 0 0 0 3.619-2.878c1.973-2.478 2.913-5.581 3.828-8.604 1.059-3.55 2.126-7.182 1.986-10.885-.14-3.704-1.701-7.553-4.895-9.519-2.718-1.678-6.503-1.997-8.188-4.683-.455-.724-.731-1.584-1.339-2.171a.51.51 0 0 0-.426-.524l-4.72-.911a.518.518 0 0 0-.6.4v.064a28.469 28.469 0 0 0-11.981 3.01 27.598 27.598 0 0 0-3.794 2.214c-1.701 1.2-3.402 2.784-3.64 4.844-.124 1.026.127 2.078-.085 3.082-.562 2.691-4.207 4.44-3.675 7.135.357 1.831 2.454 2.618 4.415 2.623a14.482 14.482 0 0 0-.549 3.937 14.672 14.672 0 0 0 3.347 9.256 14.648 14.648 0 0 0 8.438 5.053 41.778 41.778 0 0 1 3.739 6.292c-2.399 2.252-7.422 7.48-4.343 9.238l-6.379 15.64.621 16.131-2.701 2.388.591.732c-3.024 3.483-10.033 11.099-15.153 13.125-.734.292-1.445.64-2.127 1.039a8.718 8.718 0 0 1-3.071 1.187 8.3 8.3 0 0 0-1.407.269l-1.221-2.508a1.839 1.839 0 0 0-2.441-.851l-.749.357-1.782.852-.74.353-.566.268a1.8 1.8 0 0 0-.85 2.414l1.48 3.035c-2.105 1.835-3.135 4.028-.268 6.063a6.312 6.312 0 0 0 3.828 1.192l.901 1.843a1.834 1.834 0 0 0 2.437.851l1.306-.621 2.552-1.205a1.79 1.79 0 0 0 .85-2.409l-.74-1.52a29.982 29.982 0 0 0 4.526-4.291s3.798-2.355 6.035-2.878c1.484-.349 6.694-3.725 9.901-5.862l.914 23.763a5.233 5.233 0 0 1-.706.851l.719-.502v.175a5.53 5.53 0 0 1-.31.327l.31-.221v.285a3.194 3.194 0 0 1-.323.345l.327-.23.094 2.469 1.569-2.554.098 2.554.366-.6c-4.398 7.386-10.127 18.259-13.185 29.204 0 0-4.784 8.229-4.163 16.667l-8.804 41.762.17.064c-2.854 2.031-8.85 5.756-14.741 5.905 0 0-14.159-.426-10.207 2.673 3.95 3.099 39.128 7.616 39.128 7.616l1.352-10.404.315.115s0-.06-.021-.162l.425.162s-.851-5.147 2.288-8.025 10.411-32.103 9.782-36.611c0 0 5.588-13.806 12.585-24.815l8.234 20.907 9.161 15.64s12.185 26.778 11.793 32.746c-2.551 3.091-7.136 7.931-10.543 7.791 0 0-13.95 2.678-4.372 5.147 9.578 2.469 37.682-6.812 37.682-6.812l-2.769-9.038Zm-60.993-95.747.085-.047c-.425.66-.897 1.397-1.399 2.201l1.314-2.154Z"/>
    <path fill="url(#e)" d="M126.69 255.981c-.345.243-.532.384-.532.384.195-.101.375-.23.532-.384Z"/>
    <path fill="url(#f)" d="m127.107 256.39-.532.388c.195-.103.374-.233.532-.388Z"/>
    <path fill="url(#g)" d="M127.107 255.981c-.345.243-.532.384-.532.384.195-.101.374-.23.532-.384Z"/>
    <path fill="#333" d="M174.745 349.17s-7.307 10.362-12.176 10.158c0 0-13.61 2.639-4.254 5.078 9.357 2.44 36.743-6.705 36.743-6.705l-3.258-10.642-17.055 2.111Z"/>
    <path fill="#535461" d="m142.064 277.246 10.348 26.615 8.932 15.441s12.282 27.327 11.483 32.61l19.564-3.151s-15.222-41.851-19.483-47.539c0 0-4.466-2.644-4.253-7.114l-5.478-26.594s5.329-5.147 2.352-11.596a10.972 10.972 0 0 0-.528-1.001c-4.057-6.905-19.483-3.048-19.483-3.048l-3.454 25.377Z"/>
    <path fill="#000" d="m142.064 277.246 10.348 26.615 8.932 15.441s12.282 27.327 11.483 32.61l19.564-3.151s-15.222-41.851-19.483-47.539c0 0-4.466-2.644-4.253-7.114l-5.478-26.594s5.329-5.147 2.352-11.596a10.972 10.972 0 0 0-.528-1.001c-4.057-6.905-19.483-3.048-19.483-3.048l-3.454 25.377Z" opacity=".03"/>
    <path fill="#000" d="M172.92 301.222s-4.465-2.644-4.253-7.114l-5.49-26.594s5.329-5.147 2.352-11.596a10.972 10.972 0 0 0-.528-1.001c-1.969-3.35-6.609-4.168-10.871-4.121 4.088.039 8.387.933 10.263 4.121.193.323.368.657.523 1.001 2.977 6.449-2.348 11.596-2.348 11.596l5.478 26.616c-.2 4.47 4.253 7.113 4.253 7.113 4.253 5.688 19.484 47.54 19.484 47.54l-18.956 3.022v.098l19.564-3.15s-15.209-41.843-19.471-47.531Z" opacity=".1"/>
    <path fill="#333" d="M106.139 344.7s-8.12 6.905-16.034 7.11c0 0-13.801-.426-9.948 2.643 3.853 3.07 38.163 7.514 38.163 7.514l1.527-11.864-13.708-5.403Z"/>
    <path fill="#000" d="M135.978 250.226s-13.397 18.893-18.675 37.991c0 0-4.678 8.126-4.057 16.458l-8.527 41.243 15.629 5.887s-.812-5.078 2.233-7.922c3.045-2.844 10.148-31.694 9.54-36.164 0 0 9.744-24.381 19.487-33.93 9.744-9.549 14.588-11.754 16.022-20.008 0 .012-22.924-11.073-31.652-3.555Z" opacity=".1"/>
    <path fill="#535461" d="M135.57 250.226s-13.397 18.893-18.671 37.991c0 0-4.678 8.126-4.061 16.458l-8.506 41.243 15.608 5.887s-.808-5.078 2.233-7.922c3.041-2.844 10.152-31.694 9.54-36.164 0 0 9.743-24.381 19.487-33.93 9.744-9.549 14.592-11.754 16.026-20.008 0 .012-22.929-11.073-31.656-3.555Z"/>
    <path fill="#000" d="M144.225 247.412c10.063.119 22.592 6.181 22.592 6.181-1.433 8.242-6.281 10.447-16.021 20.009-9.739 9.561-19.487 33.929-19.487 33.929.608 4.47-6.495 33.321-9.54 36.165-2.65 2.477-2.377 6.645-2.263 7.684l.638.238s-.812-5.079 2.233-7.922c3.045-2.844 10.148-31.695 9.54-36.165 0 0 9.744-24.38 19.487-33.929 9.744-9.549 14.593-11.754 16.022-20.009 0 0-13.045-6.309-23.201-6.181Z" opacity=".1"/>
    <path fill="#ECB4B6" d="M125.618 220.762s-9.688 12.078-16.23 14.7c-.718.289-1.415.63-2.084 1.022a8.453 8.453 0 0 1-2.977 1.175 7.192 7.192 0 0 0-2.267.596c-3.402 1.566-11.24 5.807-6.064 9.531 6.494 4.683 15.221-6.096 15.221-6.096s3.705-2.324 5.886-2.843c2.182-.52 12.177-7.519 12.177-7.519l-3.662-10.566Z"/>
    <path fill="#9333EA" d="m127.451 218.327-3.857 3.453 5.682 7.109-1.825-10.562Z"/>
    <path fill="#000" d="m127.451 218.327-3.857 3.453 5.682 7.109-1.825-10.562Z" opacity=".1"/>
    <path fill="#9333EA" d="M137.224 177.893s-9.237 7.927-5.367 10.162l-6.239 15.44 2.148 56.48 8.808-14.628-6.018-31.694s-1.702-18.893 3.224-23.363l4.725-9.366-1.281-3.031Z"/>
    <path fill="#000" d="M138.445 175.062s-9.238 7.927-5.372 10.162l-6.23 15.453 2.148 56.48 8.808-14.628-6.014-31.707s-1.701-18.893 3.219-23.363l4.73-9.366-1.289-3.031Z" opacity=".1"/>
    <path fill="#ECB4B6" d="M130.092 169.566s7.511 9.14 7.307 14.423c-.204 5.283 14.209-9.14 14.209-9.14s-5.482-6.705-4.061-13.819c1.42-7.113-17.455 8.536-17.455 8.536Zm42.828 45.918 2.033 16.27v16.05s-2.841 20.723 6.091 16.862c8.931-3.861 2.415-18.097 2.415-18.097s0-7.927 1.221-11.988-.608-21.946-.608-21.946l-11.152 2.849Z"/>
    <path fill="#F2F2F2" d="M145.11 177.084s-5.457 5.287-8.319 3.453l-3.896 9.693a44.63 44.63 0 0 0-3.168 18.685l1.377 36.636 6.091-.813 2.033-34.742 3.045-21.128 2.837-11.784Z"/>
    <path fill="#000" d="M149.678 171.494s-7.205 4.977-9.234 9.247c0 0-.204 4.683-1.829 6.705-1.624 2.022-3.245 12.188-3.653 24.38-.408 12.193-2.233 28.442-2.233 28.442s-3.045 15.85-6.29 17.455c0 0 15.017-11.375 22.324-7.514 7.307 3.861 15.63 13.197 18.067 11.784 0 0-.587-17.808 2.076-27.306.051-.178.102-.357.157-.532 2.841-9.344 1.016-22.137 4.253-27.629 0 0 0-9.932-1.871-17.347a13.416 13.416 0 0 0-7.167-8.753l-9.016-4.359s-4.772-.711-5.584-4.573Z" opacity=".1"/>
    <path fill="#000" d="M149.677 171.494s-6.804 5.386-8.829 9.651c0 0-.204 4.683-1.825 6.705-1.62 2.022-3.249 12.193-3.653 24.381-.404 12.188-2.233 28.463-2.233 28.463s-3.045 15.845-6.294 17.454c0 0 15.022-11.379 22.328-7.518 7.307 3.861 15.63 13.197 18.063 11.784 0 0-.583-17.803 2.08-27.301.051-.183.102-.358.153-.532 2.845-9.366 1.016-22.137 4.253-27.633 0 0 0-9.932-1.876-17.344a13.384 13.384 0 0 0-2.612-5.172 13.38 13.38 0 0 0-4.55-3.585l-9.029-4.376s-5.163-1.115-5.976-4.977Z" opacity=".1"/>
    <path fill="#9333EA" d="M149.575 171.392s-6.698 5.079-8.727 9.366c0 0-.204 4.683-1.825 6.705-1.62 2.022-3.249 12.188-3.653 24.381-.404 12.192-2.233 28.425-2.233 28.425s-3.045 15.849-6.294 17.454c0 0 15.022-11.375 22.328-7.514 7.307 3.861 15.63 13.197 18.063 11.784 0 0-.583-17.808 2.08-27.306l.153-.532c2.845-9.344 1.016-22.137 4.253-27.629 0 0 0-9.931-1.876-17.347a13.38 13.38 0 0 0-7.162-8.753l-9.029-4.376s-4.555-1.103-6.078-4.658Z"/>
    <path fill="#000" d="M168.148 183.278s20.602 23.466 17.761 34.641c0 0-10.556-2.436-13.397.813 0 0-2.233-7.518-8.931-11.784-6.699-4.266-12.87-31.592 4.567-23.67Z" opacity=".1"/>
    <path fill="#9333EA" d="M168.148 182.874s20.602 23.465 17.761 34.64c0 0-10.556-2.439-13.397.813 0 0-2.233-7.518-8.931-11.784-6.699-4.265-12.87-31.596 4.567-23.669Z"/>
    <path fill="#000" d="M148.053 165.603c-.319-1.639-.051-1.763.306-3.555 1.421-7.11-17.437 8.514-17.437 8.514s1.05 1.277 2.352 3.159c.961.199 1.94.299 2.921.298 5.159.017 9.315-4.342 11.858-8.416Z" opacity=".1"/>
    <path fill="#ECB4B6" d="M135.366 173.014c7.958 0 14.409-6.457 14.409-14.423s-6.451-14.423-14.409-14.423c-7.958 0-14.409 6.457-14.409 14.423s6.451 14.423 14.409 14.423Z"/>
    <path fill="#000" d="M122.42 154.645c-2.127.285-4.828-.426-5.236-2.529-.515-2.657 3.037-4.389 3.585-7.041.209-.997-.038-2.035.081-3.044.238-2.035 1.88-3.602 3.552-4.781a27.302 27.302 0 0 1 18.177-4.849 4.056 4.056 0 0 1 2.25.711c.702.579.97 1.511 1.446 2.282 1.646 2.661 5.333 2.98 7.983 4.632 3.1 1.937 4.631 5.738 4.772 9.395.14 3.657-.902 7.237-1.935 10.749-.876 2.98-1.795 6.046-3.717 8.489-1.923 2.444-5.104 4.155-8.137 3.406 1.387-1.001.383-3.316-1.118-4.13-1.501-.813-3.36-.953-4.64-2.073-1.28-1.119-1.667-2.959-2.088-4.627-.528-2.129-1.276-4.257-2.824-5.786-2.999-3.005-8.451-1.302-12.151-.804Z" opacity=".1"/>
    <path fill="#464353" d="M122.828 154.44c-2.127.29-4.827-.425-5.24-2.524-.514-2.661 3.037-4.389 3.59-7.046.204-.996-.043-2.03.076-3.043.238-2.035 1.884-3.598 3.556-4.781a27.306 27.306 0 0 1 18.173-4.849 4.06 4.06 0 0 1 2.25.715c.702.575.974 1.507 1.45 2.278 1.642 2.66 5.334 2.98 7.983 4.631 3.096 1.937 4.632 5.743 4.768 9.396.136 3.653-.902 7.237-1.931 10.749-.88 2.98-1.795 6.05-3.721 8.493-1.927 2.444-5.104 4.151-8.132 3.406 1.382-.996.378-3.316-1.119-4.13-1.497-.813-3.36-.949-4.644-2.073-1.285-1.124-1.667-2.958-2.084-4.627-.527-2.108-1.276-4.257-2.824-5.781-3.016-3.015-8.455-1.312-12.151-.814Z"/>
    <path fill="#9333EA" d="m144.068 139.8 1.306-6.692a.512.512 0 0 0-.077-.374.5.5 0 0 0-.319-.209l-4.602-.899a.487.487 0 0 0-.373.074.496.496 0 0 0-.21.318l-1.305 6.688-4.462 16.518 8.179 1.605 1.863-17.029Z"/>
    <path fill="#000" d="M121.021 145.402a4.6 4.6 0 0 0 .637-1.494c.205-.996-.042-2.035.077-3.044.045-.359.132-.712.259-1.051a4.867 4.867 0 0 0-.74 2.013c-.119 1.014.128 2.048-.08 3.044-.036.182-.087.36-.153.532Zm33.241 22.091c-1.892 2.409-5.018 4.095-7.995 3.444a1.552 1.552 0 0 1-.617.936c3.02.737 6.209-.97 8.132-3.406a14.868 14.868 0 0 0 1.812-3.026 13.547 13.547 0 0 1-1.332 2.052Zm-7.974 3.278c1.135-1.056.157-3.21-1.276-3.989-1.501-.813-3.36-.954-4.644-2.074-1.285-1.119-1.668-2.958-2.084-4.631-.528-2.108-1.276-4.257-2.824-5.782-3.016-3.018-8.455-1.315-12.151-.817-2.127.285-4.828-.426-5.236-2.529a2.783 2.783 0 0 1 .119-1.485 3.303 3.303 0 0 0-.604 2.452c.426 2.103 3.118 2.814 5.24 2.524 3.696-.498 9.136-2.201 12.151.822 1.531 1.537 2.297 3.674 2.824 5.781.425 1.669.787 3.495 2.084 4.628 1.297 1.132 3.143 1.277 4.644 2.073 1.076.579 1.889 1.941 1.757 3.027Z" opacity=".1"/>
    <path fill="#000" d="M137.297 166.007a7.106 7.106 0 0 0 7.103-7.109c0-3.927-3.18-7.11-7.103-7.11a7.106 7.106 0 0 0-7.103 7.11 7.106 7.106 0 0 0 7.103 7.109Z" opacity=".1"/>
    <path fill="#9333EA" d="M137.297 166.211a7.106 7.106 0 0 0 7.103-7.109c0-3.927-3.18-7.11-7.103-7.11a7.106 7.106 0 0 0-7.103 7.11 7.106 7.106 0 0 0 7.103 7.109Z"/>
    <path fill="#333" d="M137.297 163.759a4.655 4.655 0 0 0 4.653-4.657 4.655 4.655 0 0 0-4.653-4.657 4.655 4.655 0 0 0-4.653 4.657 4.655 4.655 0 0 0 4.653 4.657Z"/>
    <path fill="#9333EA" d="M137.297 160.524a1.42 1.42 0 0 0 1.42-1.422 1.42 1.42 0 1 0-2.841 0c0 .785.636 1.422 1.421 1.422Z"/>
    <path fill="#000" d="m144.187 139.206-5.577-1.09-.039.201 5.576 1.09.04-.201Z" opacity=".05"/>
    <path fill="#CBDAE3" d="m97.81 235.381-1.36.656a2.701 2.701 0 0 0-1.258 3.604l4.974 10.327a2.696 2.696 0 0 0 3.6 1.259l1.36-.657a2.7 2.7 0 0 0 1.258-3.603l-4.974-10.327a2.696 2.696 0 0 0-3.6-1.259Z"/>
    <path fill="#535461" d="m99.683 234.477-5.107 2.464a.618.618 0 0 0-.287.825l6.78 14.077a.616.616 0 0 0 .823.288l5.107-2.465a.617.617 0 0 0 .288-.824l-6.781-14.077a.616.616 0 0 0-.823-.288Z"/>
    <path fill="#9333EA" d="m100.336 234.163-5.141 2.481a.699.699 0 0 0-.326.932l6.71 13.932a.698.698 0 0 0 .932.325l5.141-2.481a.698.698 0 0 0 .325-.932l-6.71-13.931a.696.696 0 0 0-.931-.326Z"/>
    <path fill="#F2F2F2" d="m100.713 235.334-4.835 2.333 5.554 11.531 4.835-2.333-5.554-11.531Zm4.199 14.669c.303-.146.39-.593.195-.997-.195-.405-.598-.614-.9-.468-.303.146-.39.592-.196.997.195.404.599.614.901.468Z"/>
    <path fill="#000" d="M141.95 237.242c2.855.032 5.681.589 8.336 1.643 4.253 1.728 8.757 0 8.757 0s-12.827-3.725-17.093-1.643Z" opacity=".1"/>
    <path fill="#9333EA" d="M288.353 314.015s2.645 3.461-1.221 8.689c-3.866 5.227-7.052 9.638-5.763 12.895 0 0 5.831-9.707 10.577-9.843 4.747-.136 1.629-5.905-3.593-11.741Z"/>
    <path fill="#000" d="M288.352 314.015c.231.334.413.7.541 1.085 4.631 5.445 7.102 10.528 2.649 10.643-4.147.12-9.123 7.544-10.313 9.417.038.145.085.287.14.426 0 0 5.831-9.706 10.577-9.843 4.747-.136 1.629-5.892-3.594-11.728Z" opacity=".1"/>
    <path fill="#FFD037" d="M293.269 318.425c0 1.222-.136 2.21-.302 2.21-.166 0-.306-.988-.306-2.21s.17-.643.34-.643.268-.574.268.643Z"/>
    <path fill="#FFD037" d="M294.957 319.877c-1.067.583-1.998.936-2.079.787-.081-.149.718-.74 1.786-1.324 1.067-.583.651-.157.731 0 .081.158.63-.042-.438.537Z"/>
    <path fill="#9333EA" d="M274.385 314.015s-2.645 3.461 1.221 8.689c3.866 5.227 7.051 9.638 5.763 12.895 0 0-5.831-9.707-10.578-9.843-4.746-.136-1.628-5.905 3.594-11.741Z"/>
    <path fill="#000" d="M274.385 314.015c-.231.334-.413.7-.54 1.085-4.631 5.445-7.098 10.528-2.645 10.643 4.146.12 9.118 7.544 10.309 9.417a3.722 3.722 0 0 1-.14.426s-5.831-9.706-10.578-9.843c-4.746-.136-1.628-5.892 3.594-11.728Z" opacity=".1"/>
    <path fill="#FFD037" d="M269.469 318.425c0 1.222.136 2.21.306 2.21.17 0 .306-.988.306-2.21s-.174-.643-.34-.643c-.166 0-.272-.574-.272.643Z"/>
    <path fill="#FFD037" d="M267.78 319.877c1.072.583 2.004.936 2.084.787.081-.149-.723-.74-1.79-1.324-1.068-.583-.647-.157-.727 0-.081.158-.634-.042.433.537Z"/>
    <path fill="#A8A8A8" d="M270.311 335.147s7.396-.23 9.625-1.818c2.228-1.588 11.372-3.482 11.908-.936.536 2.546 11.109 12.669 2.765 12.737-8.345.068-19.398-1.302-21.623-2.661-2.224-1.358-2.675-7.322-2.675-7.322Z"/>
    <path fill="#000" d="M294.775 344.24c-8.349.069-19.399-1.298-21.623-2.656-1.701-1.03-2.369-4.738-2.594-6.445h-.247s.468 5.96 2.692 7.322c2.225 1.362 13.274 2.729 21.623 2.661 2.407-.022 3.241-.877 3.194-2.15-.332.775-1.255 1.256-3.045 1.268Z" opacity=".2"/>
    <path fill="#9333EA" d="M256.055 340.579a3.94 3.94 0 0 0 1.276-1.949c.166-.771-.166-1.703-.902-1.98-.85-.319-1.701.255-2.382.851-.68.596-1.441 1.244-2.317 1.12.451-.409.789-.929.979-1.508a3.519 3.519 0 0 0 .109-1.795 1.38 1.38 0 0 0-.302-.673c-.459-.49-1.276-.277-1.841.111-1.748 1.23-2.237 3.605-2.246 5.747-.178-.771-.03-1.575-.034-2.367-.004-.792-.221-1.669-.889-2.095a2.634 2.634 0 0 0-1.352-.319c-.787-.03-1.663.047-2.199.626-.668.715-.493 1.915.085 2.699.578.783 1.463 1.277 2.275 1.826a4.977 4.977 0 0 1 1.625 1.554c.052.087.093.18.123.277h4.93a13.68 13.68 0 0 0 3.062-2.125Z"/>
    <path stroke="#535461" stroke-miterlimit="10" stroke-width="2" d="M222.643 337.816s-4.73-16.062.884-27.884a25.393 25.393 0 0 0 2.038-15.917 43.178 43.178 0 0 0-2.25-7.472"/>
    <path fill="#9333EA" d="M226.841 279.072c0 1.967-3.564 7.663-3.564 7.663s-3.56-5.709-3.56-7.663a3.57 3.57 0 0 1 3.562-3.444 3.57 3.57 0 0 1 3.562 3.444Zm5.864 10.903c-1.071 1.656-7.157 4.508-7.157 4.508s.11-6.73 1.178-8.382a3.559 3.559 0 0 1 6.472 1.19c.198.925.021 1.89-.493 2.684Zm-.259 18.633c-1.757.89-8.451.277-8.451.277s3.488-5.756 5.244-6.641a3.558 3.558 0 0 1 5.154 2.917c.035.467-.022.936-.169 1.38a3.547 3.547 0 0 1-1.778 2.067Zm-3.364 14.057c-1.582 1.171-8.285 1.703-8.285 1.703s2.467-6.262 4.049-7.433a3.563 3.563 0 0 1 4.991.739 3.57 3.57 0 0 1 .664 2.651 3.57 3.57 0 0 1-1.402 2.345l-.017-.005Zm-11.011-27.799c1.408 1.371 7.983 2.793 7.983 2.793s-1.612-6.535-3.02-7.906a3.566 3.566 0 0 0-2.54-1.038 3.566 3.566 0 0 0-3.531 3.634c.01.472.112.936.302 1.368.191.431.464.82.806 1.145v.004Zm-3.73 16.497c1.756.89 8.451.277 8.451.277s-3.488-5.756-5.244-6.642a3.581 3.581 0 0 0-2.726-.199 3.571 3.571 0 0 0-.481 6.585v-.021Zm-1.429 16.509c1.582 1.171 8.285 1.703 8.285 1.703s-2.467-6.263-4.049-7.433a3.554 3.554 0 0 0-2.647-.666 3.556 3.556 0 0 0-2.938 2.661 3.562 3.562 0 0 0 .398 2.702c.241.402.558.753.934 1.033h.017Z"/>
    <path fill="#9333EA" d="M226.841 279.072c0 1.967-3.564 7.663-3.564 7.663s-3.56-5.709-3.56-7.663a3.57 3.57 0 0 1 3.562-3.444 3.57 3.57 0 0 1 3.562 3.444Zm5.864 10.903c-1.071 1.656-7.157 4.508-7.157 4.508s.11-6.73 1.178-8.382a3.559 3.559 0 0 1 6.472 1.19c.198.925.021 1.89-.493 2.684Zm-.259 18.633c-1.757.89-8.451.277-8.451.277s3.488-5.756 5.244-6.641a3.558 3.558 0 0 1 5.154 2.917c.035.467-.022.936-.169 1.38a3.547 3.547 0 0 1-1.778 2.067Zm-3.364 14.057c-1.582 1.171-8.285 1.703-8.285 1.703s2.467-6.262 4.049-7.433a3.563 3.563 0 0 1 4.991.739 3.57 3.57 0 0 1 .664 2.651 3.57 3.57 0 0 1-1.402 2.345l-.017-.005Zm-11.011-27.799c1.408 1.371 7.983 2.793 7.983 2.793s-1.612-6.535-3.02-7.906a3.566 3.566 0 0 0-2.54-1.038 3.566 3.566 0 0 0-3.531 3.634c.01.472.112.936.302 1.368.191.431.464.82.806 1.145v.004Zm-3.73 16.497c1.756.89 8.451.277 8.451.277s-3.488-5.756-5.244-6.642a3.581 3.581 0 0 0-2.726-.199 3.571 3.571 0 0 0-.481 6.585v-.021Zm-1.429 16.509c1.582 1.171 8.285 1.703 8.285 1.703s-2.467-6.263-4.049-7.433a3.554 3.554 0 0 0-2.647-.666 3.556 3.556 0 0 0-2.938 2.661 3.562 3.562 0 0 0 .398 2.702c.241.402.558.753.934 1.033h.017Z"/>
    <path fill="#A8A8A8" d="M211.47 336.803s5.754-1.145 7.29-2.669c1.535-1.524 8.442-4.193 9.208-2.29.765 1.903 10.36 8.391 3.827 9.536-6.532 1.145-15.345 1.524-17.263.762-1.918-.762-3.062-5.339-3.062-5.339Z"/>
    <path fill="#000" d="M231.808 340.669c-6.524 1.145-15.349 1.524-17.267.762-1.463-.579-2.476-3.372-2.88-4.683l-.191.043s1.153 4.576 3.071 5.338c1.918.762 10.743.379 17.267-.762 1.88-.332 2.42-1.107 2.216-2.09-.162.655-.804 1.145-2.216 1.392Z" opacity=".2"/>
  </g>
  <defs>
    <linearGradient id="c" x1="378.887" x2="378.887" y1="361.967" y2="139.813" gradientUnits="userSpaceOnUse">
      <stop stop-color="gray" stop-opacity=".25"/>
      <stop offset=".54" stop-color="gray" stop-opacity=".12"/>
      <stop offset="1" stop-color="gray" stop-opacity=".1"/>
    </linearGradient>
    <linearGradient id="d" x1="77.992" x2="196.529" y1="246.722" y2="246.722" gradientUnits="userSpaceOnUse">
      <stop stop-color="gray" stop-opacity=".25"/>
      <stop offset=".54" stop-color="gray" stop-opacity=".12"/>
      <stop offset="1" stop-color="gray" stop-opacity=".1"/>
    </linearGradient>
    <linearGradient id="e" x1="126.158" x2="126.69" y1="256.173" y2="256.173" gradientUnits="userSpaceOnUse">
      <stop stop-color="gray" stop-opacity=".25"/>
      <stop offset=".54" stop-color="gray" stop-opacity=".12"/>
      <stop offset="1" stop-color="gray" stop-opacity=".1"/>
    </linearGradient>
    <linearGradient id="f" x1="126.575" x2="127.107" y1="256.586" y2="256.586" gradientUnits="userSpaceOnUse">
      <stop stop-color="gray" stop-opacity=".25"/>
      <stop offset=".54" stop-color="gray" stop-opacity=".12"/>
      <stop offset="1" stop-color="gray" stop-opacity=".1"/>
    </linearGradient>
    <linearGradient id="g" x1="126.575" x2="127.107" y1="256.173" y2="256.173" gradientUnits="userSpaceOnUse">
      <stop stop-color="gray" stop-opacity=".25"/>
      <stop offset=".54" stop-color="gray" stop-opacity=".12"/>
      <stop offset="1" stop-color="gray" stop-opacity=".1"/>
    </linearGradient>
    <clipPath id="a">
      <path fill="#fff" d="M0 0h486v369H0z"/>
    </clipPath>
    <clipPath id="b">
      <path fill="#fff" d="M0 0h486v369H0z"/>
    </clipPath>
  </defs>
</svg>
