<svg viewBox="0 0 23 24" fill="none" xmlns="http://www.w3.org/2000/svg">
<path d="M5.647 0V2.824H4.234V5.647H2.824V8.47096H1.412V11.294H0V14.118H8.47V16.941H7.059V19.765H5.647V22.588H7.059V21.176H8.47V19.765H9.882V18.353H11.294V16.94H12.706V15.53H14.118V14.119H15.529V12.707H16.941V11.295H18.353V9.882H19.765V8.47096H21.176V7.059H16.941V5.647H18.353V4.235H19.765V2.824H21.176V1.412H22.588V0H5.647ZM5.647 22.588H4.234V24H5.646L5.647 22.588ZM7.059 2.824H16.941V4.235H15.529V5.647H14.118V7.06H12.706V8.47H11.294V9.88096H12.706V11.293H11.294V9.882H9.882V11.294H8.47V9.882H7.059V11.294H5.647V9.882H4.234V8.47096H5.646V5.647H7.058L7.059 2.824ZM5.647 8.47V9.88096H7.059V8.47096L5.647 8.47ZM8.47 9.88096H9.882V8.47096H8.47V9.88096ZM14.118 9.88096H15.529V11.293H14.118V9.88096Z" fill="black"/>
</svg>
