<svg width="22" height="16" viewBox="0 0 22 16" fill="none" xmlns="http://www.w3.org/2000/svg">
<g clip-path="url(#clip0_18_2285)">
<path fill-rule="evenodd" clip-rule="evenodd" d="M9.24435 1.20957L8.70891 0.830913C7.9448 0.290229 7.03178 -8.39022e-05 6.09573 1.81889e-08H5.44297C5.01099 1.81889e-08 4.57582 0.0266659 4.16944 0.170662C1.62773 1.07304 -0.12044 4.36789 0.00648632 11.8429C0.0320848 13.349 0.384064 15.013 1.74292 15.6625C2.20646 15.8854 2.71437 16.0006 3.2287 15.9996C3.8068 16.0091 4.37472 15.8469 4.8606 15.5335C5.29791 15.2476 5.68189 14.8764 6.06587 14.5052C6.53944 14.0466 7.01301 13.5879 7.58471 13.2914C8.20758 12.9684 8.89895 12.7997 9.6006 12.7997H11.7327C12.4346 12.7997 13.1257 12.9682 13.7486 13.2903C14.3203 13.5879 14.7939 14.0466 15.2685 14.5052C15.6525 14.8764 16.0365 15.2476 16.4717 15.5335C16.8876 15.8065 17.4263 15.9996 18.1046 15.9996C18.619 16.0006 19.1269 15.8854 19.5904 15.6625C20.9493 15.013 21.3012 13.3479 21.3268 11.8429C21.4538 4.36789 19.7056 1.07304 17.1639 0.171729C16.7564 0.0266658 16.3191 1.81889e-08 15.8893 1.81889e-08H15.2365C14.3004 0.000157731 13.3873 0.290854 12.6234 0.83198L12.0879 1.20957C11.6722 1.50372 11.1754 1.66168 10.6661 1.66168C10.1568 1.66168 9.6601 1.50372 9.24435 1.20957ZM15.7325 4.26656C15.9447 4.26656 16.1481 4.35085 16.2982 4.50087C16.4482 4.6509 16.5325 4.85437 16.5325 5.06654C16.5325 5.27871 16.4482 5.48219 16.2982 5.63221C16.1481 5.78224 15.9447 5.86652 15.7325 5.86652C15.5203 5.86652 15.3169 5.78224 15.1669 5.63221C15.0168 5.48219 14.9326 5.27871 14.9326 5.06654C14.9326 4.85437 15.0168 4.6509 15.1669 4.50087C15.3169 4.35085 15.5203 4.26656 15.7325 4.26656ZM5.86641 4.53322C6.07857 4.53322 6.28204 4.61751 6.43206 4.76753C6.58208 4.91756 6.66637 5.12103 6.66637 5.3332V6.13318H7.46632C7.67848 6.13318 7.88195 6.21747 8.03197 6.36749C8.18199 6.51752 8.26627 6.721 8.26627 6.93316C8.26627 7.14533 8.18199 7.34881 8.03197 7.49883C7.88195 7.64886 7.67848 7.73314 7.46632 7.73314H6.66637V8.53312C6.66637 8.74529 6.58208 8.94877 6.43206 9.09879C6.28204 9.24882 6.07857 9.3331 5.86641 9.3331C5.65425 9.3331 5.45078 9.24882 5.30076 9.09879C5.15074 8.94877 5.06646 8.74529 5.06646 8.53312V7.73314H4.2665C4.05434 7.73314 3.85087 7.64886 3.70085 7.49883C3.55083 7.34881 3.46655 7.14533 3.46655 6.93316C3.46655 6.721 3.55083 6.51752 3.70085 6.36749C3.85087 6.21747 4.05434 6.13318 4.2665 6.13318H5.06646V5.3332C5.06646 5.12103 5.15074 4.91756 5.30076 4.76753C5.45078 4.61751 5.65425 4.53322 5.86641 4.53322ZM18.1324 6.6665C18.1324 6.87867 18.0481 7.08215 17.8981 7.23217C17.748 7.3822 17.5446 7.46648 17.3324 7.46648C17.1203 7.46648 16.9168 7.3822 16.7668 7.23217C16.6167 7.08215 16.5325 6.87867 16.5325 6.6665C16.5325 6.45434 16.6167 6.25086 16.7668 6.10083C16.9168 5.95081 17.1203 5.86652 17.3324 5.86652C17.5446 5.86652 17.748 5.95081 17.8981 6.10083C18.0481 6.25086 18.1324 6.45434 18.1324 6.6665ZM14.1326 7.46648C14.3448 7.46648 14.5482 7.3822 14.6982 7.23217C14.8483 7.08215 14.9326 6.87867 14.9326 6.6665C14.9326 6.45434 14.8483 6.25086 14.6982 6.10083C14.5482 5.95081 14.3448 5.86652 14.1326 5.86652C13.9204 5.86652 13.717 5.95081 13.5669 6.10083C13.4169 6.25086 13.3326 6.45434 13.3326 6.6665C13.3326 6.87867 13.4169 7.08215 13.5669 7.23217C13.717 7.3822 13.9204 7.46648 14.1326 7.46648ZM16.5325 8.26646C16.5325 8.0543 16.4482 7.85082 16.2982 7.70079C16.1481 7.55077 15.9447 7.46648 15.7325 7.46648C15.5203 7.46648 15.3169 7.55077 15.1669 7.70079C15.0168 7.85082 14.9326 8.0543 14.9326 8.26646C14.9326 8.47863 15.0168 8.68211 15.1669 8.83214C15.3169 8.98216 15.5203 9.06644 15.7325 9.06644C15.9447 9.06644 16.1481 8.98216 16.2982 8.83214C16.4482 8.68211 16.5325 8.47863 16.5325 8.26646Z" fill="#EEEDEE"/>
</g>
<defs>
<clipPath id="clip0_18_2285">
<rect width="21.3333" height="16" fill="white"/>
</clipPath>
</defs>
</svg>
