<svg viewBox="0 0 312 159" fill="none" xmlns="http://www.w3.org/2000/svg">
<path d="M307.601 158.758H4.39919C1.95519 158.758 0 156.802 0 154.358C0 151.914 1.95519 149.959 4.39919 149.959H307.601C310.045 149.959 312 151.914 312 154.358C312 156.802 310.045 158.758 307.601 158.758Z" fill="#C9C9C9"/>
<path d="M61.442 113.299C56.7495 113.299 52.9858 109.487 52.9858 104.843C52.9858 100.2 56.7984 96.387 61.442 96.387H109.344V113.348H61.442V113.299Z" fill="#CECECE"/>
<path d="M112.13 116.232H61.442C55.1365 116.232 50.053 111.1 50.053 104.843C50.053 98.5376 55.1854 93.4541 61.442 93.4541H112.13V116.232Z" fill="white"/>
<path d="M58.3137 102.204H109.344" stroke="#1F3969" stroke-width="4" stroke-miterlimit="10" stroke-linecap="round" stroke-linejoin="round"/>
<path d="M58.3137 107.385H109.344" stroke="#1F3969" stroke-width="4" stroke-miterlimit="10" stroke-linecap="round" stroke-linejoin="round"/>
<path d="M61.442 113.299C56.7495 113.299 52.9858 109.487 52.9858 104.843C52.9858 100.2 56.7984 96.387 61.442 96.387H109.344V113.348H61.442V113.299Z" stroke="#1F3969" stroke-width="4" stroke-miterlimit="10" stroke-linecap="round" stroke-linejoin="round"/>
<path d="M61.442 113.299C56.7495 113.299 52.9858 109.487 52.9858 104.843C52.9858 100.2 56.7984 96.3869 61.442 96.3869H110.175L112.13 93.4541H61.442C55.1365 93.4541 50.053 98.5865 50.053 104.843C50.053 111.149 55.1854 116.232 61.442 116.232H112.13L110.175 113.299H61.442Z" fill="#FF3E3E"/>
<path d="M61.442 113.299C56.7495 113.299 52.9858 109.487 52.9858 104.843C52.9858 100.2 56.7984 96.3869 61.442 96.3869H110.175L112.13 93.4541H61.442C55.1365 93.4541 50.053 98.5865 50.053 104.843C50.053 111.149 55.1854 116.232 61.442 116.232H112.13L110.175 113.299H61.442Z" stroke="#1F3969" stroke-width="4" stroke-miterlimit="10" stroke-linecap="round" stroke-linejoin="round"/>
<path opacity="0.28" d="M101.23 93.4053H92.2363V116.232H101.23V93.4053Z" fill="#1F3969" stroke="#1F3969" stroke-width="4" stroke-miterlimit="10" stroke-linecap="round" stroke-linejoin="round"/>
<path d="M106.9 135.051H14.0774C12.2689 135.051 10.7536 133.585 10.7536 131.727V119.507C10.7536 117.699 12.22 116.183 14.0774 116.183H106.9C108.709 116.183 110.224 117.65 110.224 119.507V131.727C110.224 133.585 108.758 135.051 106.9 135.051Z" fill="#DC4936"/>
<path d="M106.9 135.051H14.0774C12.2689 135.051 10.7536 133.585 10.7536 131.727V119.507C10.7536 117.699 12.22 116.183 14.0774 116.183H106.9C108.709 116.183 110.224 117.65 110.224 119.507V131.727C110.224 133.585 108.758 135.051 106.9 135.051Z" fill="#DC4936" stroke="#1F3969" stroke-width="4" stroke-miterlimit="10" stroke-linecap="round" stroke-linejoin="round"/>
<path opacity="0.28" d="M106.9 116.232H92.2363V123.564C92.2363 128.159 95.9511 131.923 100.595 131.923H110.224C110.224 131.874 110.224 131.825 110.224 131.776V119.556C110.224 117.699 108.758 116.232 106.9 116.232Z" fill="#1F3969" stroke="#1F3969" stroke-width="4" stroke-miterlimit="10" stroke-linecap="round" stroke-linejoin="round"/>
<path d="M133.051 138.864H25.5153C26.1508 140.428 26.4929 142.383 26.4929 144.436C26.4929 146.489 26.1508 148.395 25.5153 150.008H133.002C132.367 148.444 132.024 146.489 132.024 144.436C132.073 142.334 132.416 140.428 133.051 138.864Z" fill="#CECECE"/>
<path d="M135.984 135.882H22.6314V138.815H135.984V135.882Z" fill="#5F5AFF"/>
<path d="M135.984 135.882H22.6314V138.815H135.984V135.882Z" stroke="#1F3969" stroke-width="4" stroke-miterlimit="10" stroke-linecap="round" stroke-linejoin="round"/>
<path d="M135.984 149.959H22.6314V152.892H135.984V149.959Z" fill="#F6F9FD"/>
<path d="M135.984 149.959H22.6314V152.892H135.984V149.959Z" fill="#5F5AFF"/>
<path d="M135.984 149.959H22.6314V152.892H135.984V149.959Z" stroke="#1F3969" stroke-width="4" stroke-miterlimit="10" stroke-linecap="round" stroke-linejoin="round"/>
<path d="M192.293 142.481L190.827 126.008H166.68L165.214 142.481C164.872 146.293 162.574 149.959 158.957 152.892V152.941H198.55V152.892C194.933 149.959 192.635 146.293 192.293 142.481Z" fill="#BFCFE2"/>
<path opacity="0.28" d="M166.68 126.008L165.8 135.882H191.707L190.827 126.008H166.68Z" fill="#1F3969" stroke="#1F3969" stroke-width="4" stroke-miterlimit="10" stroke-linecap="round" stroke-linejoin="round"/>
<path d="M192.293 142.481L190.827 126.008H166.68L165.214 142.481C164.872 146.293 162.574 149.959 158.957 152.892V152.941H198.55V152.892C194.933 149.959 192.635 146.293 192.293 142.481Z" stroke="#1F3969" stroke-width="4" stroke-miterlimit="10" stroke-linecap="round" stroke-linejoin="round"/>
<path d="M255.984 128.452H101.523C98.2974 128.452 95.6579 125.813 95.6579 122.587V21.8941C95.6579 18.6681 98.2974 16.0286 101.523 16.0286H255.984C259.21 16.0286 261.849 18.6681 261.849 21.8941V122.587C261.849 125.862 259.21 128.452 255.984 128.452Z" fill="white"/>
<path d="M255.984 128.452H101.523C98.2974 128.452 95.6579 125.813 95.6579 122.587V21.8941C95.6579 18.6681 98.2974 16.0286 101.523 16.0286H255.984C259.21 16.0286 261.849 18.6681 261.849 21.8941V122.587C261.849 125.862 259.21 128.452 255.984 128.452Z" fill="#BFCFE2"/>
<path d="M255.984 128.452H101.523C98.2974 128.452 95.6579 125.813 95.6579 122.587V21.8941C95.6579 18.6681 98.2974 16.0286 101.523 16.0286H255.984C259.21 16.0286 261.849 18.6681 261.849 21.8941V122.587C261.849 125.862 259.21 128.452 255.984 128.452Z" stroke="#1F3969" stroke-width="4" stroke-miterlimit="10" stroke-linecap="round" stroke-linejoin="round"/>
<path d="M253.567 109.696L253.567 24.3518L103.995 24.3518L103.995 109.696L253.567 109.696Z" fill="#EEEDEE"/>
<path opacity="0.28" d="M109.344 16.0286V83.776C109.344 85.9268 111.104 87.6864 113.255 87.6864H205.686C207.837 87.6864 209.597 85.9268 209.597 83.776V16.0286H109.344Z" fill="#1F3969" stroke="#1F3969" stroke-width="4" stroke-miterlimit="10" stroke-linecap="round" stroke-linejoin="round"/>
<path d="M253.567 109.696L253.567 24.3518L103.995 24.3518L103.995 109.696L253.567 109.696Z" stroke="#1F3969" stroke-width="4" stroke-miterlimit="10" stroke-linecap="round" stroke-linejoin="round"/>
<path d="M172.204 119.018H185.352" stroke="#1F3969" stroke-width="4" stroke-miterlimit="10" stroke-linecap="round" stroke-linejoin="round"/>
<path d="M210.086 82.3098H117.654C115.503 82.3098 113.743 80.5501 113.743 78.3994V5.95946C113.743 3.80875 115.503 2.04907 117.654 2.04907H210.086C212.236 2.04907 213.996 3.80875 213.996 5.95946V78.4482C213.996 80.599 212.236 82.3098 210.086 82.3098Z" fill="#2D425E"/>
<path d="M213.996 11.5316H113.743V5.91039C113.743 3.75967 115.503 2 117.654 2H210.086C212.236 2 213.996 3.75967 213.996 5.91039V11.5316Z" stroke="#1F3969" stroke-width="4" stroke-miterlimit="10" stroke-linecap="round" stroke-linejoin="round"/>
<path d="M213.996 13.389H113.743V5.91039C113.743 3.75967 115.503 2 117.654 2H210.086C212.236 2 213.996 3.75967 213.996 5.91039V13.389Z" fill="#D0DDF0"/>
<path d="M213.996 13.389H113.743V5.91039C113.743 3.75967 115.503 2 117.654 2H210.086C212.236 2 213.996 3.75967 213.996 5.91039V13.389Z" stroke="#1F3969" stroke-width="4" stroke-miterlimit="10" stroke-linecap="round" stroke-linejoin="round"/>
<path d="M213.996 13.389H113.743V5.91039C113.743 3.75967 115.503 2 117.654 2H210.086C212.236 2 213.996 3.75967 213.996 5.91039V13.389Z" stroke="#1F3969" stroke-width="4" stroke-miterlimit="10" stroke-linecap="round" stroke-linejoin="round"/>
<path d="M210.086 82.3098H117.654C115.503 82.3098 113.743 80.5501 113.743 78.3994V5.95946C113.743 3.80875 115.503 2.04907 117.654 2.04907H210.086C212.236 2.04907 213.996 3.80875 213.996 5.95946V78.4482C213.996 80.599 212.236 82.3098 210.086 82.3098Z" stroke="#1F3969" stroke-width="4" stroke-miterlimit="10" stroke-linecap="round" stroke-linejoin="round"/>
<path opacity="0.28" d="M258.33 99.6131H201.629C199.479 99.6131 197.719 97.8534 197.719 95.7027V35.6294C197.719 33.4787 199.479 31.719 201.629 31.719H258.33C260.481 31.719 262.24 33.4787 262.24 35.6294V95.7027C262.24 97.9023 260.481 99.6131 258.33 99.6131Z" fill="#1F3969" stroke="#1F3969" stroke-width="4" stroke-miterlimit="10" stroke-linecap="round" stroke-linejoin="round"/>
<path d="M262.24 96.1915H205.54C203.389 96.1915 201.629 94.4318 201.629 92.2811V32.2078C201.629 30.057 203.389 28.2974 205.54 28.2974H262.24C264.391 28.2974 266.151 30.057 266.151 32.2078V92.2811C266.151 94.4807 264.391 96.1915 262.24 96.1915Z" fill="#E57567"/>
<path d="M262.24 96.1915H205.54C203.389 96.1915 201.629 94.4318 201.629 92.2811V32.2078C201.629 30.057 203.389 28.2974 205.54 28.2974H262.24C264.391 28.2974 266.151 30.057 266.151 32.2078V92.2811C266.151 94.4807 264.391 96.1915 262.24 96.1915Z" stroke="#1F3969" stroke-width="4" stroke-miterlimit="10" stroke-linecap="round" stroke-linejoin="round"/>
<path opacity="0.34" d="M253.784 46.9206H213.898C212.481 46.9206 211.356 45.7963 211.356 44.3788V40.5662C211.356 39.1487 212.481 38.0244 213.898 38.0244H253.784C255.202 38.0244 256.326 39.1487 256.326 40.5662V44.3788C256.326 45.7963 255.202 46.9206 253.784 46.9206Z" stroke="white" stroke-width="2" stroke-miterlimit="10" stroke-linecap="round" stroke-linejoin="round"/>
<g opacity="0.34">
<path d="M236.285 61.2426H213.996C212.578 61.2426 211.454 60.1183 211.454 58.7008V54.8882C211.454 53.4707 212.578 52.3464 213.996 52.3464H236.285C237.703 52.3464 238.827 53.4707 238.827 54.8882V58.7008C238.778 60.1183 237.654 61.2426 236.285 61.2426Z" stroke="white" stroke-width="2" stroke-miterlimit="10" stroke-linecap="round" stroke-linejoin="round"/>
<path d="M253.833 61.2426H245.181C243.764 61.2426 242.64 60.1183 242.64 58.7008V54.8882C242.64 53.4707 243.764 52.3464 245.181 52.3464H253.833C255.251 52.3464 256.375 53.4707 256.375 54.8882V58.7008C256.375 60.1183 255.251 61.2426 253.833 61.2426Z" stroke="white" stroke-width="2" stroke-miterlimit="10" stroke-linecap="round" stroke-linejoin="round"/>
</g>
<path d="M211.405 76.1018H256.326" stroke="white" stroke-width="2" stroke-miterlimit="10" stroke-linecap="round" stroke-linejoin="round"/>
<path d="M211.405 81.3809H256.326" stroke="white" stroke-width="2" stroke-miterlimit="10" stroke-linecap="round" stroke-linejoin="round"/>
<path d="M211.405 86.6599H238.778" stroke="white" stroke-width="2" stroke-miterlimit="10" stroke-linecap="round" stroke-linejoin="round"/>
<path d="M123.568 9.67406C124.648 9.67406 125.523 8.79869 125.523 7.71887C125.523 6.63904 124.648 5.76367 123.568 5.76367C122.488 5.76367 121.613 6.63904 121.613 7.71887C121.613 8.79869 122.488 9.67406 123.568 9.67406Z" fill="#1F3969"/>
<path d="M130.363 9.67406C131.442 9.67406 132.318 8.79869 132.318 7.71887C132.318 6.63904 131.442 5.76367 130.363 5.76367C129.283 5.76367 128.407 6.63904 128.407 7.71887C128.407 8.79869 129.283 9.67406 130.363 9.67406Z" fill="#1F3969"/>
<path d="M137.157 9.67406C138.237 9.67406 139.112 8.79869 139.112 7.71887C139.112 6.63904 138.237 5.76367 137.157 5.76367C136.077 5.76367 135.202 6.63904 135.202 7.71887C135.202 8.79869 136.077 9.67406 137.157 9.67406Z" fill="#1F3969"/>
<path d="M171.324 22.4319H177.678" stroke="white" stroke-width="4" stroke-miterlimit="10" stroke-linecap="round" stroke-linejoin="round"/>
<path d="M139.112 22.4319H166.631" stroke="#7BFFA0" stroke-width="4" stroke-miterlimit="10" stroke-linecap="round" stroke-linejoin="round"/>
<path d="M125.523 22.4319H135.202" stroke="#9169FF" stroke-width="4" stroke-miterlimit="10" stroke-linecap="round" stroke-linejoin="round"/>
<path d="M138.134 70.5784H159.153" stroke="#9169FF" stroke-width="4" stroke-miterlimit="10" stroke-linecap="round" stroke-linejoin="round"/>
<path d="M125.523 70.5784H132.318" stroke="#7BFFA0" stroke-width="4" stroke-miterlimit="10" stroke-linecap="round" stroke-linejoin="round"/>
<path d="M166.631 28.4438H170.591" stroke="white" stroke-width="4" stroke-miterlimit="10" stroke-linecap="round" stroke-linejoin="round"/>
<path d="M148.644 28.4438H161.939" stroke="#9169FF" stroke-width="4" stroke-miterlimit="10" stroke-linecap="round" stroke-linejoin="round"/>
<path d="M130.363 28.4438H143.902" stroke="#FFC47D" stroke-width="4" stroke-miterlimit="10" stroke-linecap="round" stroke-linejoin="round"/>
<path d="M151.332 34.4563H163.014" stroke="white" stroke-width="4" stroke-miterlimit="10" stroke-linecap="round" stroke-linejoin="round"/>
<path d="M136.668 34.4563H147.666" stroke="#FF5757" stroke-width="4" stroke-miterlimit="10" stroke-linecap="round" stroke-linejoin="round"/>
<path d="M152.896 40.4685H155.291" stroke="white" stroke-width="4" stroke-miterlimit="10" stroke-linecap="round" stroke-linejoin="round"/>
<path d="M143.218 40.4685H148.644" stroke="#9169FF" stroke-width="4" stroke-miterlimit="10" stroke-linecap="round" stroke-linejoin="round"/>
<path d="M130.363 40.4685H139.112" stroke="#7BFFA0" stroke-width="4" stroke-miterlimit="10" stroke-linecap="round" stroke-linejoin="round"/>
<path d="M149.132 46.5295H164.725" stroke="#FFC47D" stroke-width="4" stroke-miterlimit="10" stroke-linecap="round" stroke-linejoin="round"/>
<path d="M130.363 46.5295H144.342" stroke="#FF5757" stroke-width="4" stroke-miterlimit="10" stroke-linecap="round" stroke-linejoin="round"/>
<path d="M167.169 52.5417H175.625" stroke="#9169FF" stroke-width="4" stroke-miterlimit="10" stroke-linecap="round" stroke-linejoin="round"/>
<path d="M149.132 52.5417H162.672" stroke="#FF5757" stroke-width="4" stroke-miterlimit="10" stroke-linecap="round" stroke-linejoin="round"/>
<path d="M136.668 52.5417H144.342" stroke="#7BFFA0" stroke-width="4" stroke-miterlimit="10" stroke-linecap="round" stroke-linejoin="round"/>
<path d="M155.291 58.554H162.672" stroke="white" stroke-width="4" stroke-miterlimit="10" stroke-linecap="round" stroke-linejoin="round"/>
<path d="M136.668 58.554H150.208" stroke="#9169FF" stroke-width="4" stroke-miterlimit="10" stroke-linecap="round" stroke-linejoin="round"/>
<path d="M174.501 64.5662H182.957" stroke="white" stroke-width="4" stroke-miterlimit="10" stroke-linecap="round" stroke-linejoin="round"/>
<path d="M148.644 64.5662H169.906" stroke="#FFC47D" stroke-width="4" stroke-miterlimit="10" stroke-linecap="round" stroke-linejoin="round"/>
<path d="M130.363 64.5662H143.902" stroke="white" stroke-width="4" stroke-miterlimit="10" stroke-linecap="round" stroke-linejoin="round"/>
<path d="M26.7372 142.236H132.073" stroke="#1F3969" stroke-width="4" stroke-miterlimit="10" stroke-linecap="round" stroke-linejoin="round"/>
<path d="M26.7372 146.147H132.073" stroke="#1F3969" stroke-width="4" stroke-miterlimit="10" stroke-linecap="round" stroke-linejoin="round"/>
<path d="M133.051 138.864H25.5153C26.1508 140.428 26.4929 142.383 26.4929 144.436C26.4929 146.489 26.1508 148.395 25.5153 150.008H133.002C132.367 148.444 132.024 146.489 132.024 144.436C132.073 142.334 132.416 140.428 133.051 138.864Z" stroke="#1F3969" stroke-width="4" stroke-miterlimit="10" stroke-linecap="round" stroke-linejoin="round"/>
<path d="M277.71 99.0123L272.953 99.5708L277.091 134.816L281.848 134.258L277.71 99.0123Z" fill="#FFA364"/>
<path d="M277.717 99.0499L272.959 99.6084L273.381 103.201L278.139 102.642L277.717 99.0499Z" fill="#2AA1FF"/>
<path d="M277.717 99.0499L272.959 99.6084L273.381 103.201L278.139 102.642L277.717 99.0499Z" stroke="#1F3969" stroke-width="4" stroke-miterlimit="10" stroke-linecap="round" stroke-linejoin="round"/>
<path d="M277.71 99.0123L272.953 99.5708L277.091 134.816L281.848 134.258L277.71 99.0123Z" stroke="#1F3969" stroke-width="4" stroke-miterlimit="10" stroke-linecap="round" stroke-linejoin="round"/>
<path d="M290.756 106.232L285.994 105.714L282.158 140.991L286.92 141.509L290.756 106.232Z" fill="#FF5252"/>
<path d="M290.756 106.232L285.994 105.714L282.158 140.991L286.92 141.509L290.756 106.232Z" stroke="#1F3969" stroke-width="4" stroke-miterlimit="10" stroke-linecap="round" stroke-linejoin="round"/>
<path d="M290.792 106.24L286.03 105.722L285.639 109.318L290.401 109.836L290.792 106.24Z" fill="#2D425E"/>
<path d="M290.792 106.24L286.03 105.722L285.639 109.318L290.401 109.836L290.792 106.24Z" stroke="#1F3969" stroke-width="4" stroke-miterlimit="10" stroke-linecap="round" stroke-linejoin="round"/>
<path d="M293.719 153.039H274.509L271.381 123.613H296.847L293.719 153.039Z" fill="#6567C3"/>
<path d="M271.381 123.613L271.43 124.151H290.835L287.756 153.039H293.719L296.847 123.613H271.381Z" fill="#6567C3"/>
<path d="M293.719 153.039H274.509L271.381 123.613H296.847L293.719 153.039Z" stroke="#1F3969" stroke-width="4" stroke-miterlimit="10" stroke-linecap="round" stroke-linejoin="round"/>
</svg>
