<svg xmlns="http://www.w3.org/2000/svg" width="445" height="304" fill="none" viewBox="0 0 445 304">
  <g clip-path="url(#a)">
    <path fill="#F0F0F0" d="M30.07 233.419C15.05 227.957 2.01 214.89.356 198.998a73.662 73.662 0 0 0 49.286 11.281c6.648-.861 13.952-2.512 19.64 1.033 3.54 2.206 5.738 6.122 6.746 10.168 1.008 4.046.963 8.27.911 12.439l.468.93c-15.69 3.045-32.316 4.032-47.337-1.43Z"/>
    <path fill="#fff" d="M.682 198.919a62.944 62.944 0 0 0 31.038 23.154 27.124 27.124 0 0 0 8.342 1.594 15.55 15.55 0 0 0 7.892-2.158c2.255-1.271 4.415-2.832 6.94-3.533a9.527 9.527 0 0 1 7.68 1.281c2.832 1.778 4.856 4.467 6.744 7.165 2.097 2.996 4.227 6.141 7.5 7.96.396.22.031.822-.365.602-5.694-3.164-7.802-9.876-12.649-13.956-2.261-1.904-5.11-3.139-8.1-2.523-2.613.538-4.842 2.145-7.114 3.452a16.59 16.59 0 0 1-7.639 2.398 25.057 25.057 0 0 1-8.372-1.268 61.056 61.056 0 0 1-17.094-8.488A64.052 64.052 0 0 1 .063 199.255c-.262-.369.36-.703.62-.336Z"/>
    <path fill="#fff" d="M27.606 220.937a9.444 9.444 0 0 1-11.248 4.797c-.432-.136-.241-.814.192-.678a8.742 8.742 0 0 0 10.454-4.484c.2-.406.802-.039.602.365Zm19.289 1.367a18.195 18.195 0 0 0-8.404-10.26c-.395-.222-.03-.825.365-.603a18.926 18.926 0 0 1 8.723 10.694c.139.433-.546.599-.684.169Zm-36.592-12.391a5.34 5.34 0 0 0 .88-4.993c-.144-.431.541-.596.685-.169a5.989 5.989 0 0 1-.962 5.527.366.366 0 0 1-.484.119.356.356 0 0 1-.119-.484Z"/>
    <path fill="#F0F0F0" d="M38.267 160.391c.097.267.195.533.298.801a70.419 70.419 0 0 0 4.84 10.339c.143.258.29.518.44.771a74.199 74.199 0 0 0 17.908 20.631 72.08 72.08 0 0 0 9.075 6.126c4.387 2.499 9.342 4.859 12.552 8.551.339.381.654.784.944 1.204l-5.819 25.393c-.042.051-.078.103-.12.155l-.186 1.024-.516-.252c-.099-.047-.197-.1-.296-.147-.065-.033-.13-.067-.192-.093a.824.824 0 0 1-.06-.032c-.06-.026-.115-.057-.17-.082-.979-.492-1.956-.992-2.932-1.5-.005-.001-.005-.001-.01-.008a105.971 105.971 0 0 1-20.831-13.916c-.188-.165-.382-.331-.567-.508a68.721 68.721 0 0 1-7.754-8.111 60.574 60.574 0 0 1-3.611-4.979 50.52 50.52 0 0 1-6.413-14.443c-2.724-10.209-2.15-21.175 3.018-30.235.132-.232.263-.458.401-.689Z"/>
    <path fill="#fff" d="M38.576 160.522a62.907 62.907 0 0 0 10.836 37.168 27.096 27.096 0 0 0 5.7 6.293 15.56 15.56 0 0 0 7.602 3.027c2.567.343 5.231.396 7.67 1.357a9.512 9.512 0 0 1 5.36 5.644c1.19 3.124 1.187 6.489 1.07 9.78-.131 3.654-.324 7.447 1.193 10.869.184.415-.47.676-.654.262-2.64-5.954-.281-12.582-1.694-18.757-.659-2.881-2.19-5.581-4.947-6.889-2.41-1.143-5.159-1.201-7.76-1.526a16.594 16.594 0 0 1-7.543-2.682 25.064 25.064 0 0 1-5.922-6.051 61.041 61.041 0 0 1-8.536-17.065 64.023 64.023 0 0 1-3.072-21.534c.013-.452.71-.345.697.104Z"/>
    <path fill="#fff" d="M46.813 194.307a9.443 9.443 0 0 1-11.87-2.94c-.264-.368.297-.795.56-.426a8.743 8.743 0 0 0 11.048 2.712c.405-.203.664.452.262.654Zm14.577 12.7a18.19 18.19 0 0 0-.53-13.25c-.183-.415.471-.676.654-.261a18.92 18.92 0 0 1 .524 13.789c-.15.428-.797.149-.648-.278Zm-21.754-31.916a5.34 5.34 0 0 0 3.71-3.457c.145-.43.791-.15.648.277a5.985 5.985 0 0 1-4.096 3.834.36.36 0 0 1-.268-.008.36.36 0 0 1-.19-.188.353.353 0 0 1 .196-.458ZM444.532 10.459H344.24v6.45c-.002.33.112.65.321.906-.202 5.04-.321 11.476-.321 18.47v172.429c0 16.162.649 29.312 1.444 29.312h97.404c.796 0 1.444-13.15 1.444-29.312V36.284c0-6.993-.118-13.428-.321-18.47a1.42 1.42 0 0 0 .321-.906v-6.45Z"/>
    <path fill="#E4E4E4" d="M443.088 238.723h-97.404c-.759 0-1.261 0-1.717-9.258-.274-5.556-.425-12.925-.425-20.751V36.284c0-6.758.114-13.328.322-18.497.13-3.104.278-5.59.442-7.391.32-3.525.625-4.12 1.378-4.12h97.404c.753 0 1.058.595 1.379 4.12.163 1.807.312 4.293.441 7.39.208 5.165.322 11.734.322 18.499v172.429c0 7.826-.151 15.196-.425 20.751-.456 9.258-.957 9.258-1.717 9.258Zm-97.008-1.394h96.612c.505-1.906 1.143-12.251 1.143-28.615V36.284c0-6.745-.114-13.294-.32-18.44-.129-3.074-.276-5.537-.438-7.322a20.147 20.147 0 0 0-.391-2.852h-96.599a20 20 0 0 0-.392 2.852c-.161 1.778-.308 4.241-.437 7.322-.207 5.15-.321 11.7-.321 18.44v172.43c0 16.364.638 26.709 1.143 28.615Z"/>
    <path fill="#CACACA" d="M443.088 6.972h-97.404a1.445 1.445 0 0 0-1.444 1.444v8.492a1.448 1.448 0 0 0 1.444 1.443h97.404a1.448 1.448 0 0 0 1.444-1.443V8.416a1.445 1.445 0 0 0-1.444-1.444Z"/>
    <path fill="#fff" d="M352.623 14.297a2.05 2.05 0 1 0 .002-4.1 2.05 2.05 0 0 0-.002 4.1Zm7.783 0a2.05 2.05 0 1 0 0-4.1 2.05 2.05 0 0 0 0 4.1Zm7.783 0a2.05 2.05 0 1 0 0-4.1 2.05 2.05 0 0 0 0 4.1Zm67.276-4.787h-8.963a.665.665 0 0 0-.663.663.57.57 0 0 0 .07.286.657.657 0 0 0 .593.376h8.963a.66.66 0 0 0 .612-.916.651.651 0 0 0-.359-.358.658.658 0 0 0-.253-.05Zm0 2.49h-8.963a.665.665 0 0 0-.663.662.663.663 0 0 0 .663.662h8.963a.662.662 0 0 0 0-1.325Zm0 2.489h-8.963a.665.665 0 0 0-.663.662.663.663 0 0 0 .663.662h8.963a.662.662 0 0 0 0-1.324Z"/>
    <path fill="#9333EA" d="M404.078 36.968h-18.442a3.49 3.49 0 0 0-3.488 3.486v15.967a3.493 3.493 0 0 0 3.488 3.486h18.442a3.5 3.5 0 0 0 3.487-3.486V40.454a3.492 3.492 0 0 0-3.487-3.486Z"/>
    <path fill="#E4E4E4" d="M426.99 70.338h-64.274a1.582 1.582 0 1 0 0 3.166h64.274a1.585 1.585 0 0 0 1.584-1.583 1.583 1.583 0 0 0-1.584-1.583Zm-39.861 7.419h-24.413a1.582 1.582 0 1 0 0 3.166h24.413a1.582 1.582 0 0 0 0-3.166Z"/>
    <path fill="#9333EA" d="M404.078 105.996h-18.442a3.487 3.487 0 0 0-3.488 3.486v15.967a3.491 3.491 0 0 0 3.488 3.486h18.442a3.497 3.497 0 0 0 3.487-3.486v-15.967a3.494 3.494 0 0 0-3.487-3.486Z"/>
    <path fill="#E4E4E4" d="M426.99 139.366h-64.274a1.581 1.581 0 0 0-1.119 2.702c.297.296.699.463 1.119.463h64.274a1.584 1.584 0 0 0 0-3.165Zm-39.861 7.419h-24.413a1.581 1.581 0 0 0-1.119 2.702c.297.296.699.463 1.119.463h24.413a1.585 1.585 0 0 0 1.583-1.583 1.584 1.584 0 0 0-1.583-1.582Z"/>
    <path fill="#9333EA" d="M404.078 175.023h-18.442a3.491 3.491 0 0 0-3.488 3.486v15.967a3.495 3.495 0 0 0 3.488 3.486h18.442a3.493 3.493 0 0 0 3.487-3.486v-15.967a3.49 3.49 0 0 0-3.487-3.486Z"/>
    <path fill="#E4E4E4" d="M426.99 208.393h-64.274a1.582 1.582 0 0 0 0 3.166h64.274a1.584 1.584 0 0 0 0-3.166Zm-39.861 7.419h-24.413a1.582 1.582 0 0 0 0 3.166h24.413a1.582 1.582 0 0 0 0-3.166Z"/>
    <path fill="#fff" d="M316.891 2.14a1.449 1.449 0 0 0-1.444-1.443H57.62a1.447 1.447 0 0 0-1.444 1.444v8.492c-.002.354.13.695.37.955-.23 5.767-.37 13.367-.37 21.692v191.68c0 17.975.648 32.589 1.444 32.589h257.827c.796 0 1.444-14.614 1.444-32.589V33.28c0-8.326-.139-15.925-.369-21.692.239-.26.37-.601.369-.955V2.141Z"/>
    <path fill="#E4E4E4" d="M315.447 258.247H57.62c-.789 0-1.264 0-1.717-10.221-.274-6.174-.425-14.366-.425-23.066V33.28c0-8.024.132-15.737.37-21.72C56.308 0 56.83 0 57.62 0h257.827c.791 0 1.313.002 1.772 11.56.238 5.977.37 13.69.37 21.72v191.68c0 8.701-.151 16.892-.425 23.066-.453 10.221-.928 10.221-1.717 10.221Zm-257.42-1.395H315.04c.571-2.186 1.154-14.461 1.154-31.892V33.28c0-8.011-.131-15.705-.369-21.664-.291-7.323-.63-9.552-.792-10.221H58.034c-.162.669-.501 2.897-.792 10.22-.238 5.966-.369 13.66-.369 21.665v191.68c0 17.431.583 29.706 1.154 31.892Z"/>
    <path fill="#CACACA" d="M315.447.697H57.62a1.447 1.447 0 0 0-1.444 1.444v8.492c-.002.354.13.695.37.955a1.432 1.432 0 0 0 1.074.488h257.827a1.432 1.432 0 0 0 1.075-.488c.239-.26.37-.601.369-.955V2.141a1.446 1.446 0 0 0-1.444-1.444Z"/>
    <path fill="#fff" d="M64.56 8.022a2.05 2.05 0 1 0 0-4.1 2.05 2.05 0 0 0 0 4.1Zm7.782 0a2.05 2.05 0 1 0 0-4.1 2.05 2.05 0 0 0 0 4.1Zm7.783 0a2.05 2.05 0 1 0 0-4.1 2.05 2.05 0 0 0 0 4.1Zm227.699-4.787h-8.963a.665.665 0 0 0-.663.662.663.663 0 0 0 .663.663h8.963a.662.662 0 0 0 0-1.325Zm0 2.489h-8.963a.665.665 0 0 0-.663.663.663.663 0 0 0 .663.662h8.963a.662.662 0 0 0 0-1.325Zm0 2.49h-8.963a.665.665 0 0 0-.663.662.663.663 0 0 0 .663.662h8.963a.662.662 0 0 0 0-1.324Z"/>
    <path fill="#9333EA" d="M140.956 43.243h-30.174a5.713 5.713 0 0 0-5.705 5.704v26.126a5.708 5.708 0 0 0 5.705 5.703h30.174a5.712 5.712 0 0 0 5.705-5.703V48.947a5.709 5.709 0 0 0-5.705-5.704Z"/>
    <path fill="#E4E4E4" d="M265.409 53.346H160.241a2.591 2.591 0 0 0 0 5.181h105.168a2.591 2.591 0 0 0 0-5.18Zm-65.222 12.139h-39.946a2.592 2.592 0 0 0-1.832 4.422 2.591 2.591 0 0 0 1.832.759h39.946a2.591 2.591 0 0 0 0-5.18Z"/>
    <path fill="#9333EA" d="M140.956 112.968h-30.174a5.71 5.71 0 0 0-5.705 5.704v26.125a5.708 5.708 0 0 0 5.705 5.704h30.174a5.71 5.71 0 0 0 5.705-5.704v-26.125a5.71 5.71 0 0 0-5.705-5.704Z"/>
    <path fill="#E4E4E4" d="M265.409 123.071H160.241a2.59 2.59 0 0 0 0 5.181h105.168a2.59 2.59 0 0 0 0-5.181Zm-65.222 12.139h-39.946a2.59 2.59 0 0 0 0 5.181h39.946a2.59 2.59 0 0 0 0-5.181Z"/>
    <path fill="#9333EA" d="M140.956 182.693h-30.174a5.714 5.714 0 0 0-5.705 5.703v26.126a5.708 5.708 0 0 0 5.705 5.704h30.174a5.715 5.715 0 0 0 5.705-5.704v-26.126a5.71 5.71 0 0 0-5.705-5.703Z"/>
    <path fill="#E4E4E4" d="M265.409 192.796H160.241a2.59 2.59 0 0 0 0 5.18h105.168a2.59 2.59 0 1 0 0-5.18Zm-65.222 12.139h-39.946a2.59 2.59 0 0 0 0 5.181h39.946a2.59 2.59 0 0 0 0-5.181Z"/>
    <path fill="#fff" d="M361.484 303.568H188.751c-.797 0-1.444-12.237-1.444-27.279V115.828c0-15.042.647-27.278 1.444-27.278h172.733c.796 0 1.444 12.236 1.444 27.278v160.461c0 15.042-.648 27.279-1.444 27.279Z"/>
    <path fill="#E4E4E4" d="M361.484 304.265H188.751c-.731 0-1.259 0-1.717-8.659-.274-5.17-.425-12.03-.425-19.317v-160.46c0-7.287.151-14.148.425-19.317.458-8.66.986-8.66 1.717-8.66h172.733c.731 0 1.259 0 1.717 8.66.274 5.169.425 12.03.425 19.317v160.46c0 7.287-.151 14.147-.425 19.317-.458 8.659-.986 8.659-1.717 8.659Zm-172.347-1.395h171.961c.5-1.806 1.133-11.43 1.133-26.581v-160.46c0-15.151-.633-24.775-1.133-26.582H189.137c-.501 1.806-1.133 11.431-1.133 26.582v160.46c0 15.151.632 24.775 1.133 26.581Z"/>
    <path fill="#CACACA" d="M361.484 99.93H188.751a1.447 1.447 0 0 1-1.444-1.445v-8.492a1.442 1.442 0 0 1 1.444-1.443h172.733a1.447 1.447 0 0 1 1.444 1.444v8.492a1.446 1.446 0 0 1-1.444 1.443Z"/>
    <path fill="#fff" d="M195.688 95.875a2.05 2.05 0 1 0 0-4.1 2.05 2.05 0 0 0 0 4.1Zm7.782 0a2.05 2.05 0 1 0 .002-4.1 2.05 2.05 0 0 0-.002 4.1Zm7.783 0a2.05 2.05 0 1 0 0-4.1 2.05 2.05 0 0 0 0 4.1Zm142.606-3.46h-8.962a.666.666 0 0 1-.664-.664.665.665 0 0 1 .664-.664h8.962a.665.665 0 0 1 .468 1.132.665.665 0 0 1-.468.196Zm0 2.488h-8.962a.666.666 0 0 1-.664-.663.665.665 0 0 1 .664-.664h8.962a.664.664 0 0 1 0 1.327Zm0 2.489h-8.962a.667.667 0 0 1-.664-.664.665.665 0 0 1 .664-.663h8.962a.665.665 0 0 1 0 1.327Z"/>
    <path fill="#9333EA" d="M241.83 152.639h-22.036a4.17 4.17 0 0 1-4.167-4.166v-19.079a4.17 4.17 0 0 1 4.167-4.165h22.036a4.17 4.17 0 0 1 4.167 4.165v19.079a4.168 4.168 0 0 1-4.167 4.166Z"/>
    <path fill="#E4E4E4" d="M332.716 136.393h-76.801a1.896 1.896 0 0 1-1.892-1.892 1.89 1.89 0 0 1 1.892-1.891h76.801a1.891 1.891 0 1 1 0 3.783Zm-47.631 8.864h-29.17a1.891 1.891 0 1 1 0-3.782h29.17a1.878 1.878 0 0 1 1.34.553c.176.175.316.384.411.614a1.872 1.872 0 0 1 0 1.449 1.898 1.898 0 0 1-1.026 1.023c-.23.095-.476.144-.725.143Z"/>
    <path fill="#9333EA" d="M241.83 209.116h-22.036a4.17 4.17 0 0 1-4.167-4.166v-19.079a4.17 4.17 0 0 1 4.167-4.165h22.036a4.17 4.17 0 0 1 4.167 4.165v19.079a4.17 4.17 0 0 1-4.167 4.166Z"/>
    <path fill="#E4E4E4" d="M332.716 192.87h-76.801a1.896 1.896 0 0 1-1.892-1.892 1.89 1.89 0 0 1 1.892-1.891h76.801a1.891 1.891 0 1 1 0 3.783Zm-47.631 8.865h-29.17a1.896 1.896 0 0 1-1.892-1.892 1.89 1.89 0 0 1 1.892-1.891h29.17a1.897 1.897 0 0 1 1.751 1.167 1.875 1.875 0 0 1 0 1.449 1.888 1.888 0 0 1-1.751 1.167Z"/>
    <path fill="#9333EA" d="M241.83 265.593h-22.036a4.17 4.17 0 0 1-4.167-4.165v-19.079a4.166 4.166 0 0 1 4.167-4.166h22.036a4.17 4.17 0 0 1 4.167 4.166v19.079a4.17 4.17 0 0 1-4.167 4.165Z"/>
    <path fill="#E4E4E4" d="M332.716 249.347h-76.801a1.896 1.896 0 0 1-1.892-1.892 1.89 1.89 0 0 1 1.892-1.891h76.801a1.891 1.891 0 1 1 0 3.783Zm-47.631 8.865h-29.17a1.896 1.896 0 0 1-1.892-1.892 1.89 1.89 0 0 1 1.892-1.891h29.17a1.897 1.897 0 0 1 1.751 1.167 1.88 1.88 0 0 1 0 1.449 1.888 1.888 0 0 1-1.751 1.167Z"/>
  </g>
  <defs>
    <clipPath id="a">
      <path fill="#fff" d="M0 0h445v304H0z"/>
    </clipPath>
  </defs>
</svg>
