<svg width="18" height="16" viewBox="0 0 18 16" fill="none" xmlns="http://www.w3.org/2000/svg">
<g clip-path="url(#clip0_18_2274)">
<path d="M7.04 15.04V10.24H10.88V15.04C10.88 15.568 11.312 16 11.84 16H14.72C15.248 16 15.68 15.568 15.68 15.04V8.32003H17.312C17.7536 8.32003 17.9648 7.77283 17.6288 7.48483L9.6032 0.25603C9.2384 -0.0703695 8.6816 -0.0703695 8.3168 0.25603L0.291204 7.48483C-0.0351962 7.77283 0.166404 8.32003 0.608004 8.32003H2.24V15.04C2.24 15.568 2.672 16 3.2 16H6.08C6.608 16 7.04 15.568 7.04 15.04Z" fill="#EEEDEE"/>
</g>
<defs>
<clipPath id="clip0_18_2274">
<rect width="17.92" height="16" fill="#EEEDEE"/>
</clipPath>
</defs>
</svg>
