<svg width="24" height="24" viewBox="0 0 24 24" fill="none" xmlns="http://www.w3.org/2000/svg">
<path d="M3 4.5C2.17157 4.5 1.5 5.17157 1.5 6C1.5 6.82843 2.17157 7.5 3 7.5H21C21.8284 7.5 22.5 6.82843 22.5 6C22.5 5.17157 21.8284 4.5 21 4.5H3ZM3 10.5C2.17157 10.5 1.5 11.1716 1.5 12C1.5 12.8284 2.17157 13.5 3 13.5H21C21.8284 13.5 22.5 12.8284 22.5 12C22.5 11.1716 21.8284 10.5 21 10.5H3ZM3 16.5C2.17157 16.5 1.5 17.1716 1.5 18C1.5 18.8284 2.17157 19.5 3 19.5H21C21.8284 19.5 22.5 18.8284 22.5 18C22.5 17.1716 21.8284 16.5 21 16.5H3Z" fill="white"/>
</svg>
