<svg width="16" height="16" viewBox="0 0 16 16" fill="none" xmlns="http://www.w3.org/2000/svg">
<path d="M8 6.4C8.84869 6.4 9.66263 6.06286 10.2627 5.46274C10.8629 4.86263 11.2 4.04869 11.2 3.2C11.2 2.35131 10.8629 1.53737 10.2627 0.937258C9.66263 0.337142 8.84869 0 8 0C7.15131 0 6.33737 0.337142 5.73726 0.937258C5.13714 1.53737 4.8 2.35131 4.8 3.2C4.8 4.04869 5.13714 4.86263 5.73726 5.46274C6.33737 6.06286 7.15131 6.4 8 6.4ZM2.8 8.8C3.33043 8.8 3.83914 8.58929 4.21421 8.21421C4.58929 7.83914 4.8 7.33043 4.8 6.8C4.8 6.26957 4.58929 5.76086 4.21421 5.38579C3.83914 5.01071 3.33043 4.8 2.8 4.8C2.26957 4.8 1.76086 5.01071 1.38579 5.38579C1.01071 5.76086 0.8 6.26957 0.8 6.8C0.8 7.33043 1.01071 7.83914 1.38579 8.21421C1.76086 8.58929 2.26957 8.8 2.8 8.8ZM15.2 6.8C15.2 7.33043 14.9893 7.83914 14.6142 8.21421C14.2391 8.58929 13.7304 8.8 13.2 8.8C12.6696 8.8 12.1609 8.58929 11.7858 8.21421C11.4107 7.83914 11.2 7.33043 11.2 6.8C11.2 6.26957 11.4107 5.76086 11.7858 5.38579C12.1609 5.01071 12.6696 4.8 13.2 4.8C13.7304 4.8 14.2391 5.01071 14.6142 5.38579C14.9893 5.76086 15.2 6.26957 15.2 6.8ZM8 7.2C9.06087 7.2 10.0783 7.62143 10.8284 8.37157C11.5786 9.12172 12 10.1391 12 11.2V16H4V11.2C4 10.1391 4.42143 9.12172 5.17157 8.37157C5.92172 7.62143 6.93913 7.2 8 7.2ZM2.4 11.2C2.4 10.6456 2.48 10.1104 2.6304 9.6048L2.4944 9.616C1.8087 9.69129 1.17493 10.017 0.71461 10.5308C0.254289 11.0446 -0.000179007 11.7102 9.4478e-08 12.4V16H2.4V11.2ZM16 16V12.4C16.0001 11.6867 15.7279 11.0002 15.2391 10.4808C14.7503 9.96132 14.0816 9.64801 13.3696 9.6048C13.5192 10.1104 13.6 10.6456 13.6 11.2V16H16Z" fill="#EEEDEE"/>
</svg>
